<svg width="17" height="14" viewBox="0 0 17 14" fill="none" xmlns="http://www.w3.org/2000/svg">
<path fill-rule="evenodd" clip-rule="evenodd" d="M7.49422 2.25977C5.72231 2.25977 4.28589 3.69619 4.28589 5.4681C4.28589 5.71096 4.31274 5.94665 4.36334 6.17269C4.45379 6.57678 4.19965 6.97771 3.7956 7.06834C2.71661 7.31037 1.91089 8.2752 1.91089 9.42643C1.91089 10.7611 2.99287 11.8431 4.32756 11.8431H11.4526C13.2245 11.8431 14.6609 10.4067 14.6609 8.63477C14.6609 6.86285 13.2245 5.42643 11.4526 5.42643C11.4311 5.42643 11.4096 5.42664 11.3882 5.42706C11.026 5.43415 10.7105 5.18132 10.6385 4.82626C10.3415 3.36182 9.04574 2.25977 7.49422 2.25977ZM2.78589 5.4681C2.78589 2.86776 4.89388 0.759766 7.49422 0.759766C9.56494 0.759766 11.3222 2.09589 11.9532 3.95273C14.3181 4.20268 16.1609 6.20352 16.1609 8.63477C16.1609 11.2351 14.0529 13.3431 11.4526 13.3431H4.32756C2.16444 13.3431 0.410889 11.5895 0.410889 9.42643C0.410889 7.80513 1.39545 6.41513 2.79884 5.81957C2.79025 5.70344 2.78589 5.58623 2.78589 5.4681Z" fill="white"/>
</svg>
