<svg width="22" height="22" viewBox="0 0 22 22" fill="none" xmlns="http://www.w3.org/2000/svg">
<path fill-rule="evenodd" clip-rule="evenodd" d="M10.648 0.5C4.74858 0.5 0.00244141 5.24614 0.00244141 11.1455C0.00244141 15.8473 3.06303 19.8394 7.27689 21.2588C7.80917 21.3475 7.9866 21.037 7.9866 20.7265C7.9866 20.4604 7.9866 19.795 7.9866 18.9079C5.01472 19.5733 4.39373 17.4885 4.39373 17.4885C3.90581 16.2465 3.1961 15.936 3.1961 15.936C2.22026 15.2707 3.28482 15.2707 3.28482 15.2707C4.34937 15.3594 4.926 16.3796 4.926 16.3796C5.85749 18.0208 7.40996 17.5329 8.03095 17.2667C8.11967 16.557 8.3858 16.1135 8.6963 15.8473C6.34541 15.5812 3.86145 14.6497 3.86145 10.5689C3.86145 9.41564 4.26066 8.4398 4.97036 7.7301C4.88165 7.46396 4.48244 6.3994 5.05907 4.89129C5.05907 4.89129 5.9462 4.62515 7.9866 6.0002C8.82937 5.77841 9.76085 5.64534 10.648 5.64534C11.5351 5.64534 12.4666 5.77841 13.3094 6.0002C15.3498 4.62515 16.2369 4.89129 16.2369 4.89129C16.8135 6.35505 16.4587 7.4196 16.3256 7.7301C16.9909 8.48416 17.4345 9.41564 17.4345 10.5689C17.4345 14.6497 14.9506 15.5368 12.5553 15.803C12.9545 16.1135 13.265 16.7788 13.265 17.7546C13.265 19.1741 13.265 20.3273 13.265 20.6822C13.265 20.9483 13.4424 21.3032 14.0191 21.2144C18.2329 19.8394 21.2935 15.8473 21.2935 11.1455C21.2935 5.24614 16.5474 0.5 10.648 0.5Z" fill="white"/>
</svg>
