<svg width="23" height="23" viewBox="0 0 23 23" fill="none" xmlns="http://www.w3.org/2000/svg">
<path d="M11.8732 2.50535C14.8446 2.50535 15.1965 2.51647 16.3704 2.57C17.0761 2.57864 17.7752 2.70823 18.4372 2.95316C18.9172 3.13829 19.3532 3.4219 19.717 3.78571C20.0808 4.14953 20.3644 4.5855 20.5496 5.06555C20.7945 5.72752 20.9241 6.42659 20.9327 7.13237C20.9857 8.30622 20.9974 8.65811 20.9974 11.6296C20.9974 14.601 20.9863 14.9529 20.9327 16.1267C20.9241 16.8325 20.7945 17.5316 20.5496 18.1936C20.3644 18.6736 20.0808 19.1096 19.717 19.4734C19.3532 19.8372 18.9172 20.1208 18.4372 20.306C17.7752 20.5509 17.0761 20.6805 16.3704 20.6891C15.197 20.7421 14.8452 20.7538 11.8732 20.7538C8.90119 20.7538 8.5493 20.7426 7.37598 20.6891C6.67021 20.6805 5.97114 20.5509 5.30916 20.306C4.82911 20.1208 4.39314 19.8372 4.02932 19.4734C3.66551 19.1096 3.3819 18.6736 3.19677 18.1936C2.95184 17.5316 2.82225 16.8325 2.81361 16.1267C2.76062 14.9529 2.74896 14.601 2.74896 11.6296C2.74896 8.65811 2.76009 8.30622 2.81361 7.13237C2.82225 6.42659 2.95184 5.72752 3.19677 5.06555C3.3819 4.5855 3.66551 4.14953 4.02932 3.78571C4.39314 3.4219 4.82911 3.13829 5.30916 2.95316C5.97114 2.70823 6.67021 2.57864 7.37598 2.57C8.54983 2.517 8.90172 2.50535 11.8732 2.50535V2.50535ZM11.8732 0.5C8.85243 0.5 8.47193 0.512719 7.28483 0.566774C6.36115 0.585147 5.44727 0.760038 4.58207 1.08401C3.83986 1.36365 3.16762 1.80187 2.61223 2.36809C2.0455 2.92368 1.6069 3.59631 1.32709 4.33899C1.00312 5.20419 0.828227 6.11807 0.809855 7.04175C0.75686 8.22779 0.744141 8.60829 0.744141 11.629C0.744141 14.6498 0.756859 15.0303 0.810915 16.2174C0.829287 17.1411 1.00418 18.0549 1.32815 18.9201C1.60765 19.6627 2.04588 20.3353 2.61223 20.891C3.16792 21.4574 3.84054 21.8956 4.58313 22.1751C5.44833 22.4991 6.36221 22.674 7.28589 22.6923C8.47299 22.7453 8.8519 22.7591 11.8742 22.7591C14.8966 22.7591 15.2755 22.7464 16.4626 22.6923C17.3863 22.674 18.3001 22.4991 19.1653 22.1751C19.9044 21.8886 20.5755 21.4511 21.1358 20.8904C21.6961 20.3297 22.1333 19.6583 22.4193 18.9191C22.7432 18.0539 22.9181 17.14 22.9365 16.2163C22.9895 15.0303 23.0022 14.6498 23.0022 11.629C23.0022 8.60829 22.9895 8.22779 22.9354 7.04069C22.9171 6.11701 22.7422 5.20313 22.4182 4.33793C22.1387 3.59534 21.7005 2.92272 21.1341 2.36703C20.5784 1.80068 19.9058 1.36245 19.1632 1.08295C18.298 0.758978 17.3841 0.584087 16.4605 0.565714C15.2744 0.512719 14.8939 0.5 11.8732 0.5Z" fill="white"/>
<path d="M11.8771 5.91406C10.7468 5.91406 9.64187 6.24924 8.70204 6.87722C7.76221 7.50519 7.0297 8.39776 6.59714 9.44204C6.16459 10.4863 6.05141 11.6354 6.27192 12.744C6.49244 13.8526 7.03674 14.871 7.836 15.6702C8.63526 16.4695 9.65358 17.0138 10.7622 17.2343C11.8708 17.4548 13.0199 17.3416 14.0642 16.9091C15.1085 16.4765 16.001 15.744 16.629 14.8042C17.257 13.8643 17.5922 12.7594 17.5922 11.6291C17.5922 10.1134 16.99 8.65973 15.9183 7.58795C14.8465 6.51618 13.3929 5.91406 11.8771 5.91406ZM11.8771 15.3388C11.1434 15.3388 10.4262 15.1212 9.81615 14.7136C9.20609 14.3059 8.73062 13.7266 8.44984 13.0487C8.16906 12.3709 8.0956 11.625 8.23874 10.9054C8.38188 10.1858 8.73519 9.52475 9.254 9.00595C9.7728 8.48714 10.4338 8.13383 11.1534 7.99069C11.873 7.84755 12.6189 7.92101 13.2968 8.20179C13.9746 8.48257 14.554 8.95804 14.9616 9.5681C15.3692 10.1782 15.5868 10.8954 15.5868 11.6291C15.5868 12.613 15.196 13.5565 14.5003 14.2522C13.8046 14.9479 12.861 15.3388 11.8771 15.3388V15.3388Z" fill="white"/>
<path d="M17.814 7.02253C18.5516 7.02253 19.1495 6.42461 19.1495 5.68705C19.1495 4.94948 18.5516 4.35156 17.814 4.35156C17.0764 4.35156 16.4785 4.94948 16.4785 5.68705C16.4785 6.42461 17.0764 7.02253 17.814 7.02253Z" fill="white"/>
</svg>
