<svg width="23" height="20" viewBox="0 0 23 20" fill="none" xmlns="http://www.w3.org/2000/svg">
<path fill-rule="evenodd" clip-rule="evenodd" d="M16.6173 0C19.9473 0 22.4583 2.717 22.4583 6.32V13.188C22.4583 15.032 21.8063 16.698 20.6213 17.88C19.5583 18.939 18.1793 19.5 16.6333 19.5H6.78025C5.23725 19.5 3.85925 18.94 2.79525 17.88C1.61025 16.698 0.958252 15.032 0.958252 13.188V6.32C0.958252 2.717 3.46925 0 6.79925 0H16.6173ZM16.6173 1.5H6.79925C4.28425 1.5 2.45825 3.527 2.45825 6.32V13.188C2.45825 14.631 2.95425 15.92 3.85425 16.817C4.63025 17.592 5.64325 18 6.78325 18H16.6173C16.6193 17.998 16.6273 18 16.6333 18C17.7743 18 18.7863 17.592 19.5623 16.817C20.4633 15.92 20.9583 14.631 20.9583 13.188V6.32C20.9583 3.527 19.1323 1.5 16.6173 1.5ZM18.1933 6.1288C18.4543 6.4498 18.4053 6.9218 18.0843 7.1838L13.6403 10.7958C13.0783 11.2418 12.4063 11.4648 11.7353 11.4648C11.0663 11.4648 10.3993 11.2438 9.84125 10.8018L5.35625 7.1858C5.03325 6.9258 4.98325 6.4528 5.24225 6.1308C5.50325 5.8098 5.97525 5.7588 6.29725 6.0178L10.7783 9.6298C11.3413 10.0758 12.1343 10.0758 12.7013 9.6258L17.1373 6.0198C17.4593 5.7568 17.9313 5.8068 18.1933 6.1288Z" fill="white"/>
</svg>
