<svg width="15" height="17" viewBox="0 0 15 17" fill="none" xmlns="http://www.w3.org/2000/svg">
<path fill-rule="evenodd" clip-rule="evenodd" d="M7.16846 0.5C10.9593 0.5 14.0435 3.6075 14.0435 7.4275C14.0435 12.1233 8.66346 16.75 7.16846 16.75C5.67346 16.75 0.293457 12.1233 0.293457 7.4275C0.293457 3.6075 3.37762 0.5 7.16846 0.5ZM7.16846 1.75C4.06679 1.75 1.54346 4.2975 1.54346 7.4275C1.54346 11.41 6.23012 15.29 7.16846 15.4967C8.10679 15.2892 12.7935 11.4092 12.7935 7.4275C12.7935 4.2975 10.2701 1.75 7.16846 1.75ZM7.16929 4.66667C8.66262 4.66667 9.87762 5.88167 9.87762 7.37583C9.87762 8.86917 8.66262 10.0833 7.16929 10.0833C5.67596 10.0833 4.46096 8.86917 4.46096 7.37583C4.46096 5.88167 5.67596 4.66667 7.16929 4.66667ZM7.16929 5.91667C6.36512 5.91667 5.71096 6.57083 5.71096 7.37583C5.71096 8.18 6.36512 8.83333 7.16929 8.83333C7.97346 8.83333 8.62762 8.18 8.62762 7.37583C8.62762 6.57083 7.97346 5.91667 7.16929 5.91667Z" fill="white"/>
</svg>
