<svg width="18" height="18" viewBox="0 0 18 18" fill="none" xmlns="http://www.w3.org/2000/svg">
<path fill-rule="evenodd" clip-rule="evenodd" d="M3.88097 0.760216C4.81181 0.772716 5.47514 1.47022 6.31431 2.35272C6.52181 2.57022 6.74597 2.80772 6.99681 3.05772C8.21264 4.27438 7.86681 5.26688 7.58764 6.06355C7.28431 6.93272 7.02181 7.68272 8.59347 9.25438C10.1651 10.826 10.9143 10.5635 11.7826 10.2577C12.5801 9.97938 13.5701 9.63105 14.7885 10.8477C15.036 11.0952 15.2693 11.3169 15.486 11.5227C16.3718 12.366 17.0718 13.0319 17.0836 13.9652C17.0926 14.7602 16.6093 15.5719 15.416 16.7652L14.8876 16.4069L15.3351 16.8427C15.071 17.1135 14.3685 17.8352 12.9926 17.8435H12.9676C10.891 17.8435 8.18347 16.1902 4.92014 12.9277C1.64347 9.65188 -0.0123603 6.93605 6.94604e-05 4.85522C0.00763971 3.48022 0.728473 2.77605 0.999306 2.51188L1.02242 2.48664L1.07847 2.43022C2.27431 1.23438 3.09597 0.742716 3.88097 0.760216ZM3.86514 2.01022H3.85847C3.48425 2.01022 2.91594 2.38522 2.12333 3.15513L1.96417 3.31143L1.96597 3.31105C1.96597 3.31105 1.95237 3.32665 1.92919 3.35029L1.87347 3.40605C1.67181 3.60188 1.25431 4.00938 1.2501 4.86188C1.24347 6.05438 2.02764 8.26855 5.80347 12.0435C9.56097 15.8002 11.7718 16.5935 12.9676 16.5935H12.9851C13.8376 16.5885 14.2443 16.171 14.4401 15.9702C14.4993 15.9094 14.5476 15.8635 14.5818 15.836C15.4126 15.0002 15.8376 14.3794 15.8335 13.9802C15.8285 13.5735 15.3226 13.0935 14.6235 12.4277C14.401 12.2169 14.1593 11.986 13.9043 11.731C13.2426 11.0719 12.9168 11.1844 12.196 11.4377C11.2001 11.7869 9.83597 12.2652 7.71014 10.1377C5.58347 8.01188 6.06014 6.64772 6.40764 5.65105C6.65931 4.93105 6.77431 4.60355 6.11347 3.94188C5.85514 3.68355 5.62264 3.43855 5.40847 3.21355C4.74681 2.51855 4.26931 2.01605 3.86514 2.01022ZM11.0386 3.7248C12.7727 4.06147 14.1119 5.3998 14.4494 7.1348C14.5152 7.4748 14.2944 7.8023 13.9561 7.86813C13.9152 7.87563 13.8752 7.8798 13.8352 7.8798C13.5419 7.8798 13.2811 7.67313 13.2227 7.3748C12.9827 6.14147 12.0319 5.19063 10.8002 4.95147C10.4611 4.88563 10.2402 4.55813 10.3061 4.21897C10.3719 3.8798 10.7052 3.65813 11.0386 3.7248ZM10.9886 0.764966C14.387 1.14247 17.0261 3.7783 17.407 7.1758C17.4453 7.51913 17.1986 7.8283 16.8561 7.86663C16.8328 7.86913 16.8086 7.8708 16.7853 7.8708C16.4711 7.8708 16.2011 7.63497 16.1653 7.3158C15.8495 4.50247 13.6645 2.31913 10.8503 2.00663C10.5078 1.9683 10.2603 1.65997 10.2986 1.31663C10.3361 0.974132 10.642 0.721632 10.9886 0.764966Z" fill="white"/>
</svg>
