<svg width="14" height="15" viewBox="0 0 14 15" fill="none" xmlns="http://www.w3.org/2000/svg">
<path d="M13.1178 1.14775C12.7843 0.805498 12.2908 0.67799 11.8306 0.812209L1.09955 3.93278C0.614021 4.06767 0.26988 4.45489 0.177175 4.9468C0.08247 5.44743 0.413272 6.08296 0.845449 6.34871L4.20082 8.41097C4.54496 8.62237 4.98915 8.56935 5.27393 8.28212L9.11617 4.41597C9.30958 4.21464 9.62971 4.21464 9.82312 4.41597C10.0165 4.61058 10.0165 4.926 9.82312 5.12732L5.97421 8.99415C5.68876 9.2807 5.63541 9.72698 5.8455 10.0733L7.89567 13.4623C8.13577 13.8649 8.54927 14.0931 9.00279 14.0931C9.05614 14.0931 9.11617 14.0931 9.16952 14.0864C9.68974 14.0193 10.1032 13.6636 10.2566 13.1603L13.4379 2.44296C13.578 1.98662 13.4513 1.49001 13.1178 1.14775Z" fill="white"/>
</svg>
