<svg width="19" height="16" viewBox="0 0 19 16" fill="none" xmlns="http://www.w3.org/2000/svg">
<path d="M18.3572 2.22098C17.6688 2.52694 16.9421 2.71816 16.1772 2.83289C16.9421 2.37396 17.554 1.64732 17.8217 0.767709C17.0951 1.18839 16.292 1.49435 15.4124 1.68557C14.724 0.958929 13.7296 0.5 12.6588 0.5C10.5936 0.5 8.91087 2.18274 8.91087 4.24792C8.91087 4.55387 8.94912 4.82158 9.0256 5.08929C5.92783 4.93631 3.13601 3.44479 1.26205 1.15015C0.956102 1.72381 0.764882 2.33572 0.764882 3.02411C0.764882 4.32441 1.41503 5.47173 2.44762 6.16012C1.83572 6.12188 1.26205 5.9689 0.726638 5.7012V5.73944C0.726638 7.57516 2.02694 9.10492 3.74792 9.44912C3.44197 9.5256 3.09777 9.56385 2.75357 9.56385C2.52411 9.56385 2.2564 9.52561 2.02694 9.48736C2.52411 10.9789 3.9009 12.088 5.54539 12.088C4.24509 13.0823 2.63884 13.6942 0.879614 13.6942C0.573661 13.6942 0.267709 13.6942 0 13.656C1.68274 14.7268 3.63319 15.3387 5.77486 15.3387C12.697 15.3387 16.4832 9.60209 16.4832 4.63036C16.4832 4.47739 16.4832 4.28616 16.4832 4.13319C17.2098 3.63602 17.86 2.98587 18.3572 2.22098Z" fill="white"/>
</svg>
