<svg width="100" height="100" viewBox="0 0 100 100" fill="none" xmlns="http://www.w3.org/2000/svg">
<path fill-rule="evenodd" clip-rule="evenodd" d="M50 100C77.6142 100 100 77.6142 100 50C100 22.3858 77.6142 0 50 0C22.3858 0 0 22.3858 0 50C0 77.6142 22.3858 100 50 100ZM39.3571 31C36.3985 31 34 33.3985 34 36.3571V63.1429C34 66.1015 36.3985 68.5 39.3571 68.5C42.3158 68.5 44.7143 66.1015 44.7143 63.1429V36.3571C44.7143 33.3985 42.3158 31 39.3571 31ZM60.7857 31C57.827 31 55.4286 33.3985 55.4286 36.3571V63.1429C55.4286 66.1015 57.827 68.5 60.7857 68.5C63.7444 68.5 66.1429 66.1015 66.1429 63.1429V36.3571C66.1429 33.3985 63.7444 31 60.7857 31Z" fill="white"/>
</svg>
