<svg width="69" height="45" viewBox="0 0 69 45" fill="none" xmlns="http://www.w3.org/2000/svg">
<path d="M19.8631 23.0499C16.4706 23.0499 13.7063 25.4574 13.7063 28.4147C13.7063 31.3729 16.4656 33.7812 19.8631 33.7812C23.2605 33.7812 26.0199 31.3746 26.0199 28.4147C26.0199 25.4549 23.2588 23.0499 19.8631 23.0499ZM19.8631 23.9384C22.4968 23.9384 24.6838 25.5913 25.0665 27.7434C24.8727 30.0586 22.6133 31.892 19.8631 31.892C17.1137 31.892 14.8468 30.0586 14.6596 27.7434C15.0498 25.5913 17.2293 23.9384 19.8631 23.9384ZM19.8631 32.8936C17.4439 32.8936 15.4008 31.4952 14.7894 29.601C15.7153 31.2199 17.6419 32.3338 19.8631 32.3338C22.0842 32.3338 24.0108 31.2174 24.9367 29.601C24.3253 31.4952 22.2822 32.8936 19.8631 32.8936ZM48.5415 23.0499C45.1491 23.0499 42.3856 25.4574 42.3856 28.4147C42.3856 31.3729 45.1441 33.7812 48.5415 33.7812C51.9398 33.7812 54.6983 31.3746 54.6983 28.4147C54.6983 25.4549 51.9323 23.0499 48.5415 23.0499ZM48.5415 23.9384C51.1753 23.9384 53.3623 25.5913 53.745 27.7434C53.5511 30.0586 51.2917 31.892 48.5415 31.892C45.7921 31.892 43.5252 30.0586 43.3381 27.7434C43.7216 25.5913 45.9078 23.9384 48.5415 23.9384ZM48.5415 32.8936C46.1224 32.8936 44.0793 31.4952 43.4687 29.601C44.3937 31.2199 46.3212 32.3338 48.5415 32.3338C50.7627 32.3338 52.6876 31.2174 53.6152 29.601C53.0021 31.4952 50.9615 32.8936 48.5415 32.8936ZM68.9885 3.49808C68.9885 3.47978 68.9885 3.46148 68.9885 3.44318V3.26099C68.9926 3.16533 68.9677 3.07798 68.9136 2.99978C68.3413 0.107313 65.8489 0.294487 65.8215 0.296983C65.7591 0.301975 65.7025 0.32194 65.6509 0.358543C65.5994 0.394314 65.5603 0.440068 65.5345 0.496636L64.7816 2.06807C64.3765 1.74031 63.9298 1.48741 63.4398 1.30856C62.9506 1.13053 62.4457 1.0357 61.9249 1.02488H6.65353C6.2326 1.03653 5.82497 1.11722 5.43066 1.26863C5.03718 1.42003 4.6803 1.63299 4.36002 1.90668L3.5456 0.205476C3.51898 0.148907 3.47905 0.102322 3.42748 0.0665506C3.3759 0.0299476 3.31933 0.0091504 3.25611 0.0024953C3.22866 0.0024953 0.609045 -0.195494 0.127383 2.93573C0.0400346 3.0264 -0.00239172 3.13538 0.00010399 3.26099L0.889391 28.4306C0.891055 28.4755 0.899373 28.5187 0.914347 28.5603L5.64861 42.2856C5.68272 42.3821 5.74262 42.4578 5.8283 42.5136C6.01048 42.9561 6.28085 43.3355 6.64022 43.6524C7.28743 44.2173 8.16341 44.5018 9.25318 44.5018C9.51772 44.5009 9.78143 44.4851 10.0443 44.4535C10.0892 44.4485 10.1317 44.4361 10.1716 44.4153C10.2115 44.3945 10.2456 44.367 10.2756 44.3329C10.3047 44.2988 10.3271 44.2605 10.3421 44.2181C10.3563 44.1757 10.3629 44.1316 10.3613 44.0867L10.2015 40.4438H24.8294C24.9134 40.4438 24.9908 40.4222 25.0624 40.3781C25.1339 40.3349 25.1888 40.275 25.2262 40.2001L29.0479 32.5634H39.5031C39.5289 32.5659 39.5546 32.5659 39.5804 32.5634L43.4046 40.2051C43.4437 40.2791 43.4986 40.3382 43.5702 40.3814C43.6417 40.4255 43.7199 40.448 43.8031 40.4488H58.8869L58.7188 44.3878C58.7163 44.4327 58.723 44.476 58.7371 44.5184C58.7521 44.5617 58.7737 44.5999 58.8028 44.634C58.832 44.6681 58.8669 44.6956 58.9068 44.7172C58.9459 44.738 58.9884 44.7513 59.0333 44.7563C59.2961 44.7854 59.5599 44.8012 59.8244 44.8021C60.9142 44.8021 61.7926 44.5176 62.4374 43.9552C62.741 43.6799 62.9847 43.3596 63.1686 42.9936C63.3516 42.6275 63.4622 42.2407 63.5005 41.8331L68.0609 28.5745C68.0759 28.532 68.0842 28.4888 68.0859 28.4447L68.961 3.64616C68.9818 3.59874 68.991 3.54966 68.9885 3.49808ZM6.67017 1.90419H61.9332C62.3883 1.91417 62.8267 2.00401 63.2484 2.17538C63.6694 2.34592 64.0471 2.5855 64.3806 2.89496L63.7509 4.21517H5.47309L4.75933 2.73524C5.01305 2.48152 5.30504 2.28353 5.6353 2.14128C5.96556 1.99902 6.3108 1.92332 6.67017 1.91334V1.90419ZM60.128 11.8569L59.9958 14.9032H59.2038C59.2096 12.3419 59.0574 9.79047 58.7479 7.24823C58.7413 7.20081 58.7205 7.16005 58.688 7.12511C58.6548 7.091 58.6148 7.06854 58.5682 7.05939C46.2846 4.93059 37.3618 7.04358 37.2794 7.05939C37.1962 7.08102 37.1422 7.13343 37.1181 7.21662C36.9442 7.94202 36.8252 8.67658 36.7595 9.42028H32.3929C32.279 8.07512 32.165 7.25239 32.165 7.24324C32.1575 7.19582 32.1375 7.15506 32.1043 7.12012C32.0702 7.08518 32.0302 7.06355 31.9828 7.0544C19.7017 4.9256 10.7764 7.0361 10.694 7.0544C10.6108 7.07603 10.5567 7.12844 10.5326 7.21162C10.5052 7.31228 9.86877 9.68233 9.97609 14.8941H9.09346L8.95037 11.5566C8.94788 11.5083 8.93623 11.4626 8.91543 11.4193L5.8075 4.93225H63.4115L60.1621 11.7204C60.1422 11.7637 60.1314 11.8095 60.128 11.8569ZM47.0641 9.62326C47.0225 9.5617 46.9693 9.51429 46.9035 9.47935C46.8386 9.44441 46.7688 9.42611 46.6947 9.42527H37.1979C37.2628 8.76642 37.366 8.11339 37.5057 7.46701C38.6454 7.21662 47.0233 5.54036 58.3195 7.46701C58.6098 9.93605 58.7571 12.4142 58.7596 14.9008H45.9535V12.772L47.094 10.04C47.1556 9.89612 47.1456 9.7572 47.0641 9.62326ZM21.5252 10.0417L22.6657 12.7744V14.9057H10.4211C10.3271 10.4202 10.8013 8.02438 10.9294 7.46868C12.0691 7.21828 20.447 5.54286 31.7457 7.46868C31.7823 7.76483 31.8639 8.45529 31.9462 9.42527H21.9386C21.902 9.42611 21.8662 9.43193 21.8313 9.44108C21.7964 9.45106 21.7631 9.4652 21.7315 9.48267C21.6999 9.50014 21.6707 9.52094 21.6441 9.5459C21.6175 9.57085 21.5942 9.59831 21.5743 9.62825C21.5543 9.6582 21.5376 9.69065 21.5252 9.72475C21.5127 9.75803 21.5052 9.7938 21.501 9.82957C21.4969 9.86534 21.4969 9.90111 21.5019 9.93772C21.506 9.97349 21.5152 10.0084 21.5277 10.0417H21.5252ZM2.99656 0.706271L3.8559 2.50731C3.84092 2.58467 3.84592 2.66037 3.87004 2.73441C3.895 2.80928 3.93576 2.87334 3.99316 2.92658C4.02061 2.9507 4.05139 2.97067 4.08384 2.98814L4.91406 4.72262L8.24327 11.6697L8.38219 14.9032H5.92896C5.86906 14.9049 5.8125 14.9174 5.75759 14.9415C5.70352 14.9648 5.65527 14.9981 5.61367 15.0405C5.57208 15.0829 5.54047 15.132 5.51801 15.1869C5.49555 15.2418 5.4839 15.2992 5.4839 15.3583V20.9827C5.48806 21.0825 5.5205 21.1715 5.58289 21.2497C5.64529 21.3279 5.72515 21.3803 5.82165 21.4061C6.80327 21.684 7.73831 22.0741 8.62594 22.5766L9.06434 32.6407C8.19252 33.0234 7.27994 33.2056 6.32743 33.1873C6.20182 33.1823 6.09201 33.2222 5.99967 33.3079C5.9847 33.3212 5.97139 33.337 5.96057 33.3537L5.09874 12.2986C5.09624 12.2495 5.08543 12.2038 5.06463 12.1597L0.89355 3.36332V3.23188C0.891887 3.162 0.873585 3.09628 0.839478 3.03555C1.15393 1.01823 2.49244 0.742874 2.99822 0.712926L2.99656 0.706271ZM9.93033 32.1283L9.54101 23.1414C11.4968 24.5415 12.352 26.2743 12.0833 28.2966C11.8229 30.2707 10.9452 31.4412 9.93283 32.1441L9.93033 32.1283ZM0.957605 5.1577L4.39163 12.3984L5.47309 39.0621L1.77618 28.3324L0.957605 5.1577ZM9.63668 43.7755C8.54607 43.8437 7.69838 43.625 7.12854 43.1217C6.85485 42.8829 6.64771 42.5959 6.50795 42.2607C6.53457 42.1733 6.53457 42.0851 6.50795 41.997L6.30248 41.4022L6.26421 40.4305H9.51106L9.63668 43.7755ZM29.493 31.6683L29.8207 31.0127C29.8349 30.9878 29.8457 30.9612 29.8532 30.9329L29.864 30.8921H38.7577L38.7827 30.9562C38.7885 30.9753 38.796 30.9944 38.8051 31.0127L39.1337 31.6683H29.493ZM30.2883 30.0045C30.4754 29.69 30.7009 29.4064 30.9638 29.1518C31.2275 28.8981 31.5186 28.6834 31.8397 28.5071C32.1608 28.3316 32.4986 28.2001 32.8546 28.1153C33.2107 28.0296 33.5709 27.9922 33.9369 28.003C35.5059 27.9639 36.792 28.4397 37.7586 29.4255C37.9341 29.606 38.0955 29.799 38.2419 30.0045H30.2883ZM39.617 30.6367C39.4706 30.2549 38.1122 27.0072 33.9394 27.1145C30.8856 27.1145 29.5928 29.2774 29.1685 30.2407C29.1577 30.2624 29.1477 30.284 29.1394 30.3073C29.0729 30.4662 29.0296 30.5843 29.0113 30.6484L24.5541 39.5471H6.74504V34.0616C7.75828 34.0059 8.72244 33.7613 9.63834 33.3262C9.6999 33.3121 9.75564 33.2854 9.80472 33.2463C11.2281 32.5018 12.619 31.0951 12.975 28.4306C13.401 25.2428 11.3487 23.1938 9.36964 21.9918C9.32472 21.9493 9.27314 21.9177 9.21491 21.8977C8.31814 21.3745 7.37478 20.9544 6.38483 20.6391V15.7917H23.1357C23.1956 15.7917 23.2538 15.7801 23.3096 15.7568C23.3661 15.7335 23.4152 15.701 23.4576 15.6578C23.5009 15.6153 23.5333 15.5663 23.5566 15.5105C23.5799 15.4548 23.5916 15.3966 23.5916 15.3358V12.6829C23.5916 12.623 23.5799 12.5656 23.5575 12.5099L22.6316 10.3129H46.0242L45.0983 12.5099C45.0759 12.5656 45.0642 12.623 45.0642 12.6829V15.3475C45.0642 15.4074 45.0759 15.4656 45.0992 15.5213C45.1225 15.5771 45.1549 15.627 45.1982 15.6694C45.2406 15.7118 45.2897 15.7451 45.3462 15.7684C45.402 15.7909 45.4602 15.8025 45.5201 15.8025H60.0116C60.0399 15.8624 60.0815 15.9098 60.1364 15.9456C60.1913 15.9814 60.2512 16.0005 60.3169 16.003C60.3884 16.0072 60.4541 15.9914 60.5157 15.9548C60.5764 15.9181 60.6222 15.8674 60.6521 15.8025H62.251V20.6391C61.4041 20.9095 60.5897 21.2564 59.8086 21.6798C59.7379 21.6973 59.6763 21.7305 59.6239 21.7796C57.5442 22.9542 55.2066 25.0498 55.6583 28.4306C56.0435 31.3205 57.6465 32.7322 59.188 33.4194C59.2429 33.4601 59.3036 33.4859 59.371 33.4967C60.1755 33.8245 61.0115 34.0125 61.8792 34.0616V39.5471H44.0768L39.617 30.6367ZM56.5501 28.3124C56.2673 26.1994 57.2114 24.4026 59.3569 22.9725L59.4575 22.9068L59.0466 32.372C57.9185 31.7049 56.8396 30.4978 56.5501 28.3124ZM61.9657 43.4112C61.3817 43.9161 60.5382 44.1349 59.4459 44.0667L59.6031 40.423H62.3392C62.3983 40.4222 62.454 40.4097 62.5081 40.3864C62.5621 40.364 62.6096 40.3315 62.6511 40.2899C62.6919 40.2492 62.7244 40.2017 62.7476 40.1477C62.7701 40.0936 62.7826 40.0379 62.7842 39.9796V33.6041C62.7842 33.5433 62.7726 33.4843 62.7485 33.4285C62.7244 33.3728 62.6902 33.3237 62.6462 33.2813C62.6021 33.2397 62.5513 33.2081 62.4939 33.1873C62.4365 33.1657 62.3775 33.1565 62.3167 33.1598C61.4932 33.1806 60.6946 33.0484 59.9226 32.7614L60.3784 22.3511C61.1571 21.9527 61.9682 21.6374 62.8117 21.4061C62.909 21.3795 62.9889 21.3262 63.0505 21.2464C63.1128 21.1674 63.1445 21.0767 63.147 20.976V15.3475C63.147 15.2876 63.1353 15.231 63.1128 15.1753C63.0904 15.1204 63.0588 15.0721 63.0172 15.0289C62.9756 14.9864 62.9273 14.9532 62.8733 14.9299C62.8184 14.9057 62.7618 14.8933 62.7019 14.8916H60.7095L60.8368 11.9476L66.081 0.990776C66.5602 1.01407 67.7756 1.25282 68.1815 2.97899C68.1308 3.05136 68.1033 3.13205 68.0992 3.22023L68.0767 3.87576L64.0129 12.4508C63.993 12.4941 63.9813 12.5399 63.9788 12.5873L62.8209 41.0494L62.4972 41.9853C62.4698 42.0693 62.4673 42.1534 62.4889 42.2382C62.5106 42.3239 62.5538 42.3963 62.6179 42.457C62.4789 42.8288 62.261 43.1466 61.9632 43.4112H61.9657ZM63.6186 38.711L64.6793 12.6813L68.001 5.67263L67.2007 28.3241L63.6186 38.711Z" fill="url(#paint0_linear_14493_2357)"/>
<defs>
<linearGradient id="paint0_linear_14493_2357" x1="0" y1="22.401" x2="68.9889" y2="22.401" gradientUnits="userSpaceOnUse">
<stop stop-color="#0CBAF1"/>
<stop offset="1" stop-color="#E95CE9"/>
</linearGradient>
</defs>
</svg>
