<svg width="64" height="60" viewBox="0 0 64 60" fill="none" xmlns="http://www.w3.org/2000/svg">
<path d="M57.5912 40.8001C57.5912 40.8001 57.6073 40.8001 57.6119 40.8001C57.6218 40.7932 57.631 40.7856 57.6402 40.7771C57.6517 40.7687 57.6625 40.7595 57.6724 40.7488C57.6877 40.735 57.7008 40.7197 57.7115 40.7028L57.7352 40.6706C57.746 40.6507 57.7552 40.6293 57.7628 40.6078C57.7674 40.5986 57.7712 40.5879 57.7743 40.5779C57.7835 40.545 57.7881 40.512 57.7881 40.4783V12.0876C57.7873 12.0126 57.7659 11.9428 57.7237 11.88C57.6816 11.8172 57.6264 11.7705 57.5567 11.7406L32.2291 0.206862C32.1977 0.147102 32.154 0.098068 32.0966 0.0612925C32.0031 0 31.902 -0.0153231 31.7932 0.0153231C31.751 0.00306463 31.7081 -0.00153251 31.6645 0.00153231C31.6208 0.00459674 31.5787 0.0145569 31.5388 0.0321786C31.499 0.0498 31.463 0.073551 31.4308 0.103431C31.3986 0.133311 31.3733 0.167788 31.3534 0.206862L6.02352 11.7406C5.9538 11.7705 5.89787 11.8172 5.85573 11.88C5.81359 11.9428 5.79214 12.0126 5.79138 12.0876V40.4691C5.79138 40.5029 5.79597 40.5358 5.80593 40.5687C5.80593 40.5802 5.80593 40.5871 5.81742 40.5986C5.82892 40.6101 5.83351 40.64 5.84501 40.6614L5.86799 40.6936C5.88025 40.7097 5.89327 40.7258 5.90783 40.7396L5.94001 40.7679C5.94844 40.7756 5.9584 40.784 5.96759 40.7909H5.98828L6.00743 40.8047L31.525 53.146C31.5771 53.172 31.6331 53.1843 31.6913 53.1835C31.7495 53.1835 31.8039 53.1712 31.856 53.146L57.5728 40.8047L57.5912 40.8001ZM49.3734 43.9008L41.4705 40.1359L48.3077 36.8751C48.3475 36.8567 48.3759 36.8276 48.3935 36.787L56.5025 40.4783L49.3734 43.9008ZM40.1665 48.3207L32.2337 44.5397L41.0376 40.3466L48.9405 44.1137L40.1665 48.3207ZM14.6167 44.1275L22.5518 40.3466L31.3557 44.5397L23.3555 48.3506L14.6167 44.1275ZM7.07315 40.4806L15.1822 36.787C15.199 36.8276 15.2274 36.8575 15.2672 36.8751L22.1044 40.1359L14.1762 43.9145L7.07315 40.4806ZM24.5837 32.508L31.3465 35.7312L22.5426 39.9252L15.5874 36.6046L24.5837 32.508ZM25.0472 32.3019L31.8001 29.2296L38.5514 32.3019L31.7978 35.5205L25.0472 32.3019ZM39.0058 32.508L48.0043 36.6046L41.0376 39.9252L32.2337 35.7312L39.0058 32.508ZM22.9939 40.1359L31.7978 35.9419L40.6017 40.1359L31.7978 44.3267L22.9939 40.1359ZM57.0235 21.0003L56.6159 20.8149C56.5929 20.8042 56.5684 20.7988 56.5431 20.7981C56.5178 20.7973 56.4933 20.8011 56.4695 20.8096C56.4458 20.8188 56.4251 20.8318 56.4067 20.8494C56.3883 20.867 56.3738 20.887 56.3631 20.9099C56.3424 20.9582 56.3408 21.0065 56.3592 21.0555C56.3776 21.1045 56.4106 21.1406 56.4581 21.162L57.0235 21.4194V31.2722L56.6159 31.0868C56.5929 31.0761 56.5684 31.0707 56.5431 31.0692C56.5178 31.0684 56.4933 31.0722 56.4695 31.0814C56.4458 31.0906 56.4251 31.1036 56.4067 31.1205C56.3883 31.1381 56.3738 31.158 56.3631 31.1818C56.3424 31.2293 56.3408 31.2783 56.3592 31.3274C56.3776 31.3764 56.4106 31.4116 56.4581 31.4339L57.0235 31.6913V39.8761L32.2728 28.609V20.4234L32.4789 20.5184C32.5272 20.5407 32.5762 20.5429 32.626 20.5246C32.6758 20.5069 32.7118 20.474 32.734 20.4257C32.7555 20.3775 32.757 20.3292 32.7386 20.2794C32.7202 20.2296 32.6865 20.1936 32.639 20.1714L32.2728 20.0043V10.1523L32.4789 10.2473C32.5272 10.2696 32.5762 10.2711 32.626 10.2527C32.6758 10.2335 32.7118 10.2006 32.734 10.1523C32.7547 10.1041 32.7555 10.0558 32.7371 10.0068C32.7187 9.95773 32.6865 9.92249 32.639 9.89951L32.2728 9.72635V1.06649L57.0235 12.3336V21.0003ZM31.5082 0.976083V9.54324L30.7436 9.89261C30.7037 9.91176 30.6738 9.94164 30.6539 9.98148C30.634 10.0213 30.6286 10.0635 30.6378 10.1071C30.6478 10.1508 30.6692 10.1868 30.7037 10.2152C30.7382 10.2435 30.778 10.2581 30.8225 10.2588C30.85 10.2581 30.8769 10.2519 30.9014 10.2404L31.5082 9.96233V19.8243L30.7436 20.176C30.7206 20.1867 30.7006 20.2005 30.683 20.2189C30.6662 20.2373 30.6524 20.2587 30.644 20.2825C30.6348 20.3062 30.6309 20.3307 30.6317 20.356C30.6325 20.3813 30.6386 20.405 30.6485 20.428C30.683 20.5023 30.7413 20.5391 30.8225 20.5399C30.85 20.5391 30.8769 20.533 30.9014 20.5207L31.5082 20.2434V28.4282L6.556 39.8738V31.6913L7.12142 31.4316C7.16969 31.4093 7.20263 31.3733 7.22026 31.3235C7.23864 31.2737 7.23635 31.2247 7.21413 31.1772C7.19191 31.1289 7.15667 31.096 7.10687 31.0784C7.05783 31.06 7.00956 31.0623 6.96206 31.0845L6.556 31.2691V21.4194L7.12142 21.1597C7.16969 21.1375 7.20263 21.1015 7.22026 21.0517C7.23864 21.0019 7.23635 20.9536 7.21413 20.9053C7.19191 20.8578 7.15667 20.8249 7.10687 20.8065C7.05783 20.7889 7.00956 20.7904 6.96206 20.8126L6.556 20.998V12.3336L31.5082 0.976083ZM31.6913 52.3798L23.7869 48.5567L31.7886 44.7435L39.7237 48.5245L31.6913 52.3798ZM23.3325 13.5119C23.3103 13.4644 23.308 13.4162 23.3264 13.3664C23.3448 13.3173 23.377 13.2813 23.4252 13.2599L25.2556 12.4217C25.3023 12.4056 25.3483 12.4071 25.3935 12.4271C25.4387 12.4462 25.4716 12.4784 25.4916 12.5228C25.5122 12.568 25.5153 12.6132 25.5007 12.6607C25.4862 12.7075 25.4578 12.7435 25.4149 12.7688L23.5846 13.6069C23.5601 13.6177 23.5333 13.623 23.5064 13.623C23.4245 13.6238 23.3662 13.5862 23.3325 13.5119ZM26.9909 11.8356C26.9687 11.7873 26.9664 11.739 26.9848 11.6892C27.0024 11.6394 27.0354 11.6034 27.0836 11.5812L28.914 10.7423C28.9599 10.727 29.0059 10.7285 29.0511 10.7484C29.0963 10.7676 29.1293 10.7997 29.1499 10.8442C29.1706 10.8894 29.1737 10.9346 29.1591 10.9821C29.1446 11.0288 29.1155 11.0648 29.0733 11.0901L27.243 11.9283C27.2185 11.9398 27.1917 11.9459 27.1641 11.9467C27.0829 11.9467 27.0246 11.9091 26.9909 11.8356ZM8.68745 20.2273C8.67749 20.2028 8.67212 20.1775 8.67289 20.1507C8.67289 20.1246 8.67902 20.0993 8.68974 20.0748C8.70047 20.0511 8.71656 20.0304 8.73571 20.0128C8.75563 19.9951 8.77862 19.9829 8.8039 19.9745L10.6312 19.134C10.6549 19.1202 10.6802 19.1118 10.707 19.1087C10.7346 19.1056 10.7607 19.1079 10.7867 19.1156C10.8128 19.124 10.8357 19.1371 10.8564 19.1547C10.8771 19.1731 10.8932 19.1945 10.9039 19.219C10.9154 19.2435 10.9216 19.2696 10.9216 19.2972C10.9223 19.324 10.917 19.35 10.9062 19.3753C10.8955 19.4006 10.8802 19.4221 10.8603 19.4404C10.8403 19.4588 10.8174 19.4726 10.7913 19.4811L8.96096 20.3192C8.93645 20.3315 8.90963 20.3376 8.88205 20.3384C8.84298 20.3399 8.8062 20.3315 8.77249 20.3108C8.73878 20.2909 8.7135 20.2625 8.69664 20.2273H8.68745ZM12.355 18.5479C12.3443 18.5249 12.3382 18.5004 12.3374 18.4751C12.3359 18.4498 12.3405 18.4245 12.3489 18.4008C12.3581 18.377 12.3711 18.3556 12.3887 18.3372C12.4064 18.318 12.4271 18.3035 12.45 18.2935L14.2781 17.453C14.3018 17.4392 14.3271 17.4308 14.3539 17.4278C14.3808 17.4239 14.4076 17.427 14.4336 17.4347C14.4597 17.4431 14.4827 17.4561 14.5033 17.4737C14.5233 17.4921 14.5393 17.5136 14.5508 17.5381C14.5623 17.5626 14.5685 17.5887 14.5685 17.6162C14.5692 17.643 14.5639 17.6691 14.5531 17.6944C14.5424 17.7189 14.5271 17.7411 14.5064 17.7595C14.4865 17.7779 14.4635 17.7917 14.4382 17.8001L12.6102 18.6406C12.5841 18.6521 12.5573 18.6574 12.529 18.6567C12.4485 18.6574 12.3903 18.6207 12.355 18.5479ZM16.0134 16.8692C15.992 16.8217 15.9904 16.7727 16.0096 16.7237C16.028 16.6746 16.0609 16.6394 16.1084 16.6172L17.9388 15.7767C17.9871 15.7552 18.0353 15.7537 18.0844 15.7721C18.1334 15.7905 18.1694 15.8242 18.1916 15.8717C18.2016 15.8947 18.2077 15.9184 18.2085 15.9437C18.2092 15.969 18.2054 15.9935 18.1962 16.0173C18.1878 16.041 18.1748 16.0625 18.1571 16.0809C18.1395 16.0992 18.1196 16.1138 18.0966 16.1238L16.2686 16.9642C16.2203 16.9849 16.1713 16.9865 16.1222 16.9681C16.0724 16.9497 16.0364 16.9167 16.0134 16.8692ZM19.6741 15.1906C19.6519 15.1431 19.6496 15.0948 19.668 15.045C19.6864 14.996 19.7193 14.96 19.7668 14.9385L21.5972 14.1003C21.6202 14.0881 21.6447 14.0812 21.6707 14.0789C21.6968 14.0774 21.7221 14.0804 21.7466 14.0888C21.7711 14.0973 21.7933 14.1103 21.8125 14.1279C21.8316 14.1455 21.8469 14.1662 21.8577 14.19C21.8684 14.2137 21.8738 14.2382 21.8745 14.2643C21.8753 14.2903 21.8707 14.3156 21.8607 14.3394C21.8515 14.3639 21.837 14.3846 21.8186 14.403C21.8002 14.4214 21.7788 14.4359 21.7542 14.4451L19.9247 15.2833C19.8994 15.294 19.8733 15.2994 19.8457 15.2994C19.809 15.3001 19.7745 15.2902 19.7438 15.271C19.7124 15.2511 19.6894 15.2243 19.6741 15.1906ZM45.2959 15.8717C45.3181 15.8234 45.3542 15.7905 45.404 15.7721C45.4538 15.7537 45.502 15.7552 45.5511 15.7767L47.4044 16.6172C47.4511 16.6394 47.4841 16.6754 47.5025 16.7244C47.5208 16.7727 47.5201 16.8217 47.4994 16.8692C47.4833 16.9037 47.4595 16.9313 47.4274 16.9512C47.396 16.9711 47.3607 16.9811 47.3232 16.9803C47.2956 16.9803 47.2695 16.975 47.2443 16.9642L45.3909 16.1238C45.3434 16.1015 45.3105 16.0663 45.2913 16.0173C45.2729 15.9682 45.2745 15.9192 45.2959 15.8717ZM52.6748 19.2313C52.6855 19.2083 52.7001 19.1876 52.7184 19.1708C52.7368 19.1531 52.7575 19.1401 52.7813 19.1309C52.805 19.1225 52.8295 19.1179 52.8548 19.1194C52.8801 19.1202 52.9046 19.1256 52.9276 19.1363L54.7809 19.9745C54.8215 19.9936 54.8514 20.0235 54.8713 20.0633C54.8905 20.1032 54.8959 20.1453 54.8867 20.189C54.8775 20.2327 54.8553 20.2679 54.8208 20.2962C54.7863 20.3246 54.7465 20.3399 54.702 20.3407C54.6744 20.3399 54.6484 20.3338 54.6231 20.3215L52.7698 19.4834C52.7468 19.4734 52.7269 19.4588 52.7093 19.4404C52.6916 19.4221 52.6786 19.4006 52.6702 19.3769C52.661 19.3539 52.6572 19.3294 52.6579 19.3041C52.6587 19.2788 52.664 19.2543 52.6748 19.2313ZM41.6076 14.193C41.6299 14.1448 41.6651 14.1118 41.7141 14.0934C41.7632 14.0751 41.8122 14.0766 41.8597 14.098L43.7138 14.9385C43.7613 14.96 43.7943 14.996 43.8119 15.045C43.8303 15.0948 43.828 15.1431 43.8065 15.1906C43.7912 15.2251 43.7674 15.2519 43.736 15.2726C43.7046 15.2925 43.6701 15.3024 43.6326 15.3017C43.6058 15.3009 43.5805 15.2948 43.556 15.2833L41.7027 14.4428C41.6551 14.4206 41.623 14.3854 41.6046 14.3371C41.5862 14.2888 41.587 14.2405 41.6076 14.193ZM48.9865 17.5503C49.0087 17.5028 49.044 17.4699 49.0938 17.4515C49.1428 17.4331 49.1911 17.4354 49.2393 17.4576L51.0927 18.2958C51.1333 18.315 51.1631 18.3441 51.1831 18.3847C51.2022 18.4245 51.2076 18.4667 51.1984 18.5096C51.1892 18.5532 51.167 18.5893 51.1325 18.6176C51.098 18.6459 51.0582 18.6605 51.0137 18.6613C50.9862 18.6613 50.9601 18.6551 50.9348 18.6429L49.0815 17.8047C49.0332 17.7825 48.9995 17.7472 48.9811 17.6974C48.9627 17.6476 48.9643 17.5986 48.9865 17.5503ZM34.2311 10.835C34.2411 10.812 34.2548 10.7913 34.2732 10.7737C34.2916 10.7568 34.3131 10.743 34.3368 10.7346C34.3606 10.7254 34.3851 10.7216 34.4104 10.7224C34.4364 10.7231 34.4602 10.7293 34.4832 10.74L36.3365 11.5789C36.3771 11.5973 36.407 11.6272 36.4269 11.667C36.4468 11.7069 36.4514 11.749 36.4422 11.7927C36.433 11.8363 36.4108 11.8724 36.3763 11.9007C36.3419 11.9291 36.3028 11.9436 36.2576 11.9444C36.23 11.9444 36.2039 11.9375 36.1794 11.926L34.3253 11.0878C34.3023 11.0771 34.2824 11.0625 34.2648 11.0441C34.248 11.0258 34.2342 11.0051 34.2257 10.9813C34.2165 10.9576 34.2127 10.9331 34.2135 10.9078C34.2142 10.8825 34.2204 10.858 34.2311 10.835ZM37.9194 12.5044C37.9293 12.4815 37.9439 12.4615 37.9623 12.4439C37.9807 12.4271 38.0021 12.4133 38.0259 12.4048C38.0496 12.3956 38.0741 12.3918 38.0994 12.3926C38.1247 12.3933 38.1485 12.3995 38.1714 12.4094L40.0248 13.2507C40.0485 13.2606 40.0692 13.2744 40.0861 13.2928C40.1037 13.3112 40.1175 13.3327 40.1259 13.3564C40.1351 13.3802 40.1389 13.4047 40.1382 13.43C40.1366 13.4552 40.1313 13.4798 40.1198 13.5027C40.0983 13.5502 40.0623 13.5832 40.0133 13.6016C39.9642 13.6207 39.9152 13.6192 39.8677 13.5977L38.0144 12.7573C37.9906 12.7465 37.9707 12.7328 37.9531 12.7136C37.9362 12.6952 37.9232 12.6745 37.914 12.6508C37.9048 12.627 37.901 12.6025 37.9017 12.5772C37.9025 12.5519 37.9086 12.5274 37.9194 12.5044ZM23.3233 23.7769C23.3011 23.7286 23.2988 23.6796 23.3172 23.6298C23.3348 23.5808 23.3678 23.544 23.416 23.5218L25.2533 22.6928C25.3 22.6775 25.3452 22.679 25.3912 22.6981C25.4364 22.7181 25.4693 22.7495 25.4893 22.7947C25.5099 22.8391 25.513 22.8851 25.4984 22.9318C25.4839 22.9793 25.4555 23.0153 25.4126 23.0406L23.5823 23.8788C23.5578 23.8903 23.5317 23.8964 23.5041 23.8972C23.4237 23.8956 23.3662 23.8589 23.3325 23.7861L23.3233 23.7769ZM19.6741 25.4716C19.6519 25.4241 19.6496 25.3751 19.668 25.3261C19.6864 25.277 19.7193 25.241 19.7668 25.2188L21.5972 24.3806C21.6447 24.3592 21.6929 24.3569 21.7427 24.3753C21.7918 24.3929 21.8278 24.4258 21.8492 24.4733C21.8715 24.5208 21.8738 24.5699 21.8554 24.6189C21.8378 24.6679 21.8048 24.7039 21.7573 24.7262L19.9247 25.5574C19.8994 25.5682 19.8733 25.5735 19.8457 25.5735C19.7668 25.5758 19.7094 25.5421 19.6741 25.4716ZM16.0134 27.1503C15.992 27.102 15.9904 27.0537 16.0096 27.0047C16.028 26.9557 16.0609 26.9197 16.1084 26.8982L17.9388 26.057C17.9871 26.0363 18.0353 26.0348 18.0844 26.0531C18.1334 26.0715 18.1694 26.1045 18.1916 26.152C18.2016 26.175 18.2077 26.1995 18.2085 26.2248C18.2092 26.25 18.2054 26.2746 18.1962 26.2983C18.1878 26.3221 18.1748 26.3428 18.1571 26.3611C18.1395 26.3795 18.1196 26.3941 18.0966 26.4048L16.2686 27.2453C16.2203 27.266 16.1713 27.2667 16.1222 27.2491C16.0724 27.2307 16.0364 27.1978 16.0134 27.1503ZM12.355 28.8289C12.3451 28.8059 12.3389 28.7822 12.3382 28.7561C12.3374 28.7309 12.3412 28.7063 12.3504 28.6834C12.3589 28.6596 12.3719 28.6382 12.3895 28.6198C12.4071 28.6014 12.4271 28.5868 12.45 28.5769L14.2781 27.7364C14.3018 27.7218 14.3271 27.7134 14.3539 27.7103C14.3808 27.7073 14.4076 27.7096 14.4336 27.718C14.4597 27.7264 14.4827 27.7395 14.5033 27.7571C14.5233 27.7747 14.5393 27.7962 14.5508 27.8214C14.5623 27.846 14.5685 27.872 14.5685 27.8988C14.5692 27.9264 14.5639 27.9524 14.5531 27.977C14.5424 28.0022 14.5271 28.0237 14.5064 28.0429C14.4865 28.0612 14.4635 28.0743 14.4382 28.0835L12.6102 28.9239C12.5841 28.9347 12.5573 28.94 12.529 28.94C12.4906 28.9393 12.4554 28.9278 12.424 28.9063C12.3926 28.8841 12.3696 28.855 12.355 28.8197V28.8289ZM8.69664 30.5076C8.68591 30.4846 8.67978 30.4608 8.67902 30.4348C8.67825 30.4095 8.68208 30.385 8.69128 30.3612C8.6997 30.3375 8.7135 30.3168 8.73035 30.2984C8.74797 30.28 8.76866 30.2655 8.79164 30.2555L10.6197 29.4081C10.6434 29.3944 10.6687 29.3852 10.6955 29.3821C10.7224 29.379 10.7492 29.3813 10.7752 29.3898C10.8013 29.3982 10.8243 29.4112 10.8449 29.4288C10.8656 29.4465 10.881 29.4679 10.8924 29.4932C10.9039 29.5177 10.9101 29.5438 10.9101 29.5706C10.9108 29.5982 10.9055 29.6242 10.8947 29.6495C10.884 29.674 10.8687 29.6962 10.8488 29.7146C10.8289 29.733 10.8059 29.7468 10.7798 29.7552L8.94947 30.5934C8.92495 30.6056 8.89814 30.6118 8.87056 30.6118C8.78858 30.611 8.73035 30.5735 8.69664 30.4984V30.5076ZM27.0001 22.1166C26.9779 22.0684 26.9756 22.0193 26.994 21.9695C27.0116 21.9205 27.0445 21.8845 27.0928 21.8615L28.9232 21.0233C28.9691 21.0072 29.0151 21.0095 29.0603 21.0287C29.1063 21.0486 29.1392 21.08 29.1591 21.1252C29.1798 21.1697 29.1829 21.2156 29.1683 21.2624C29.1538 21.3099 29.1254 21.3459 29.0825 21.3704L27.2522 22.2093C27.2277 22.2208 27.2016 22.227 27.174 22.2277C27.1334 22.2285 27.0966 22.2178 27.0629 22.1955C27.03 22.1741 27.0055 22.1442 26.9909 22.1074L27.0001 22.1166ZM48.9957 27.8306C49.0179 27.7831 49.0539 27.7502 49.103 27.7326C49.152 27.7142 49.201 27.7165 49.2485 27.7387L51.1019 28.5769C51.1425 28.596 51.1723 28.6251 51.1923 28.665C51.2114 28.7056 51.2168 28.747 51.2076 28.7906C51.1984 28.8343 51.1762 28.8703 51.1417 28.8986C51.1072 28.927 51.0674 28.9416 51.0229 28.9423C50.9954 28.9423 50.9693 28.9362 50.944 28.9239L49.0907 28.0858C49.0654 28.0758 49.0432 28.062 49.024 28.0429C49.0049 28.0237 48.9903 28.0015 48.9804 27.977C48.9704 27.9517 48.9658 27.9256 48.9673 27.8988C48.9681 27.8712 48.975 27.846 48.9865 27.8214L48.9957 27.8306ZM37.9194 22.7855C37.9293 22.7625 37.9439 22.7426 37.9623 22.725C37.9807 22.7073 38.0021 22.6943 38.0259 22.6851C38.0496 22.6767 38.0741 22.6729 38.0994 22.6736C38.1247 22.6744 38.1485 22.6798 38.1714 22.6905L40.0248 23.531C40.0485 23.5417 40.0684 23.5562 40.0861 23.5746C40.1029 23.593 40.1159 23.6137 40.1251 23.6375C40.1343 23.6612 40.1382 23.6857 40.1374 23.711C40.1366 23.7363 40.1305 23.7608 40.1198 23.7838C40.0983 23.8313 40.0623 23.8642 40.0133 23.8826C39.9642 23.901 39.9152 23.8995 39.8677 23.8788L38.0144 23.0376C37.9906 23.0276 37.9707 23.013 37.9531 22.9946C37.9362 22.9763 37.9232 22.9556 37.914 22.9318C37.9048 22.9081 37.901 22.8836 37.9017 22.8583C37.9025 22.833 37.9086 22.8085 37.9194 22.7855ZM41.6076 24.4641C41.6299 24.4166 41.6651 24.3837 41.7141 24.3653C41.7632 24.3469 41.8122 24.3477 41.8597 24.3691L43.7138 25.2096C43.7613 25.2318 43.7943 25.2678 43.8119 25.3169C43.8303 25.3659 43.828 25.4149 43.8065 25.4624C43.7912 25.4961 43.7674 25.5237 43.736 25.5437C43.7046 25.5643 43.6701 25.5735 43.6326 25.5735C43.605 25.5735 43.579 25.5682 43.5537 25.5574L41.7004 24.717C41.6529 24.694 41.6207 24.6587 41.6023 24.6097C41.5847 24.5607 41.5862 24.5116 41.6076 24.4641ZM34.2311 21.1068C34.2411 21.0839 34.2548 21.0632 34.2732 21.0455C34.2916 21.0279 34.3131 21.0149 34.3368 21.0057C34.3606 20.9965 34.3851 20.9927 34.4104 20.9942C34.4364 20.995 34.4602 21.0011 34.4832 21.0118L36.3365 21.8523C36.3595 21.863 36.3802 21.8768 36.3978 21.8952C36.4146 21.9144 36.4277 21.9351 36.4369 21.9588C36.4461 21.9826 36.4499 22.0071 36.4491 22.0324C36.4484 22.0576 36.4422 22.0814 36.4315 22.1051C36.397 22.1787 36.3396 22.2155 36.2576 22.2162C36.2308 22.2162 36.2039 22.2109 36.1794 22.1994L34.3253 21.3589C34.3023 21.3489 34.2824 21.3344 34.2648 21.316C34.248 21.2976 34.2342 21.2762 34.2257 21.2524C34.2165 21.2294 34.2127 21.2049 34.2135 21.1796C34.2142 21.1543 34.2204 21.1298 34.2311 21.1068ZM45.2959 26.1428C45.3181 26.0953 45.3542 26.0623 45.404 26.044C45.4538 26.0256 45.502 26.0263 45.5511 26.0478L47.4044 26.8883C47.4511 26.9112 47.4841 26.9465 47.5025 26.9955C47.5208 27.0446 47.5201 27.0928 47.4994 27.1411C47.4833 27.1756 47.4595 27.2024 47.4274 27.2231C47.396 27.243 47.3607 27.2529 47.3232 27.2522C47.2956 27.2522 47.2695 27.2468 47.2443 27.2361L45.3909 26.3956C45.3434 26.3734 45.3105 26.3374 45.2913 26.2884C45.2729 26.2393 45.2745 26.1911 45.2959 26.1428ZM54.8667 30.5007C54.8323 30.5742 54.774 30.6118 54.6928 30.6118C54.6652 30.6125 54.6392 30.6064 54.6139 30.5934L52.7606 29.7552C52.7131 29.7338 52.6794 29.6978 52.661 29.6487C52.6426 29.5997 52.6441 29.5506 52.6656 29.5031C52.6878 29.4549 52.723 29.4219 52.7721 29.4028C52.8219 29.3844 52.8701 29.3859 52.9184 29.4081L54.7717 30.2463C54.82 30.2678 54.8537 30.3038 54.8721 30.3536C54.8905 30.4034 54.889 30.4524 54.8667 30.5007ZM63.5266 44.588C63.5266 48.0288 60.557 51.2896 55.1678 53.7666C49.9664 56.1562 42.8887 57.6663 35.2225 58.0134H35.1965C35.1206 58.0149 35.0478 58.0019 34.9773 57.975C34.9061 57.9475 34.8433 57.9076 34.7889 57.8548C34.7337 57.8027 34.6908 57.7414 34.6609 57.6724C34.6303 57.6027 34.6142 57.5299 34.6119 57.4541C34.6103 57.3782 34.6234 57.3054 34.6509 57.2342C34.6785 57.1637 34.7184 57.1009 34.7705 57.0465C34.8233 56.9913 34.8839 56.9484 34.9536 56.9178C35.0225 56.8879 35.0953 56.871 35.1712 56.8695C50.4276 56.1753 62.3804 50.7824 62.3804 44.5972C62.3804 42.6619 61.1937 40.7143 58.9488 38.9705C58.8829 38.9269 58.8285 38.8717 58.7849 38.8051C58.742 38.7392 58.7136 38.6664 58.7006 38.5882C58.6876 38.5101 58.6906 38.4327 58.7098 38.3561C58.7289 38.2787 58.7627 38.209 58.8109 38.1462C58.8592 38.0833 58.9182 38.0328 58.9879 37.9937C59.0569 37.9554 59.1312 37.9324 59.2101 37.9247C59.289 37.9171 59.3664 37.9255 59.4415 37.95C59.5173 37.9745 59.5847 38.0128 59.6437 38.0657C62.1858 40.0271 63.5266 42.2842 63.5266 44.588ZM30.2341 57.4901C30.2287 57.5904 30.1988 57.6831 30.1437 57.7682C30.0893 57.8525 30.0172 57.9184 29.9284 57.9651L26.247 59.8889C26.1803 59.9249 26.1091 59.9471 26.034 59.9548C25.9581 59.9625 25.8846 59.9556 25.8118 59.9341C25.739 59.9119 25.6739 59.8774 25.6149 59.8291C25.5559 59.7816 25.5092 59.7242 25.4732 59.6575C25.4379 59.5909 25.4165 59.5196 25.4088 59.4445C25.4011 59.3695 25.408 59.2959 25.4303 59.2231C25.4517 59.1511 25.4862 59.0852 25.5337 59.0262C25.5812 58.968 25.6387 58.9205 25.7045 58.8845L27.4376 57.9789C11.7138 57.0756 0 51.4053 0 44.588C0 42.134 1.51009 39.749 4.36939 37.688C4.43068 37.6397 4.49887 37.6045 4.57395 37.5846C4.6498 37.5639 4.72565 37.5585 4.80303 37.5692C4.88042 37.58 4.9532 37.6052 5.01986 37.6459C5.08728 37.6857 5.14321 37.7378 5.18918 37.8006C5.23515 37.8642 5.26656 37.9339 5.28341 38.0098C5.30103 38.0864 5.3018 38.163 5.28801 38.2396C5.27345 38.3162 5.24511 38.3875 5.20143 38.4526C5.15853 38.5177 5.10413 38.5714 5.03901 38.6143C2.49231 40.4531 1.15843 42.5178 1.15843 44.588C1.15843 50.7241 12.7419 56.0359 27.7295 56.8373L25.9666 55.6375C25.9037 55.5954 25.8516 55.5417 25.8095 55.4789C25.7681 55.4153 25.7398 55.3464 25.726 55.2713C25.7114 55.197 25.7122 55.1226 25.7275 55.0483C25.7428 54.974 25.772 54.9051 25.8149 54.8422C25.8578 54.7794 25.9106 54.7273 25.9742 54.6859C26.0378 54.6438 26.1068 54.6162 26.1811 54.6017C26.2562 54.5879 26.3305 54.5879 26.4048 54.604C26.4791 54.6193 26.5481 54.6484 26.6109 54.6905L29.9843 56.9829C30.067 57.0396 30.1314 57.1131 30.1758 57.2035C30.2203 57.2939 30.2402 57.3897 30.2341 57.4901Z" fill="url(#paint0_linear_14493_2358)"/>
<defs>
<linearGradient id="paint0_linear_14493_2358" x1="0" y1="29.9789" x2="63.5266" y2="29.9789" gradientUnits="userSpaceOnUse">
<stop stop-color="#0CBAF1"/>
<stop offset="1" stop-color="#E95CE9"/>
</linearGradient>
</defs>
</svg>
