<svg width="39" height="48" viewBox="0 0 39 48" fill="none" xmlns="http://www.w3.org/2000/svg">
<path fill-rule="evenodd" clip-rule="evenodd" d="M14.1348 39.6514C13.106 39.6514 12.2717 38.8184 12.2702 37.7899L12.2702 37.7869L12.2607 36.0904C12.2607 36.0899 12.2607 36.0894 12.2607 36.0888C12.2563 33.3204 11.238 30.6235 9.33088 28.5937L9.33087 28.5937C7.08616 26.2047 5.70246 23.0003 5.67189 19.4716C5.60802 12.0815 11.5906 5.95638 18.9801 5.85349C22.9186 5.79868 26.4755 7.4292 28.9779 10.0718C29.2449 10.3538 29.6899 10.3659 29.9719 10.0989C30.2539 9.83191 30.266 9.38688 29.999 9.10492C27.2377 6.18892 23.3083 4.38687 18.9605 4.44738C10.7965 4.56105 4.19514 11.3208 4.2657 19.4838C4.29944 23.3798 5.82874 26.9201 8.30602 29.5566C9.95764 31.3145 10.8509 33.6636 10.8544 36.0924L10.8544 36.0954L10.864 37.7919C10.864 37.7924 10.864 37.793 10.864 37.7935C10.8674 39.5974 12.3309 41.0577 14.1349 41.0576L24.2345 41.0568C26.0425 41.0567 27.5074 39.5897 27.5049 37.7817L27.5049 37.7788L27.4952 36.0169C27.4952 36.0163 27.4952 36.0158 27.4952 36.0152C27.4921 33.6292 28.369 31.32 29.9973 29.6011L29.5223 29.1511L29.9973 29.6011C32.5272 26.9303 34.0802 23.3221 34.0802 19.3523C34.0802 16.4707 33.2616 13.7781 31.8443 11.4966C31.6394 11.1667 31.2058 11.0654 30.876 11.2704C30.5461 11.4753 30.4448 11.9088 30.6498 12.2387C31.9328 14.3039 32.674 16.7406 32.674 19.3523C32.674 22.9481 31.2688 26.2139 28.9764 28.634C27.0874 30.6281 26.085 33.2903 26.089 36.0189L26.089 36.0217L26.0986 37.7836C26.0986 37.784 26.0986 37.7844 26.0986 37.7848C26.0995 38.8148 25.2647 39.6505 24.2344 39.6505L14.1348 39.6514Z" fill="url(#paint0_linear_14506_2429)"/>
<path fill-rule="evenodd" clip-rule="evenodd" d="M16.5944 48C14.8567 48.0002 13.4501 46.5876 13.4575 44.85ZM16.5944 48L21.7389 47.9994C21.7389 47.9994 21.7389 47.9994 21.7389 47.9994C23.4656 47.9993 24.8677 46.6035 24.8752 44.8768L24.8948 40.3571C24.8957 40.1701 24.8219 39.9904 24.69 39.8579C24.558 39.7254 24.3787 39.6509 24.1917 39.6509L14.1803 39.6519C13.7932 39.652 13.4789 39.9649 13.4772 40.352L13.4575 44.85M14.8638 44.856C14.8638 44.856 14.8638 44.856 14.8638 44.856L14.8804 41.0581L23.4855 41.0572L23.4689 44.8707C23.4648 45.8231 22.6914 46.5931 21.7388 46.5932L16.5942 46.5938C15.6357 46.5939 14.8597 45.8146 14.8638 44.856Z" fill="url(#paint1_linear_14506_2429)"/>
<path fill-rule="evenodd" clip-rule="evenodd" d="M15.3653 23.7727C15.3877 24.144 15.6953 24.4336 16.0672 24.4336H22.2706C22.621 24.4336 22.918 24.1756 22.9669 23.8286C23.0403 23.3077 23.1974 22.5984 23.5531 21.8192L23.5531 21.8192C23.9262 21.0017 24.3889 20.3898 24.767 19.9696L24.7672 19.9693C25.0669 19.636 25.1299 19.1483 24.9151 18.7481M16.2785 21.4819C16.5027 22.0451 16.6287 22.5726 16.6986 23.0273ZM16.6986 23.0273H21.6815C21.7931 22.5048 21.9745 21.8909 22.2738 21.2353C22.6689 20.3697 23.1477 19.6978 23.5651 19.2078C23.0138 18.1935 22.3792 17.1225 21.6488 16.0168L21.6488 16.0168C20.8184 14.7597 19.9785 13.631 19.1643 12.6261C18.3318 13.6382 17.4692 14.7884 16.6199 16.0827C15.9169 17.1543 15.3103 18.1917 14.7867 19.1723C15.2683 19.6736 15.8617 20.4344 16.2785 21.4818M14.6708 19.3911C14.6708 19.3911 14.6708 19.391 14.6708 19.391ZM23.7215 19.0292C23.7214 19.0293 23.7213 19.0293 23.7212 19.0294C23.7213 19.0293 23.7214 19.0293 23.7215 19.0292ZM23.676 19.413C23.676 19.4131 23.676 19.4131 23.676 19.4131ZM15.3653 23.7727C15.338 23.3195 15.2473 22.6936 14.972 22.0019ZM14.972 22.0019L14.972 22.0018ZM14.972 22.0018C14.5951 21.0549 14.0363 20.3972 13.626 19.9992ZM13.6258 19.999C13.281 19.6647 13.209 19.1492 13.4262 18.7365ZM24.915 18.748C24.3197 17.6385 23.6274 16.4606 22.8221 15.2417C21.9387 13.9043 21.0449 12.7078 20.1806 11.6468M13.4262 18.7363C13.9951 17.6549 14.662 16.5036 15.4441 15.3114ZM18.1556 11.639C17.27 12.7093 16.3498 13.931 15.4441 15.3113L15.4441 15.3114M20.1805 11.6468C19.6588 11.0062 18.6823 11.0028 18.1558 11.6388L18.1556 11.639" fill="url(#paint2_linear_14506_2429)"/>
<path fill-rule="evenodd" clip-rule="evenodd" d="M15.3677 26.5713C15.3677 26.9596 15.6825 27.2744 16.0708 27.2744H22.2742C22.6626 27.2744 22.9774 26.9596 22.9774 26.5713V23.7306C22.9774 23.3422 22.6626 23.0274 22.2742 23.0274H16.0708C15.6825 23.0274 15.3677 23.3422 15.3677 23.7306V26.5713ZM16.7739 25.8682V24.4337H21.5711V25.8682H16.7739Z" fill="url(#paint3_linear_14506_2429)"/>
<path fill-rule="evenodd" clip-rule="evenodd" d="M23.0379 41.0566C23.4262 41.0566 23.741 40.7418 23.741 40.3535V27.3251C23.741 26.5194 23.0871 25.869 22.284 25.869H16.0613C15.2582 25.869 14.6042 26.5194 14.6042 27.3251V37.3163C14.6042 37.7046 14.919 38.0194 15.3074 38.0194C15.6957 38.0194 16.0105 37.7046 16.0105 37.3163V27.3251C16.0105 27.2986 16.0323 27.2753 16.0613 27.2753H22.284C22.313 27.2753 22.3348 27.2986 22.3348 27.3251V40.3535C22.3348 40.7418 22.6496 41.0566 23.0379 41.0566Z" fill="url(#paint4_linear_14506_2429)"/>
<path fill-rule="evenodd" clip-rule="evenodd" d="M19.1726 20.248C19.5609 20.248 19.8757 19.9332 19.8757 19.5449V11.868C19.8757 11.4797 19.5609 11.1649 19.1726 11.1649C18.7843 11.1649 18.4695 11.4797 18.4695 11.868V19.5449C18.4695 19.9332 18.7843 20.248 19.1726 20.248Z" fill="url(#paint5_linear_14506_2429)"/>
<path fill-rule="evenodd" clip-rule="evenodd" d="M14.6047 29.8281C14.6047 30.2165 14.9195 30.5312 15.3079 30.5312H23.0375C23.4258 30.5312 23.7406 30.2165 23.7406 29.8281C23.7406 29.4398 23.4258 29.125 23.0375 29.125H15.3079C14.9195 29.125 14.6047 29.4398 14.6047 29.8281Z" fill="url(#paint6_linear_14506_2429)"/>
<path fill-rule="evenodd" clip-rule="evenodd" d="M19.1663 2.70703C19.5546 2.70703 19.8694 2.39223 19.8694 2.00391V0.703594C19.8694 0.315269 19.5546 0.00046885 19.1663 0.00046885C18.7779 0.00046885 18.4631 0.315269 18.4631 0.703594V2.00391C18.4631 2.39223 18.7779 2.70703 19.1663 2.70703Z" fill="url(#paint7_linear_14506_2429)"/>
<path fill-rule="evenodd" clip-rule="evenodd" d="M35.6792 19.7656C35.6792 20.154 35.994 20.4688 36.3823 20.4688H37.6421C38.0305 20.4688 38.3453 20.154 38.3453 19.7656C38.3453 19.3773 38.0305 19.0625 37.6421 19.0625H36.3823C35.994 19.0625 35.6792 19.3773 35.6792 19.7656Z" fill="url(#paint8_linear_14506_2429)"/>
<path fill-rule="evenodd" clip-rule="evenodd" d="M0 19.7656C0 20.154 0.3148 20.4688 0.703125 20.4688H1.96294C2.35126 20.4688 2.66606 20.154 2.66606 19.7656C2.66606 19.3773 2.35126 19.0625 1.96294 19.0625H0.703125C0.3148 19.0625 0 19.3773 0 19.7656Z" fill="url(#paint9_linear_14506_2429)"/>
<path fill-rule="evenodd" clip-rule="evenodd" d="M30.8523 7.71103C31.1312 7.98125 31.5763 7.97421 31.8465 7.69533L32.7374 6.77583C33.0077 6.49694 33.0006 6.0518 32.7217 5.78158C32.4428 5.51136 31.9977 5.51839 31.7275 5.79728L30.8366 6.71678C30.5664 6.99567 30.5734 7.44081 30.8523 7.71103Z" fill="url(#paint10_linear_14506_2429)"/>
<path fill-rule="evenodd" clip-rule="evenodd" d="M5.62352 33.7491C5.90241 34.0193 6.34755 34.0123 6.61777 33.7334L7.50867 32.8139C7.77889 32.535 7.77186 32.0899 7.49297 31.8197C7.21408 31.5494 6.76894 31.5565 6.49873 31.8354L5.60782 32.7549C5.3376 33.0338 5.34463 33.4789 5.62352 33.7491Z" fill="url(#paint11_linear_14506_2429)"/>
<path fill-rule="evenodd" clip-rule="evenodd" d="M32.7217 33.7491C33.0006 33.4789 33.0077 33.0338 32.7374 32.7549L31.8465 31.8354C31.5763 31.5565 31.1312 31.5494 30.8523 31.8197C30.5734 32.0899 30.5664 32.535 30.8366 32.8139L31.7275 33.7334C31.9977 34.0123 32.4428 34.0193 32.7217 33.7491Z" fill="url(#paint12_linear_14506_2429)"/>
<path fill-rule="evenodd" clip-rule="evenodd" d="M7.49297 7.71103C7.77186 7.44081 7.77889 6.99567 7.50867 6.71678L6.61777 5.79728C6.34755 5.51839 5.90241 5.51136 5.62352 5.78158C5.34463 6.0518 5.3376 6.49694 5.60782 6.77583L6.49873 7.69533C6.76894 7.97421 7.21408 7.98125 7.49297 7.71103Z" fill="url(#paint13_linear_14506_2429)"/>
<path fill-rule="evenodd" clip-rule="evenodd" d="M13.4575 43.5918C13.4575 43.9801 13.7723 44.2949 14.1606 44.2949H21.4611C21.8495 44.2949 22.1643 43.9801 22.1643 43.5918C22.1643 43.2035 21.8495 42.8887 21.4611 42.8887H14.1606C13.7723 42.8887 13.4575 43.2035 13.4575 43.5918Z" fill="url(#paint14_linear_14506_2429)"/>
<defs>
<linearGradient id="paint0_linear_14506_2429" x1="4.26514" y1="22.7518" x2="34.0802" y2="22.7518" gradientUnits="userSpaceOnUse">
<stop stop-color="#0CBAF1"/>
<stop offset="1" stop-color="#E95CE9"/>
</linearGradient>
<linearGradient id="paint1_linear_14506_2429" x1="13.4575" y1="43.8255" x2="24.8949" y2="43.8255" gradientUnits="userSpaceOnUse">
<stop stop-color="#0CBAF1"/>
<stop offset="1" stop-color="#E95CE9"/>
</linearGradient>
<linearGradient id="paint2_linear_14506_2429" x1="13.303" y1="17.7988" x2="25.0421" y2="17.7988" gradientUnits="userSpaceOnUse">
<stop stop-color="#0CBAF1"/>
<stop offset="1" stop-color="#E95CE9"/>
</linearGradient>
<linearGradient id="paint3_linear_14506_2429" x1="15.3677" y1="25.1509" x2="22.9774" y2="25.1509" gradientUnits="userSpaceOnUse">
<stop stop-color="#0CBAF1"/>
<stop offset="1" stop-color="#E95CE9"/>
</linearGradient>
<linearGradient id="paint4_linear_14506_2429" x1="14.6042" y1="33.4628" x2="23.741" y2="33.4628" gradientUnits="userSpaceOnUse">
<stop stop-color="#0CBAF1"/>
<stop offset="1" stop-color="#E95CE9"/>
</linearGradient>
<linearGradient id="paint5_linear_14506_2429" x1="18.4695" y1="15.7065" x2="19.8757" y2="15.7065" gradientUnits="userSpaceOnUse">
<stop stop-color="#0CBAF1"/>
<stop offset="1" stop-color="#E95CE9"/>
</linearGradient>
<linearGradient id="paint6_linear_14506_2429" x1="14.6047" y1="29.8281" x2="23.7406" y2="29.8281" gradientUnits="userSpaceOnUse">
<stop stop-color="#0CBAF1"/>
<stop offset="1" stop-color="#E95CE9"/>
</linearGradient>
<linearGradient id="paint7_linear_14506_2429" x1="18.4631" y1="1.35375" x2="19.8694" y2="1.35375" gradientUnits="userSpaceOnUse">
<stop stop-color="#0CBAF1"/>
<stop offset="1" stop-color="#E95CE9"/>
</linearGradient>
<linearGradient id="paint8_linear_14506_2429" x1="35.6792" y1="19.7656" x2="38.3453" y2="19.7656" gradientUnits="userSpaceOnUse">
<stop stop-color="#0CBAF1"/>
<stop offset="1" stop-color="#E95CE9"/>
</linearGradient>
<linearGradient id="paint9_linear_14506_2429" x1="0" y1="19.7656" x2="2.66606" y2="19.7656" gradientUnits="userSpaceOnUse">
<stop stop-color="#0CBAF1"/>
<stop offset="1" stop-color="#E95CE9"/>
</linearGradient>
<linearGradient id="paint10_linear_14506_2429" x1="30.6384" y1="6.7463" x2="32.9356" y2="6.7463" gradientUnits="userSpaceOnUse">
<stop stop-color="#0CBAF1"/>
<stop offset="1" stop-color="#E95CE9"/>
</linearGradient>
<linearGradient id="paint11_linear_14506_2429" x1="5.40967" y1="32.7844" x2="7.70683" y2="32.7844" gradientUnits="userSpaceOnUse">
<stop stop-color="#0CBAF1"/>
<stop offset="1" stop-color="#E95CE9"/>
</linearGradient>
<linearGradient id="paint12_linear_14506_2429" x1="30.6384" y1="32.7844" x2="32.9356" y2="32.7844" gradientUnits="userSpaceOnUse">
<stop stop-color="#0CBAF1"/>
<stop offset="1" stop-color="#E95CE9"/>
</linearGradient>
<linearGradient id="paint13_linear_14506_2429" x1="5.40967" y1="6.7463" x2="7.70683" y2="6.7463" gradientUnits="userSpaceOnUse">
<stop stop-color="#0CBAF1"/>
<stop offset="1" stop-color="#E95CE9"/>
</linearGradient>
<linearGradient id="paint14_linear_14506_2429" x1="13.4575" y1="43.5918" x2="22.1643" y2="43.5918" gradientUnits="userSpaceOnUse">
<stop stop-color="#0CBAF1"/>
<stop offset="1" stop-color="#E95CE9"/>
</linearGradient>
</defs>
</svg>
