<svg width="49" height="48" viewBox="0 0 49 48" fill="none" xmlns="http://www.w3.org/2000/svg">
<path fill-rule="evenodd" clip-rule="evenodd" d="M40.1422 40.1621C40.1422 40.5504 40.457 40.8652 40.8453 40.8652H43.5521C46.2015 40.8652 48.3452 38.7111 48.3452 36.0587V16.4756C48.3452 13.8232 46.2015 11.669 43.5521 11.669H32.7742C32.3858 11.669 32.071 11.9838 32.071 12.3722C32.071 12.7605 32.3858 13.0753 32.7742 13.0753H43.5521C45.4204 13.0753 46.939 14.5954 46.939 16.4756V36.0587C46.939 37.9388 45.4204 39.459 43.5521 39.459H40.8453C40.457 39.459 40.1422 39.7738 40.1422 40.1621Z" fill="url(#paint0_linear_14507_2459)"/>
<path fill-rule="evenodd" clip-rule="evenodd" d="M6.90777 47.9381C7.16015 48.0516 7.45565 48.0065 7.6627 47.8229L15.509 40.8649H36.6906C37.0789 40.8649 37.3937 40.5501 37.3937 40.1617C37.3937 39.7734 37.0789 39.4586 36.6906 39.4586H15.2422C15.0703 39.4586 14.9043 39.5216 14.7757 39.6357L7.89931 45.7336V40.1617C7.89931 39.7734 7.58451 39.4586 7.19618 39.4586H5.13828C3.27005 39.4586 1.75146 37.9385 1.75146 36.0583V16.4753C1.75146 14.5952 3.27007 13.0749 5.13828 13.0749H15.7117C16.1 13.0749 16.4148 12.7601 16.4148 12.3718C16.4148 11.9835 16.1 11.6687 15.7117 11.6687H5.13828C2.48905 11.6687 0.345215 13.8229 0.345215 16.4753V36.0583C0.345215 38.7108 2.48907 40.8649 5.13828 40.8649H6.49306V47.2969C6.49306 47.5736 6.65538 47.8246 6.90777 47.9381Z" fill="url(#paint1_linear_14507_2459)"/>
<path fill-rule="evenodd" clip-rule="evenodd" d="M7.87622 22.0127C7.87622 22.401 8.19102 22.7158 8.57935 22.7158H40.111C40.4994 22.7158 40.8142 22.401 40.8142 22.0127C40.8142 21.6244 40.4994 21.3096 40.111 21.3096H8.57935C8.19102 21.3096 7.87622 21.6244 7.87622 22.0127Z" fill="url(#paint2_linear_14507_2459)"/>
<path fill-rule="evenodd" clip-rule="evenodd" d="M7.87622 26.7656C7.87622 27.154 8.19102 27.4688 8.57935 27.4688H40.111C40.4994 27.4688 40.8142 27.154 40.8142 26.7656C40.8142 26.3773 40.4994 26.0625 40.111 26.0625H8.57935C8.19102 26.0625 7.87622 26.3773 7.87622 26.7656Z" fill="url(#paint3_linear_14507_2459)"/>
<path fill-rule="evenodd" clip-rule="evenodd" d="M7.87622 31.5176C7.87622 31.9059 8.19102 32.2207 8.57935 32.2207H27.5008C27.8891 32.2207 28.2039 31.9059 28.2039 31.5176C28.2039 31.1293 27.8891 30.8145 27.5008 30.8145H8.57935C8.19102 30.8145 7.87622 31.1293 7.87622 31.5176Z" fill="url(#paint4_linear_14507_2459)"/>
<path fill-rule="evenodd" clip-rule="evenodd" d="M14.7649 9.58082C14.7649 14.8719 19.0542 19.1611 24.3453 19.1611C29.6365 19.1611 33.9257 14.8719 33.9257 9.58082C33.9257 4.28975 29.6365 0.000416402 24.3453 0.000416402C22.6468 0.000416402 21.0496 0.443054 19.6648 1.2198C19.3261 1.40978 19.2056 1.83834 19.3956 2.17703C19.5855 2.51571 20.0141 2.63626 20.3528 2.44628C21.5328 1.78434 22.8939 1.40667 24.3453 1.40667C28.8598 1.40667 32.5195 5.06639 32.5195 9.58082C32.5195 14.0952 28.8598 17.7549 24.3453 17.7549C19.8309 17.7549 16.1711 14.0952 16.1711 9.58082C16.1711 7.74226 16.7774 6.0473 17.801 4.68215C18.034 4.37146 17.971 3.93075 17.6603 3.69778C17.3496 3.46482 16.9089 3.52782 16.6759 3.8385C15.4761 5.43865 14.7649 7.4277 14.7649 9.58082Z" fill="url(#paint5_linear_14507_2459)"/>
<path fill-rule="evenodd" clip-rule="evenodd" d="M18.7813 15.5657C19.9645 13.7446 22.0145 12.5419 24.3451 12.5419C26.6234 12.5419 28.6474 13.7375 29.8863 15.5871C28.4288 16.9329 26.4839 17.7549 24.3453 17.7549C22.1955 17.7549 20.2413 16.9242 18.7813 15.5657ZM17.3859 16.1613C19.1311 18.0063 21.603 19.1611 24.3453 19.1611C27.0791 19.1611 29.544 18.0134 31.2882 16.1787C31.5019 15.954 31.5431 15.6159 31.3897 15.3464C29.9665 12.8461 27.3605 11.1357 24.3451 11.1357C21.2919 11.1357 18.639 12.8389 17.2789 15.3425C17.1337 15.6098 17.1769 15.9403 17.3859 16.1613Z" fill="url(#paint6_linear_14507_2459)"/>
<path fill-rule="evenodd" clip-rule="evenodd" d="M20.2161 8.4364C20.2161 10.7168 22.0646 12.5654 24.3451 12.5654C26.6255 12.5654 28.4741 10.7168 28.4741 8.4364C28.4741 6.1559 26.6255 4.30737 24.3451 4.30737C22.0646 4.30737 20.2161 6.15592 20.2161 8.4364ZM24.3451 11.1592C22.8413 11.1592 21.6223 9.94015 21.6223 8.4364C21.6223 6.93257 22.8413 5.71362 24.3451 5.71362C25.8488 5.71362 27.0679 6.93258 27.0679 8.4364C27.0679 9.94014 25.8488 11.1592 24.3451 11.1592Z" fill="url(#paint7_linear_14507_2459)"/>
<defs>
<linearGradient id="paint0_linear_14507_2459" x1="32.071" y1="26.2671" x2="48.3452" y2="26.2671" gradientUnits="userSpaceOnUse">
<stop stop-color="#0CBAF1"/>
<stop offset="1" stop-color="#E95CE9"/>
</linearGradient>
<linearGradient id="paint1_linear_14507_2459" x1="0.345215" y1="29.8343" x2="37.3937" y2="29.8343" gradientUnits="userSpaceOnUse">
<stop stop-color="#0CBAF1"/>
<stop offset="1" stop-color="#E95CE9"/>
</linearGradient>
<linearGradient id="paint2_linear_14507_2459" x1="7.87622" y1="22.0127" x2="40.8142" y2="22.0127" gradientUnits="userSpaceOnUse">
<stop stop-color="#0CBAF1"/>
<stop offset="1" stop-color="#E95CE9"/>
</linearGradient>
<linearGradient id="paint3_linear_14507_2459" x1="7.87622" y1="26.7656" x2="40.8142" y2="26.7656" gradientUnits="userSpaceOnUse">
<stop stop-color="#0CBAF1"/>
<stop offset="1" stop-color="#E95CE9"/>
</linearGradient>
<linearGradient id="paint4_linear_14507_2459" x1="7.87622" y1="31.5176" x2="28.2039" y2="31.5176" gradientUnits="userSpaceOnUse">
<stop stop-color="#0CBAF1"/>
<stop offset="1" stop-color="#E95CE9"/>
</linearGradient>
<linearGradient id="paint5_linear_14507_2459" x1="14.7649" y1="9.58077" x2="33.9257" y2="9.58077" gradientUnits="userSpaceOnUse">
<stop stop-color="#0CBAF1"/>
<stop offset="1" stop-color="#E95CE9"/>
</linearGradient>
<linearGradient id="paint6_linear_14507_2459" x1="17.1936" y1="15.1484" x2="31.4818" y2="15.1484" gradientUnits="userSpaceOnUse">
<stop stop-color="#0CBAF1"/>
<stop offset="1" stop-color="#E95CE9"/>
</linearGradient>
<linearGradient id="paint7_linear_14507_2459" x1="20.2161" y1="8.4364" x2="28.4741" y2="8.4364" gradientUnits="userSpaceOnUse">
<stop stop-color="#0CBAF1"/>
<stop offset="1" stop-color="#E95CE9"/>
</linearGradient>
</defs>
</svg>
