<svg width="49" height="30" viewBox="0 0 49 30" fill="none" xmlns="http://www.w3.org/2000/svg">
<path fill-rule="evenodd" clip-rule="evenodd" d="M26.4113 18.9598C25.0341 18.9626 23.6569 18.9626 22.2798 18.9598C21.8914 18.959 21.576 19.2732 21.5752 19.6615C21.5744 20.0498 21.8886 20.3653 22.2769 20.3661C23.656 20.3689 25.035 20.3689 26.4141 20.3661C26.8025 20.3653 27.1166 20.0498 27.1158 19.6615C27.115 19.2732 26.7996 18.959 26.4113 18.9598Z" fill="url(#paint0_linear_14507_2476)"/>
<path fill-rule="evenodd" clip-rule="evenodd" d="M34.3289 28.2498C34.5322 27.9189 34.4287 27.4859 34.0978 27.2826C32.2185 26.128 30.8026 24.2354 30.3205 21.9061C30.2418 21.5258 29.8697 21.2814 29.4895 21.3601C29.1092 21.4388 28.8647 21.8109 28.9434 22.1911C29.5076 24.9168 31.1667 27.1323 33.3617 28.4808C33.6926 28.6841 34.1256 28.5807 34.3289 28.2498Z" fill="url(#paint1_linear_14507_2476)"/>
<path fill-rule="evenodd" clip-rule="evenodd" d="M7.96091 29.647C13.298 30.9356 18.6394 27.549 19.7484 22.1907C19.8271 21.8105 19.5827 21.4384 19.2024 21.3597C18.8221 21.281 18.45 21.5255 18.3713 21.9057C17.4236 26.4846 12.8563 29.3829 8.28998 28.2798L8.28773 28.2792C8.23012 28.2655 8.17322 28.2517 8.1149 28.2376L8.11454 28.2375C3.82723 27.2027 1.08919 22.997 1.89096 18.6633C2.56917 14.9978 3.49021 11.2911 4.58473 7.54841C5.58662 4.12492 8.67651 1.73689 12.2439 1.61501L12.2441 1.615C20.312 1.33712 28.379 1.33712 36.4469 1.615L36.4471 1.61501C40.0145 1.73689 43.1044 4.12492 44.1063 7.54841C45.2008 11.2911 46.1218 14.9978 46.8 18.6633C47.6018 22.997 44.8638 27.2027 40.5764 28.2375L40.5761 28.2376C40.5479 28.2445 40.5194 28.2513 40.4902 28.2583L40.4897 28.2584L40.4885 28.2587C40.4598 28.2656 40.4303 28.2727 40.401 28.2798M7.96091 29.647C7.90112 29.6327 7.84246 29.6185 7.78519 29.6047L7.78458 29.6045C7.78446 29.6045 7.78434 29.6045 7.78422 29.6045C2.77362 28.3948 -0.430038 23.4787 0.508172 18.4075L0.508175 18.4075C1.19683 14.6855 2.13017 10.9316 3.23502 7.15369L3.23505 7.15357C4.40819 3.14468 8.02505 0.35216 12.1957 0.209589C20.2959 -0.0694063 28.3951 -0.0694063 36.4953 0.209589C40.666 0.352162 44.2828 3.14468 45.4559 7.15357L45.456 7.15369C46.5608 10.9316 47.4942 14.6855 48.1828 18.4075C49.121 23.4787 45.9174 28.3948 40.9068 29.6045C40.877 29.6117 40.8471 29.6188 40.8179 29.6258C40.7885 29.6329 40.7598 29.6398 40.7315 29.6466L40.7313 29.6467C39.164 30.0254 37.5956 30.0004 36.1333 29.6403C35.7563 29.5475 35.5259 29.1666 35.6187 28.7895C35.7115 28.4125 36.0925 28.182 36.4695 28.2749C37.7184 28.5823 39.0581 28.6042 40.4008 28.2798" fill="url(#paint2_linear_14507_2476)"/>
<path fill-rule="evenodd" clip-rule="evenodd" d="M19.1595 21.3467C17.7636 21.3467 16.6321 20.2152 16.6321 18.8194C16.6321 17.4236 17.7636 16.2921 19.1595 16.2921C20.5552 16.2921 21.6868 17.4235 21.6868 18.8194C21.6868 20.2152 20.5552 21.3467 19.1595 21.3467ZM15.2258 18.8194C15.2258 20.9919 16.987 22.7529 19.1595 22.7529C21.3319 22.7529 23.093 20.9919 23.093 18.8194C23.093 16.6469 21.3319 14.8858 19.1595 14.8858C16.987 14.8858 15.2258 16.6469 15.2258 18.8194Z" fill="url(#paint3_linear_14507_2476)"/>
<path fill-rule="evenodd" clip-rule="evenodd" d="M29.5316 21.3467C28.1357 21.3467 27.0042 20.2152 27.0042 18.8194C27.0042 17.4236 28.1357 16.2921 29.5316 16.2921C30.9273 16.2921 32.0589 17.4235 32.0589 18.8194C32.0589 20.2152 30.9273 21.3467 29.5316 21.3467ZM25.5979 18.8194C25.5979 20.9919 27.3591 22.7529 29.5316 22.7529C31.7039 22.7529 33.4651 20.9919 33.4651 18.8194C33.4651 16.6469 31.7039 14.8858 29.5316 14.8858C27.3591 14.8858 25.5979 16.6469 25.5979 18.8194Z" fill="url(#paint4_linear_14507_2476)"/>
<path fill-rule="evenodd" clip-rule="evenodd" d="M10.6075 17.7275L10.6492 17.7275C12.1772 17.7268 13.4187 16.5071 13.46 14.9848L13.46 14.9847C13.4612 14.9401 13.4624 14.8954 13.4635 14.8507C13.5082 14.8496 13.5529 14.8484 13.5975 14.8472L13.5976 14.8472C15.12 14.8059 16.3397 13.5645 16.3404 12.0364V11.9946C16.3397 10.4665 15.12 9.22508 13.5976 9.1838L13.5975 9.1838C13.5529 9.18259 13.5082 9.18141 13.4635 9.18026C13.4624 9.13556 13.4612 9.09087 13.46 9.04617L13.46 9.04607C13.4187 7.52379 12.1772 6.3041 10.6492 6.30335H10.6075C9.0795 6.3041 7.8379 7.52375 7.79661 9.04607L7.79661 9.04617C7.7954 9.09086 7.79422 9.13556 7.79307 9.18026C7.74843 9.18141 7.7038 9.18259 7.65917 9.1838L7.65907 9.1838C6.13672 9.22508 4.91701 10.4665 4.91626 11.9946V12.0364C4.91701 13.5645 6.13672 14.8059 7.65907 14.8472L7.65917 14.8472C7.7038 14.8484 7.74843 14.8496 7.79307 14.8507C7.79423 14.8954 7.7954 14.9401 7.79661 14.9847L7.79661 14.9848C7.8379 16.5071 9.0795 17.7268 10.6075 17.7275ZM10.6485 16.3213H10.6082C10.6081 16.3213 10.6081 16.3213 10.608 16.3213C10.608 16.3213 10.6079 16.3213 10.6078 16.3213C9.84661 16.3207 9.22317 15.7128 9.20235 14.9468M10.6489 16.3213C10.6488 16.3213 10.6487 16.3213 10.6487 16.3213C10.6486 16.3213 10.6486 16.3213 10.6485 16.3213M10.6489 16.3213C11.4101 16.3207 12.0334 15.7128 12.0543 14.9468ZM9.20235 14.9467C9.19517 14.6808 9.18893 14.415 9.18372 14.1494C9.17631 13.7719 8.87219 13.4677 8.49477 13.4602C8.22888 13.4549 7.96299 13.4486 7.69719 13.4415M12.0543 14.9467C12.0614 14.6808 12.0677 14.4149 12.073 14.1491ZM13.5595 13.4415C13.2936 13.4486 13.0277 13.4549 12.7619 13.4602C12.3846 13.4677 12.0805 13.7718 12.073 14.1491M13.5596 13.4415C14.3257 13.4206 14.9336 12.7972 14.9341 12.0361C14.9341 12.036 14.9341 12.0359 14.9341 12.0358V11.9952M6.32251 12.0359C6.32251 12.0358 6.32251 12.0358 6.32251 12.0357V11.9953C6.32251 11.9952 6.32251 11.9952 6.32251 11.9951C6.32251 11.9951 6.32251 11.995 6.32251 11.9949C6.32307 11.2338 6.93099 10.6104 7.6971 10.5895C7.96293 10.5824 8.22876 10.5761 8.49452 10.5709C8.87205 10.5635 9.17631 10.2592 9.18372 9.8817C9.18893 9.61589 9.19517 9.35009 9.20235 9.0842M6.32251 12.0359C6.32251 12.0359 6.32251 12.036 6.32251 12.0361ZM6.32251 12.0361C6.32307 12.7972 6.93099 13.4206 7.6971 13.4415ZM14.9341 11.9949C14.9336 11.2338 14.3257 10.6104 13.5596 10.5895ZM13.5595 10.5895C13.2936 10.5824 13.0278 10.5761 12.7622 10.5709C12.3848 10.5635 12.0805 10.2594 12.073 9.88195C12.0677 9.61597 12.0614 9.35008 12.0543 9.0842M9.20235 9.0841C9.22318 8.31802 9.8468 7.70998 10.6082 7.7096H10.6485C11.4099 7.70998 12.0334 8.31798 12.0543 9.0841" fill="url(#paint5_linear_14507_2476)"/>
<path fill-rule="evenodd" clip-rule="evenodd" d="M40.8027 10.8193C40.2923 11.3298 39.4646 11.3298 38.9541 10.8193C38.4437 10.3088 38.4437 9.48117 38.9541 8.97069C39.4646 8.46022 40.2923 8.46022 40.8027 8.97069C41.3132 9.48117 41.3132 10.3088 40.8027 10.8193ZM37.9598 11.8137C39.0194 12.8733 40.7375 12.8733 41.7971 11.8137C42.8568 10.754 42.8568 9.03597 41.7971 7.97632C40.7375 6.91667 39.0194 6.91667 37.9598 7.97632C36.9001 9.03597 36.9001 10.754 37.9598 11.8137Z" fill="url(#paint6_linear_14507_2476)"/>
<path fill-rule="evenodd" clip-rule="evenodd" d="M36.5618 15.0605C36.0513 15.571 35.2237 15.571 34.7132 15.0605C34.2027 14.55 34.2027 13.7224 34.7132 13.2119C35.2237 12.7014 36.0513 12.7014 36.5618 13.2119C37.0723 13.7224 37.0723 14.55 36.5618 15.0605ZM33.7188 16.0549C34.7785 17.1145 36.4965 17.1145 37.5561 16.0549C38.6158 14.9952 38.6158 13.2772 37.5561 12.2175C36.4965 11.1579 34.7785 11.1579 33.7188 12.2175C32.6592 13.2772 32.6592 14.9952 33.7188 16.0549Z" fill="url(#paint7_linear_14507_2476)"/>
<path fill-rule="evenodd" clip-rule="evenodd" d="M20.375 10.7186C20.375 11.8233 21.2705 12.7188 22.3752 12.7188H26.5357C27.6404 12.7188 28.5358 11.8233 28.5358 10.7186C28.5358 9.61386 27.6404 8.71834 26.5357 8.71834H22.3752C21.2705 8.71834 20.375 9.61386 20.375 10.7186ZM22.3752 11.3125C22.0471 11.3125 21.7812 11.0466 21.7812 10.7186C21.7812 10.3904 22.0472 10.1246 22.3752 10.1246H26.5357C26.8637 10.1246 27.1296 10.3904 27.1296 10.7186C27.1296 11.0466 26.8637 11.3125 26.5357 11.3125H22.3752Z" fill="url(#paint8_linear_14507_2476)"/>
<path fill-rule="evenodd" clip-rule="evenodd" d="M16.7911 5.39487C16.9737 5.05213 16.8438 4.62629 16.5011 4.44373C15.7866 4.06317 15.2809 3.33904 15.2031 2.48194C15.155 1.93267 15.1279 1.38519 15.1252 0.840197C15.1233 0.451877 14.8069 0.138644 14.4186 0.140573C14.0303 0.142502 13.7171 0.458861 13.719 0.847182C13.7219 1.43435 13.7511 2.02091 13.8023 2.60568L13.8025 2.6076C13.9237 3.94947 14.7172 5.08684 15.84 5.68489C16.1827 5.86745 16.6086 5.7376 16.7911 5.39487Z" fill="url(#paint9_linear_14507_2476)"/>
<path fill-rule="evenodd" clip-rule="evenodd" d="M31.1347 4.72753C27.0757 4.88626 23.016 4.90307 18.9563 4.77609C18.5682 4.76395 18.2437 5.06875 18.2316 5.45688C18.2194 5.84502 18.5242 6.16951 18.9124 6.18165C23.0051 6.30966 27.0978 6.29272 31.1894 6.13271M33.488 2.48228C33.3766 3.71984 32.3714 4.67949 31.1348 4.72752L31.1347 4.72753M33.488 2.48228C33.5361 1.93296 33.5632 1.38542 33.5659 0.840375C33.5678 0.452055 33.8842 0.138823 34.2725 0.140751C34.6608 0.14268 34.9741 0.459039 34.9721 0.84736C34.9692 1.43453 34.9401 2.02109 34.8888 2.60585L34.8887 2.60737C34.7148 4.5438 33.1384 6.05691 31.1896 6.1327" fill="url(#paint10_linear_14507_2476)"/>
<defs>
<linearGradient id="paint0_linear_14507_2476" x1="21.5752" y1="19.664" x2="27.1158" y2="19.664" gradientUnits="userSpaceOnUse">
<stop stop-color="#0CBAF1"/>
<stop offset="1" stop-color="#E95CE9"/>
</linearGradient>
<linearGradient id="paint1_linear_14507_2476" x1="28.9287" y1="24.9652" x2="34.433" y2="24.9652" gradientUnits="userSpaceOnUse">
<stop stop-color="#0CBAF1"/>
<stop offset="1" stop-color="#E95CE9"/>
</linearGradient>
<linearGradient id="paint2_linear_14507_2476" x1="0.345215" y1="14.9606" x2="48.3458" y2="14.9606" gradientUnits="userSpaceOnUse">
<stop stop-color="#0CBAF1"/>
<stop offset="1" stop-color="#E95CE9"/>
</linearGradient>
<linearGradient id="paint3_linear_14507_2476" x1="15.2258" y1="18.8194" x2="23.093" y2="18.8194" gradientUnits="userSpaceOnUse">
<stop stop-color="#0CBAF1"/>
<stop offset="1" stop-color="#E95CE9"/>
</linearGradient>
<linearGradient id="paint4_linear_14507_2476" x1="25.5979" y1="18.8194" x2="33.4651" y2="18.8194" gradientUnits="userSpaceOnUse">
<stop stop-color="#0CBAF1"/>
<stop offset="1" stop-color="#E95CE9"/>
</linearGradient>
<linearGradient id="paint5_linear_14507_2476" x1="4.91626" y1="12.0154" x2="16.3404" y2="12.0154" gradientUnits="userSpaceOnUse">
<stop stop-color="#0CBAF1"/>
<stop offset="1" stop-color="#E95CE9"/>
</linearGradient>
<linearGradient id="paint6_linear_14507_2476" x1="37.165" y1="9.89499" x2="42.5919" y2="9.89499" gradientUnits="userSpaceOnUse">
<stop stop-color="#0CBAF1"/>
<stop offset="1" stop-color="#E95CE9"/>
</linearGradient>
<linearGradient id="paint7_linear_14507_2476" x1="32.9241" y1="14.1362" x2="38.3509" y2="14.1362" gradientUnits="userSpaceOnUse">
<stop stop-color="#0CBAF1"/>
<stop offset="1" stop-color="#E95CE9"/>
</linearGradient>
<linearGradient id="paint8_linear_14507_2476" x1="20.375" y1="10.7185" x2="28.5358" y2="10.7185" gradientUnits="userSpaceOnUse">
<stop stop-color="#0CBAF1"/>
<stop offset="1" stop-color="#E95CE9"/>
</linearGradient>
<linearGradient id="paint9_linear_14507_2476" x1="13.719" y1="2.95407" x2="16.8738" y2="2.95407" gradientUnits="userSpaceOnUse">
<stop stop-color="#0CBAF1"/>
<stop offset="1" stop-color="#E95CE9"/>
</linearGradient>
<linearGradient id="paint10_linear_14507_2476" x1="18.2312" y1="3.20367" x2="34.9721" y2="3.20367" gradientUnits="userSpaceOnUse">
<stop stop-color="#0CBAF1"/>
<stop offset="1" stop-color="#E95CE9"/>
</linearGradient>
</defs>
</svg>
