<svg width="44" height="48" viewBox="0 0 44 48" fill="none" xmlns="http://www.w3.org/2000/svg">
<path fill-rule="evenodd" clip-rule="evenodd" d="M4.9375 6.64455C4.9375 8.43325 6.39748 9.89355 8.18631 9.89355C8.57464 9.89355 8.88944 9.57875 8.88944 9.19043C8.88944 8.8021 8.57464 8.4873 8.18631 8.4873C7.17427 8.4873 6.34375 7.65673 6.34375 6.64455V3.24827C6.34375 2.23609 7.17427 1.40552 8.18631 1.40552C9.2016 1.40552 10.0317 2.23662 10.0317 3.24827V4.94637C10.0317 5.33469 10.3465 5.64949 10.7348 5.64949C11.1231 5.64949 11.4379 5.33469 11.4379 4.94637V3.24827C11.4379 1.45906 9.97734 -0.000725985 8.18631 -0.000725985C6.39748 -0.000725985 4.9375 1.45958 4.9375 3.24827V6.64455Z" fill="url(#paint0_linear_14507_2499)"/>
<path fill-rule="evenodd" clip-rule="evenodd" d="M14.0923 6.64455C14.0923 8.43328 15.5524 9.89355 17.3412 9.89355C17.7295 9.89355 18.0443 9.57875 18.0443 9.19043C18.0443 8.8021 17.7295 8.4873 17.3412 8.4873C16.3291 8.4873 15.4985 7.6567 15.4985 6.64455V3.24827C15.4985 2.23613 16.3291 1.40552 17.3412 1.40552C18.3565 1.40552 19.1866 2.23662 19.1866 3.24827V4.94637C19.1866 5.33469 19.5014 5.64949 19.8897 5.64949C20.278 5.64949 20.5928 5.33469 20.5928 4.94637V3.24827C20.5928 1.45906 19.1322 -0.000725985 17.3412 -0.000725985C15.5524 -0.000725985 14.0923 1.45954 14.0923 3.24827V6.64455Z" fill="url(#paint1_linear_14507_2499)"/>
<path fill-rule="evenodd" clip-rule="evenodd" d="M23.2471 6.64455C23.2471 8.43328 24.7072 9.89355 26.496 9.89355C26.8843 9.89355 27.1991 9.57875 27.1991 9.19043C27.1991 8.8021 26.8843 8.4873 26.496 8.4873C25.4839 8.4873 24.6533 7.6567 24.6533 6.64455V3.24827C24.6533 2.23613 25.4839 1.40552 26.496 1.40552C27.5113 1.40552 28.3414 2.23662 28.3414 3.24827V4.94637C28.3414 5.33469 28.6562 5.64949 29.0445 5.64949C29.4328 5.64949 29.7476 5.33469 29.7476 4.94637V3.24827C29.7476 1.45906 28.287 -0.000725985 26.496 -0.000725985C24.7072 -0.000725985 23.2471 1.45954 23.2471 3.24827V6.64455Z" fill="url(#paint2_linear_14507_2499)"/>
<path fill-rule="evenodd" clip-rule="evenodd" d="M32.4019 6.64455C32.4019 8.43377 33.8625 9.89355 35.6535 9.89355C36.0418 9.89355 36.3566 9.57875 36.3566 9.19043C36.3566 8.8021 36.0418 8.4873 35.6535 8.4873C34.6382 8.4873 33.8081 7.65621 33.8081 6.64455V3.24827C33.8081 2.23662 34.6382 1.40552 35.6535 1.40552C36.6656 1.40552 37.4961 2.23613 37.4961 3.24827V4.94637C37.4961 5.33469 37.8109 5.64949 38.1993 5.64949C38.5876 5.64949 38.9024 5.33469 38.9024 4.94637V3.24827C38.9024 1.45954 37.4423 -0.000725985 35.6535 -0.000725985C33.8625 -0.000725985 32.4019 1.45906 32.4019 3.24827V6.64455Z" fill="url(#paint3_linear_14507_2499)"/>
<path fill-rule="evenodd" clip-rule="evenodd" d="M29.5769 38.0951C29.8199 37.7922 29.7712 37.3497 29.4683 37.1067L12.6416 23.612C12.3386 23.369 11.8961 23.4177 11.6532 23.7206C11.4102 24.0235 11.4588 24.4661 11.7618 24.709L28.5885 38.2038C28.8914 38.4467 29.334 38.3981 29.5769 38.0951Z" fill="url(#paint4_linear_14507_2499)"/>
<path fill-rule="evenodd" clip-rule="evenodd" d="M24.196 25.7322C24.499 25.9751 24.9415 25.9263 25.1844 25.6233L27.8046 22.3547C28.0475 22.0517 27.9988 21.6091 27.6958 21.3663C27.3928 21.1234 26.9503 21.1721 26.7074 21.4751L24.0872 24.7438C23.8443 25.0468 23.893 25.4893 24.196 25.7322Z" fill="url(#paint5_linear_14507_2499)"/>
<path fill-rule="evenodd" clip-rule="evenodd" d="M19.1428 26.7013C19.4353 26.9569 19.8794 26.9269 20.135 26.6345C21.0641 25.5711 22.1823 24.2052 23.0376 22.5669C23.2173 22.2227 23.084 21.7979 22.7397 21.6182C22.3955 21.4385 21.9707 21.5718 21.791 21.9161C21.0147 23.403 19.9859 24.6679 19.076 25.7092C18.8205 26.0016 18.8504 26.4458 19.1428 26.7013Z" fill="url(#paint6_linear_14507_2499)"/>
<path fill-rule="evenodd" clip-rule="evenodd" d="M24.347 30.8741C24.6599 31.1041 25.1 31.0369 25.33 30.7241C26.148 29.6113 27.1606 28.3296 28.4419 27.253C28.7392 27.0032 28.7777 26.5597 28.5279 26.2624C28.2781 25.9651 27.8346 25.9266 27.5373 26.1764C26.1241 27.3638 25.0317 28.7557 24.197 29.8911C23.967 30.204 24.0341 30.6441 24.347 30.8741Z" fill="url(#paint7_linear_14507_2499)"/>
<path fill-rule="evenodd" clip-rule="evenodd" d="M27.601 33.4853C27.9176 33.7102 28.3565 33.6358 28.5814 33.3192C29.6854 31.7645 31.2838 29.8881 34.1775 29.7504C34.5654 29.7319 34.8648 29.4025 34.8464 29.0146C34.8279 28.6268 34.4985 28.3273 34.1106 28.3457C30.5254 28.5163 28.5842 30.8865 27.4348 32.5049C27.21 32.8215 27.2844 33.2605 27.601 33.4853Z" fill="url(#paint8_linear_14507_2499)"/>
<path fill-rule="evenodd" clip-rule="evenodd" d="M16.9769 23.7549C17.3108 23.9531 17.7422 23.8431 17.9404 23.5092C18.3698 22.7859 18.9657 21.6129 18.7733 19.914C18.7296 19.5282 18.3814 19.2508 17.9955 19.2945C17.6097 19.3382 17.3323 19.6864 17.376 20.0723C17.5183 21.3286 17.0938 22.1806 16.7312 22.7913C16.533 23.1253 16.6429 23.5566 16.9769 23.7549Z" fill="url(#paint9_linear_14507_2499)"/>
<path fill-rule="evenodd" clip-rule="evenodd" d="M8.08025 47.9736C8.35677 47.9254 8.656 47.8115 8.9588 47.6721C8.97337 47.6654 8.98771 47.6582 9.00179 47.6505L28.0714 37.2358C28.2777 37.1231 28.4141 36.9148 28.4348 36.6806C28.4555 36.4464 28.3577 36.2174 28.1743 36.0702L13.936 24.6484C13.7526 24.5013 13.5078 24.4556 13.2837 24.5266C13.0595 24.5976 12.8857 24.7759 12.8205 25.0018L6.79601 45.8603C6.79159 45.8756 6.7877 45.891 6.78433 45.9066C6.71073 46.2464 6.66438 46.5714 6.6793 46.8567C6.69369 47.1319 6.77382 47.5117 7.10241 47.771C7.42921 48.029 7.81491 48.0198 8.08025 47.9736ZM8.15384 46.2269L13.8788 26.4054L26.4717 36.5072L8.34946 46.4045C8.25722 46.4465 8.17529 46.4809 8.10284 46.5085C8.11438 46.4273 8.13113 46.3338 8.15384 46.2269Z" fill="url(#paint10_linear_14507_2499)"/>
<path fill-rule="evenodd" clip-rule="evenodd" d="M19.8245 41.7274C20.1275 41.4845 20.1763 41.042 19.9334 40.739L12.211 31.103C11.9682 30.8 11.5257 30.7512 11.2227 30.994C10.9196 31.2369 10.8709 31.6794 11.1137 31.9824L18.8361 41.6184C19.0789 41.9214 19.5214 41.9702 19.8245 41.7274Z" fill="url(#paint11_linear_14507_2499)"/>
<path fill-rule="evenodd" clip-rule="evenodd" d="M15.6525 44.0046C15.9554 43.7617 16.0041 43.3192 15.7612 43.0162L10.6218 36.6063C10.3789 36.3034 9.9364 36.2547 9.63343 36.4976C9.33046 36.7405 9.28178 37.183 9.5247 37.486L14.6641 43.8959C14.907 44.1988 15.3495 44.2475 15.6525 44.0046Z" fill="url(#paint12_linear_14507_2499)"/>
<path fill-rule="evenodd" clip-rule="evenodd" d="M12.7027 45.6149C13.0056 45.372 13.0543 44.9294 12.8113 44.6265L9.49753 40.4942C9.25459 40.1912 8.81207 40.1426 8.50912 40.3855C8.20617 40.6285 8.15753 41.071 8.40047 41.3739L11.7142 45.5063C11.9572 45.8092 12.3997 45.8579 12.7027 45.6149Z" fill="url(#paint13_linear_14507_2499)"/>
<path fill-rule="evenodd" clip-rule="evenodd" d="M22.7741 40.1171C23.0772 39.8742 23.126 39.4317 22.8832 39.1287L18.8546 34.1007C18.6117 33.7976 18.1692 33.7488 17.8662 33.9916C17.5631 34.2344 17.5143 34.6769 17.7571 34.98L21.7857 40.008C22.0286 40.311 22.4711 40.3599 22.7741 40.1171ZM16.6699 32.5008C16.973 32.258 17.0219 31.8155 16.7791 31.5124L13.3352 27.2125C13.0924 26.9094 12.65 26.8605 12.3469 27.1033C12.0438 27.346 11.9948 27.7885 12.2376 28.0916L15.6815 32.3915C15.9243 32.6946 16.3668 32.7435 16.6699 32.5008Z" fill="url(#paint14_linear_14507_2499)"/>
<path fill-rule="evenodd" clip-rule="evenodd" d="M0 41.07C0 41.6921 0.506142 42.1982 1.12828 42.1982H8.78962C9.17795 42.1982 9.49275 41.8834 9.49275 41.4951C9.49275 41.1068 9.17795 40.792 8.78962 40.792H1.40625V5.64981H41.7693V40.792H18.8055C18.4172 40.792 18.1024 41.1068 18.1024 41.4951C18.1024 41.8834 18.4172 42.1982 18.8055 42.1982H42.0472C42.6694 42.1982 43.1755 41.6921 43.1755 41.07V5.37193C43.1755 4.7498 42.6695 4.24356 42.0472 4.24356H1.12828C0.50604 4.24356 0 4.74981 0 5.37193V41.07Z" fill="url(#paint15_linear_14507_2499)"/>
<path fill-rule="evenodd" clip-rule="evenodd" d="M0 15.8398C0 16.2282 0.3148 16.543 0.703125 16.543H19.8418C20.2301 16.543 20.5449 16.2282 20.5449 15.8398C20.5449 15.4515 20.2301 15.1367 19.8418 15.1367H0.703125C0.3148 15.1367 0 15.4515 0 15.8398ZM22.3834 15.8398C22.3834 16.2282 22.6982 16.543 23.0865 16.543H42.4724C42.8607 16.543 43.1755 16.2282 43.1755 15.8398C43.1755 15.4515 42.8607 15.1367 42.4724 15.1367H23.0865C22.6982 15.1367 22.3834 15.4515 22.3834 15.8398ZM0 12.5393C0 12.9276 0.3148 13.2424 0.703125 13.2424H42.4724C42.8607 13.2424 43.1755 12.9276 43.1755 12.5393C43.1755 12.151 42.8607 11.8362 42.4724 11.8362H0.703125C0.3148 11.8362 0 12.151 0 12.5393Z" fill="url(#paint16_linear_14507_2499)"/>
<defs>
<linearGradient id="paint0_linear_14507_2499" x1="4.9375" y1="4.94641" x2="11.4379" y2="4.94641" gradientUnits="userSpaceOnUse">
<stop stop-color="#0CBAF1"/>
<stop offset="1" stop-color="#E95CE9"/>
</linearGradient>
<linearGradient id="paint1_linear_14507_2499" x1="14.0923" y1="4.94641" x2="20.5928" y2="4.94641" gradientUnits="userSpaceOnUse">
<stop stop-color="#0CBAF1"/>
<stop offset="1" stop-color="#E95CE9"/>
</linearGradient>
<linearGradient id="paint2_linear_14507_2499" x1="23.2471" y1="4.94641" x2="29.7476" y2="4.94641" gradientUnits="userSpaceOnUse">
<stop stop-color="#0CBAF1"/>
<stop offset="1" stop-color="#E95CE9"/>
</linearGradient>
<linearGradient id="paint3_linear_14507_2499" x1="32.4019" y1="4.94641" x2="38.9024" y2="4.94641" gradientUnits="userSpaceOnUse">
<stop stop-color="#0CBAF1"/>
<stop offset="1" stop-color="#E95CE9"/>
</linearGradient>
<linearGradient id="paint4_linear_14507_2499" x1="11.4985" y1="30.9079" x2="29.7316" y2="30.9079" gradientUnits="userSpaceOnUse">
<stop stop-color="#0CBAF1"/>
<stop offset="1" stop-color="#E95CE9"/>
</linearGradient>
<linearGradient id="paint5_linear_14507_2499" x1="23.9326" y1="23.5492" x2="27.9591" y2="23.5492" gradientUnits="userSpaceOnUse">
<stop stop-color="#0CBAF1"/>
<stop offset="1" stop-color="#E95CE9"/>
</linearGradient>
<linearGradient id="paint6_linear_14507_2499" x1="18.9023" y1="24.2066" x2="23.1176" y2="24.2066" gradientUnits="userSpaceOnUse">
<stop stop-color="#0CBAF1"/>
<stop offset="1" stop-color="#E95CE9"/>
</linearGradient>
<linearGradient id="paint7_linear_14507_2499" x1="24.0603" y1="28.5111" x2="28.6927" y2="28.5111" gradientUnits="userSpaceOnUse">
<stop stop-color="#0CBAF1"/>
<stop offset="1" stop-color="#E95CE9"/>
</linearGradient>
<linearGradient id="paint8_linear_14507_2499" x1="27.3049" y1="30.9801" x2="34.8472" y2="30.9801" gradientUnits="userSpaceOnUse">
<stop stop-color="#0CBAF1"/>
<stop offset="1" stop-color="#E95CE9"/>
</linearGradient>
<linearGradient id="paint9_linear_14507_2499" x1="16.6326" y1="21.5717" x2="18.8105" y2="21.5717" gradientUnits="userSpaceOnUse">
<stop stop-color="#0CBAF1"/>
<stop offset="1" stop-color="#E95CE9"/>
</linearGradient>
<linearGradient id="paint10_linear_14507_2499" x1="6.67651" y1="36.2464" x2="28.4375" y2="36.2464" gradientUnits="userSpaceOnUse">
<stop stop-color="#0CBAF1"/>
<stop offset="1" stop-color="#E95CE9"/>
</linearGradient>
<linearGradient id="paint11_linear_14507_2499" x1="10.9592" y1="36.3607" x2="20.0879" y2="36.3607" gradientUnits="userSpaceOnUse">
<stop stop-color="#0CBAF1"/>
<stop offset="1" stop-color="#E95CE9"/>
</linearGradient>
<linearGradient id="paint12_linear_14507_2499" x1="9.37012" y1="40.2511" x2="15.9158" y2="40.2511" gradientUnits="userSpaceOnUse">
<stop stop-color="#0CBAF1"/>
<stop offset="1" stop-color="#E95CE9"/>
</linearGradient>
<linearGradient id="paint13_linear_14507_2499" x1="8.24585" y1="43.0002" x2="12.9659" y2="43.0002" gradientUnits="userSpaceOnUse">
<stop stop-color="#0CBAF1"/>
<stop offset="1" stop-color="#E95CE9"/>
</linearGradient>
<linearGradient id="paint14_linear_14507_2499" x1="12.0833" y1="33.6102" x2="23.0376" y2="33.6102" gradientUnits="userSpaceOnUse">
<stop stop-color="#0CBAF1"/>
<stop offset="1" stop-color="#E95CE9"/>
</linearGradient>
<linearGradient id="paint15_linear_14507_2499" x1="0" y1="23.2209" x2="43.1755" y2="23.2209" gradientUnits="userSpaceOnUse">
<stop stop-color="#0CBAF1"/>
<stop offset="1" stop-color="#E95CE9"/>
</linearGradient>
<linearGradient id="paint16_linear_14507_2499" x1="0" y1="14.1896" x2="43.1755" y2="14.1896" gradientUnits="userSpaceOnUse">
<stop stop-color="#0CBAF1"/>
<stop offset="1" stop-color="#E95CE9"/>
</linearGradient>
</defs>
</svg>
