<svg width="47" height="48" viewBox="0 0 47 48" fill="none" xmlns="http://www.w3.org/2000/svg">
<path fill-rule="evenodd" clip-rule="evenodd" d="M12.6072 32.2685C10.5134 32.9756 8.20894 32.137 7.05942 30.2493L6.47294 30.6065L7.05942 30.2493L3.16233 23.8499C1.45074 21.0392 1.1096 17.603 2.23514 14.5107L6.19786 3.6233L5.53714 3.38282L6.19786 3.6233C6.83408 1.87527 8.76694 0.97395 10.515 1.61017L28.3691 8.10854L28.6096 7.44782L28.3691 8.10854C30.1171 8.74475 31.0185 10.6777 30.3822 12.4257L26.4195 23.3131C25.294 26.4054 22.8239 28.8184 19.7061 29.8713L12.6072 32.2685L12.6072 32.2685ZM13.0572 33.6009C10.3402 34.5184 7.34996 33.4302 5.85835 30.9807L1.96126 24.5813L2.5618 24.2156L1.96126 24.5813C0.027476 21.4058 -0.357947 17.5235 0.913701 14.0297L4.87642 3.14233C5.77826 0.664494 8.51809 -0.613122 10.9959 0.288723L28.8501 6.78709C31.3279 7.68894 32.6055 10.4289 31.7037 12.9067L27.7409 23.7941C26.4693 27.2878 23.6785 30.0141 20.156 31.2037L19.9463 30.5826L20.156 31.2037L13.0572 33.6009C13.0572 33.6009 13.0572 33.6009 13.0572 33.6009Z" fill="url(#paint0_linear_14507_2534)"/>
<path fill-rule="evenodd" clip-rule="evenodd" d="M17.9823 23.6558C16.56 25.3162 14.2072 26.01 12.0322 25.2184L11.7917 25.8791L12.0322 25.2184C9.85717 24.4267 8.50079 22.3829 8.47858 20.1967C9.70082 21.212 11.2217 22.0872 12.9437 22.7139L12.9437 22.7139C14.6657 23.3407 16.3934 23.6479 17.9823 23.6558ZM11.5512 26.5399C14.8356 27.7352 18.4373 26.2441 19.9645 23.1936C20.0803 22.9624 20.0598 22.6864 19.9112 22.4748C19.7626 22.2632 19.5099 22.1502 19.2532 22.1806C17.5454 22.3826 15.5002 22.1479 13.4247 21.3925C11.3492 20.6371 9.63168 19.5022 8.45333 18.2498C8.27617 18.0615 8.00997 17.9856 7.76016 18.0521C7.51034 18.1187 7.31721 18.317 7.25726 18.5685C6.46617 21.887 8.26694 25.3444 11.5512 26.5399L11.5512 26.5399Z" fill="url(#paint1_linear_14507_2534)"/>
<path fill-rule="evenodd" clip-rule="evenodd" d="M13.1252 15.43C13.5019 15.3357 13.7309 14.954 13.6366 14.5772C13.3396 13.39 12.4066 12.356 11.1086 11.8836M13.1252 15.43C12.7485 15.5242 12.3667 15.2952 12.2724 14.9185ZM12.2724 14.9185C12.0962 14.2141 11.5163 13.5284 10.6277 13.205ZM7.28414 13.3041C7.51214 13.6184 7.9518 13.6884 8.26614 13.4604C8.85408 13.034 9.73901 12.8815 10.6276 13.205L10.6277 13.205M7.28414 13.3041C7.05615 12.9897 7.12615 12.5501 7.4405 12.3221ZM7.4405 12.3221C8.4313 11.6035 9.8106 11.4111 11.1086 11.8836Z" fill="url(#paint2_linear_14507_2534)"/>
<path fill-rule="evenodd" clip-rule="evenodd" d="M23.3273 19.1439C23.704 19.0496 23.933 18.6678 23.8388 18.2911C23.5418 17.1038 22.6088 16.0698 21.3108 15.5974M23.3273 19.1439C22.9506 19.2381 22.5688 19.0091 22.4746 18.6324ZM22.4746 18.6324C22.2984 17.9279 21.7185 17.2423 20.8298 16.9189ZM17.4863 17.0178C17.7142 17.3322 18.1539 17.4022 18.4682 17.1742C19.0562 16.7479 19.9412 16.5954 20.8298 16.9189L20.8298 16.9189M17.4863 17.0178C17.2583 16.7034 17.3283 16.2638 17.6427 16.0358ZM17.6427 16.0358C18.6335 15.3173 20.0127 15.125 21.3107 15.5974Z" fill="url(#paint3_linear_14507_2534)"/>
<path fill-rule="evenodd" clip-rule="evenodd" d="M15.2398 10.5254C15.3726 10.1605 15.1844 9.75706 14.8195 9.62424C12.7925 8.88646 11.0725 8.83528 9.84643 8.97638C9.23469 9.04679 8.7475 9.16483 8.4074 9.26797C8.23728 9.31955 8.10371 9.36749 8.00945 9.40402C7.96231 9.42229 7.92496 9.43773 7.89775 9.44936C7.88415 9.45518 7.87307 9.46005 7.86457 9.46385C7.86032 9.46575 7.85671 9.46739 7.85375 9.46874L7.8498 9.47055L7.84819 9.4713L7.84747 9.47163C7.84714 9.47178 7.84682 9.47193 8.14397 10.1092L7.84682 9.47193C7.49487 9.63604 7.34261 10.0544 7.50672 10.4063C7.67037 10.7573 8.08684 10.9097 8.43816 10.7478C8.43827 10.7478 8.43841 10.7477 8.43857 10.7476C8.44017 10.7469 8.44421 10.7451 8.45065 10.7424C8.46353 10.7369 8.48598 10.7275 8.51766 10.7152C8.58104 10.6907 8.6812 10.6544 8.81549 10.6137C9.08417 10.5322 9.48841 10.4331 10.0072 10.3734C11.0423 10.2543 12.5398 10.291 14.3386 10.9457C14.7035 11.0785 15.107 10.8904 15.2398 10.5254ZM8.44052 10.7467C8.44052 10.7467 8.44052 10.7467 8.44052 10.7467C8.44052 10.7467 8.44052 10.7467 8.44052 10.7467L8.44052 10.7467Z" fill="url(#paint4_linear_14507_2534)"/>
<path fill-rule="evenodd" clip-rule="evenodd" d="M25.0199 16.7806C25.3718 16.6165 25.5241 16.1982 25.36 15.8462L24.7227 16.1434C25.36 15.8462 25.3598 15.8459 25.3597 15.8456L25.3594 15.8449L25.3586 15.8433L25.3567 15.8393C25.3553 15.8364 25.3536 15.8328 25.3516 15.8286C25.3475 15.8202 25.3422 15.8094 25.3355 15.7962C25.3221 15.7698 25.3034 15.734 25.2791 15.6897C25.2303 15.6011 25.1588 15.4785 25.0617 15.3297C24.8674 15.032 24.5701 14.6285 24.1467 14.1813C23.2982 13.2852 21.9477 12.2188 19.9206 11.4809C19.5557 11.3481 19.1522 11.5363 19.0194 11.9012C18.8866 12.2661 19.0747 12.6696 19.4396 12.8024C21.2385 13.4571 22.4093 14.3916 23.1256 15.1482C23.4846 15.5274 23.7306 15.8631 23.884 16.0982C23.9607 16.2157 24.0142 16.3079 24.0469 16.3674C24.0633 16.3972 24.0745 16.4188 24.0808 16.4313C24.084 16.4375 24.0859 16.4415 24.0867 16.4431C24.0868 16.4432 24.0868 16.4434 24.0869 16.4435C24.2519 16.7933 24.6689 16.9443 25.0199 16.7806Z" fill="url(#paint5_linear_14507_2534)"/>
<path fill-rule="evenodd" clip-rule="evenodd" d="M39.7885 44.3254C38.639 46.2131 36.3347 47.0518 34.2407 46.3447L27.1419 43.9474C27.1419 43.9474 27.1419 43.9474 27.1419 43.9474C24.0241 42.8945 21.554 40.4815 20.4284 37.3893C20.4284 37.3893 20.4284 37.3893 20.4284 37.3893L19.1719 33.937C19.0391 33.572 18.6356 33.3839 18.2707 33.5167C17.9058 33.6495 17.7176 34.053 17.8505 34.4179L19.107 37.8703L19.107 37.8703C20.3786 41.364 23.1694 44.0902 26.6919 45.2798L26.6919 45.2798L33.7908 47.677C36.5079 48.5946 39.498 47.5062 40.9896 45.0568L44.8867 38.6575L44.2861 38.2917L44.8867 38.6575C46.8205 35.482 47.2059 31.5996 45.9343 28.1059L41.9716 17.2184C41.0698 14.7406 38.3299 13.463 35.852 14.3648L35.852 14.3648L32.7025 15.5112C32.3376 15.644 32.1494 16.0475 32.2822 16.4124C32.4151 16.7773 32.8185 16.9654 33.1834 16.8326L36.333 15.6863C38.0811 15.05 40.014 15.9514 40.6502 17.6994L44.6129 28.5868C45.7383 31.6791 45.3972 35.1154 43.6856 37.926L39.7885 44.3254L40.3891 44.6911L39.7885 44.3254Z" fill="url(#paint6_linear_14507_2534)"/>
<path fill-rule="evenodd" clip-rule="evenodd" d="M28.704 41.405C28.9538 41.4716 29.22 41.3957 29.3972 41.2074C30.5755 39.9549 32.2931 38.8201 34.3685 38.0646L34.128 37.4039L34.3685 38.0646C36.444 37.3092 38.4892 37.0745 40.197 37.2765C40.4538 37.3069 40.7065 37.1939 40.8551 36.9823C41.0036 36.7707 41.0241 36.4947 40.9084 36.2635C39.3812 33.213 35.7794 31.7219 32.4951 32.9172L32.4951 32.9173C29.2108 34.1127 27.41 37.5701 28.2011 40.8886C28.2611 41.1401 28.4542 41.3384 28.704 41.405ZM29.4224 39.2604C29.4446 37.0742 30.801 35.0304 32.9761 34.2387L32.7356 33.578L32.9761 34.2387C35.1511 33.4471 37.5038 34.1409 38.9262 35.8013C37.3372 35.8092 35.6096 36.1164 33.8876 36.7432L33.8875 36.7432C32.1656 37.37 30.6447 38.2451 29.4224 39.2604ZM32.7356 33.578L32.7344 33.5749L32.7356 33.578Z" fill="url(#paint7_linear_14507_2534)"/>
<path fill-rule="evenodd" clip-rule="evenodd" d="M26.2503 30.8624C25.4763 31.4057 24.5821 31.4885 23.9037 31.2296C23.5409 31.0912 23.1345 31.2731 22.9961 31.6359C22.8577 31.9987 23.0395 32.405 23.4023 32.5435C24.5458 32.9798 25.9277 32.8069 27.0583 32.0134L27.0584 32.0133C28.1888 31.2197 28.8209 29.9788 28.7991 28.7551C28.7922 28.3668 28.4719 28.0577 28.0836 28.0646C27.6953 28.0715 27.3862 28.3918 27.3931 28.7801C27.406 29.5062 27.0243 30.319 26.2504 30.8624" fill="url(#paint8_linear_14507_2534)"/>
<path fill-rule="evenodd" clip-rule="evenodd" d="M32.6509 27.3539C33.4208 28.3053 34.7027 28.8497 36.0788 28.7309C37.4551 28.6122 38.6247 27.8562 39.2202 26.7871C39.4092 26.4478 39.2874 26.0196 38.9481 25.8306C38.6089 25.6417 38.1807 25.7635 37.9917 26.1028C37.6383 26.7372 36.9001 27.2486 35.9579 27.3299L35.9579 27.3299C35.0158 27.4112 34.2009 27.0339 33.7441 26.4693C33.4999 26.1674 33.0571 26.1207 32.7553 26.365C32.4534 26.6093 32.4067 27.052 32.6509 27.3539Z" fill="url(#paint9_linear_14507_2534)"/>
<path fill-rule="evenodd" clip-rule="evenodd" d="M31.6083 24.6006C31.7411 24.9655 32.1446 25.1537 32.5095 25.0209C34.3082 24.3662 35.8058 24.3295 36.8408 24.4486C37.3596 24.5083 37.7639 24.6074 38.0326 24.6889C38.1668 24.7296 38.267 24.7659 38.3304 24.7904C38.3621 24.8027 38.3845 24.812 38.3974 24.8176C38.4038 24.8203 38.4079 24.8221 38.4095 24.8228L38.409 24.8226L38.4081 24.8222L38.4075 24.8219C38.4072 24.8218 38.4069 24.8216 38.6907 24.2132L38.4069 24.8216C38.4079 24.8221 38.4089 24.8225 38.4099 24.823C38.4103 24.8232 38.4104 24.8232 38.4101 24.8231L38.4095 24.8228C38.4096 24.8229 38.4098 24.8229 38.4099 24.823C38.7612 24.9849 39.1777 24.8325 39.3413 24.4815C39.5054 24.1296 39.3532 23.7112 39.0012 23.5471L38.7041 24.1844C39.0012 23.5471 39.0009 23.547 39.0006 23.5468L38.9999 23.5465L38.9983 23.5457L38.9943 23.5439C38.9913 23.5426 38.9877 23.5409 38.9835 23.539C38.975 23.5352 38.9639 23.5304 38.9503 23.5246C38.9231 23.5129 38.8857 23.4975 38.8386 23.4792C38.7443 23.4427 38.6108 23.3947 38.4407 23.3432C38.1005 23.24 37.6134 23.122 37.0016 23.0516C35.7756 22.9105 34.0556 22.9617 32.0285 23.6994C31.6636 23.8323 31.4755 24.2357 31.6083 24.6006Z" fill="url(#paint10_linear_14507_2534)"/>
<defs>
<linearGradient id="paint0_linear_14507_2534" x1="0.175537" y1="16.9617" x2="31.9929" y2="16.9617" gradientUnits="userSpaceOnUse">
<stop stop-color="#0CBAF1"/>
<stop offset="1" stop-color="#E95CE9"/>
</linearGradient>
<linearGradient id="paint1_linear_14507_2534" x1="7.07202" y1="22.4903" x2="20.0389" y2="22.4903" gradientUnits="userSpaceOnUse">
<stop stop-color="#0CBAF1"/>
<stop offset="1" stop-color="#E95CE9"/>
</linearGradient>
<linearGradient id="paint2_linear_14507_2534" x1="7.15015" y1="13.5382" x2="13.6578" y2="13.5382" gradientUnits="userSpaceOnUse">
<stop stop-color="#0CBAF1"/>
<stop offset="1" stop-color="#E95CE9"/>
</linearGradient>
<linearGradient id="paint3_linear_14507_2534" x1="17.3523" y1="17.252" x2="23.86" y2="17.252" gradientUnits="userSpaceOnUse">
<stop stop-color="#0CBAF1"/>
<stop offset="1" stop-color="#E95CE9"/>
</linearGradient>
<linearGradient id="paint4_linear_14507_2534" x1="7.44067" y1="9.95108" x2="15.2824" y2="9.95108" gradientUnits="userSpaceOnUse">
<stop stop-color="#0CBAF1"/>
<stop offset="1" stop-color="#E95CE9"/>
</linearGradient>
<linearGradient id="paint5_linear_14507_2534" x1="18.9768" y1="14.1425" x2="25.426" y2="14.1425" gradientUnits="userSpaceOnUse">
<stop stop-color="#0CBAF1"/>
<stop offset="1" stop-color="#E95CE9"/>
</linearGradient>
<linearGradient id="paint6_linear_14507_2534" x1="17.8079" y1="31.0378" x2="46.6724" y2="31.0378" gradientUnits="userSpaceOnUse">
<stop stop-color="#0CBAF1"/>
<stop offset="1" stop-color="#E95CE9"/>
</linearGradient>
<linearGradient id="paint7_linear_14507_2534" x1="28.0159" y1="36.9668" x2="40.9828" y2="36.9668" gradientUnits="userSpaceOnUse">
<stop stop-color="#0CBAF1"/>
<stop offset="1" stop-color="#E95CE9"/>
</linearGradient>
<linearGradient id="paint8_linear_14507_2534" x1="22.9497" y1="30.4209" x2="28.7997" y2="30.4209" gradientUnits="userSpaceOnUse">
<stop stop-color="#0CBAF1"/>
<stop offset="1" stop-color="#E95CE9"/>
</linearGradient>
<linearGradient id="paint9_linear_14507_2534" x1="32.4944" y1="27.2444" x2="39.3092" y2="27.2444" gradientUnits="userSpaceOnUse">
<stop stop-color="#0CBAF1"/>
<stop offset="1" stop-color="#E95CE9"/>
</linearGradient>
<linearGradient id="paint10_linear_14507_2534" x1="31.5657" y1="24.0263" x2="39.4074" y2="24.0263" gradientUnits="userSpaceOnUse">
<stop stop-color="#0CBAF1"/>
<stop offset="1" stop-color="#E95CE9"/>
</linearGradient>
</defs>
</svg>
