<svg width="72" height="16" viewBox="0 0 72 16" fill="none" xmlns="http://www.w3.org/2000/svg">
<path d="M11.5298 6.87684C11.3349 7.07294 11.1857 7.30961 11.0927 7.56994C10.9997 7.83033 10.9653 8.10799 10.9919 8.38318L10.9826 8.37392C11.01 8.69787 10.9663 9.02383 10.8546 9.32916C10.743 9.63444 10.5661 9.91169 10.3362 10.1416C10.1064 10.3714 9.8291 10.5484 9.52377 10.66C9.21849 10.7716 8.89249 10.8153 8.56859 10.788L8.57785 10.7972C8.19038 10.7612 7.80122 10.8455 7.46339 11.0387C7.12561 11.2319 6.85561 11.5246 6.69026 11.8769C6.52492 12.2292 6.47221 12.6238 6.53937 13.0072C6.60659 13.3905 6.79034 13.7437 7.06564 14.0188C7.34094 14.2938 7.69435 14.4773 8.0777 14.5441C8.4611 14.6109 8.85571 14.5579 9.20785 14.3922C9.55998 14.2265 9.8524 13.9563 10.0453 13.6183C10.2382 13.2803 10.3222 12.8911 10.2858 12.5036L10.2956 12.5129C10.2682 12.189 10.3119 11.863 10.4235 11.5577C10.5352 11.2524 10.7121 10.9751 10.942 10.7452C11.1719 10.5154 11.4491 10.3384 11.7544 10.2268C12.0597 10.1152 12.3857 10.0715 12.7096 10.0988L12.6998 10.0896C13.0163 10.118 13.3349 10.0661 13.6261 9.93869C13.9172 9.81125 14.1714 9.61238 14.3652 9.36053C14.559 9.10868 14.6861 8.81194 14.7347 8.49792C14.7833 8.18384 14.7518 7.86262 14.6432 7.56392C14.5346 7.26528 14.3523 6.99888 14.1133 6.78941C13.8743 6.57994 13.5863 6.43419 13.276 6.36569C12.9657 6.29719 12.6431 6.30809 12.3381 6.39742C12.0331 6.4868 11.7557 6.65169 11.5314 6.87684H11.5298Z" fill="#D1D1D1"/>
<path d="M7.73599 9.58466L7.72621 9.5754C8.00151 9.60312 8.27953 9.56933 8.54023 9.47645C8.80087 9.38357 9.03764 9.23397 9.23338 9.03838C9.42907 8.8428 9.57893 8.60613 9.67196 8.34554C9.76505 8.08495 9.79904 7.80698 9.77153 7.53163L9.7813 7.54089C9.75394 7.21694 9.79765 6.89098 9.90925 6.58565C10.0209 6.28037 10.1979 6.00312 10.4277 5.77324C10.6576 5.5434 10.9348 5.36644 11.2401 5.25484C11.5455 5.14316 11.8714 5.09949 12.1954 5.12683L12.1856 5.11757C12.5731 5.15398 12.9624 5.06993 13.3004 4.87694C13.6384 4.68395 13.9086 4.39139 14.0742 4.03917C14.2398 3.68695 14.2927 3.29222 14.2258 2.90882C14.1588 2.52541 13.9752 2.17201 13.7 1.89679C13.4248 1.62158 13.0713 1.43796 12.6879 1.37099C12.3045 1.30402 11.9098 1.35694 11.5576 1.52255C11.2054 1.68816 10.9128 1.95839 10.7198 2.29638C10.5268 2.63437 10.4428 3.02367 10.4792 3.41117L10.4699 3.4014C10.4973 3.72535 10.4537 4.05137 10.3421 4.35671C10.2305 4.66205 10.0536 4.93935 9.82373 5.16926C9.59384 5.39909 9.31654 5.57606 9.01121 5.68766C8.70583 5.79926 8.37982 5.84287 8.05587 5.81546L8.06513 5.82523C7.78983 5.79751 7.51176 5.8313 7.25112 5.92418C6.99048 6.01701 6.7537 6.16666 6.55796 6.36225C6.36223 6.55783 6.21241 6.7945 6.11933 7.05509C6.02629 7.31568 5.9923 7.59365 6.01981 7.869L6.01056 7.85974C6.03781 8.18364 5.99405 8.5096 5.8824 8.81488C5.77069 9.1201 5.59378 9.39736 5.36395 9.62719C5.13409 9.85702 4.85687 10.0339 4.55161 10.1456C4.24635 10.2573 3.9204 10.3011 3.5965 10.2738L3.60576 10.2831C3.21825 10.2466 2.82895 10.3307 2.49096 10.5237C2.15297 10.7167 1.88274 11.0092 1.71714 11.3615C1.55153 11.7137 1.4986 12.1084 1.56557 12.4918C1.63255 12.8752 1.81617 13.2286 2.09138 13.5038C2.36659 13.7791 2.72 13.9627 3.1034 14.0296C3.48681 14.0966 3.88154 14.0437 4.23376 13.8781C4.58597 13.7125 4.87853 13.4423 5.07152 13.1043C5.26453 12.7662 5.34857 12.377 5.31216 11.9895L5.32193 11.9987C5.29457 11.6748 5.33828 11.3488 5.44993 11.0435C5.56153 10.7382 5.7385 10.461 5.96833 10.2311C6.19822 10.0012 6.47547 9.82426 6.78075 9.71266C7.08608 9.60101 7.41204 9.5573 7.73599 9.58466Z" fill="#D1D1D1"/>
<path d="M4.28922 8.55164C4.48414 8.35559 4.63338 8.11892 4.72628 7.85853C4.81918 7.59815 4.85345 7.32044 4.82665 7.04529L4.83641 7.05455C4.80905 6.73055 4.85275 6.40444 4.96445 6.09906C5.07616 5.79368 5.25319 5.51637 5.48318 5.28649C5.71317 5.05661 5.99052 4.8797 6.29596 4.76813C6.60139 4.65655 6.9275 4.61299 7.2515 4.64049L7.24173 4.63124C7.62909 4.66753 8.01825 4.58345 8.35609 4.39047C8.69392 4.19749 8.96397 3.905 9.12952 3.5529C9.29502 3.20079 9.34789 2.8062 9.28093 2.42294C9.21397 2.03968 9.03037 1.6864 8.75527 1.41129C8.48018 1.13618 8.12687 0.952622 7.74362 0.885651C7.36038 0.818676 6.96577 0.871555 6.61369 1.03706C6.26155 1.20257 5.96908 1.47266 5.77612 1.81049C5.58311 2.14833 5.49902 2.53747 5.53533 2.92484L5.52607 2.91558C5.55343 3.2395 5.50972 3.56549 5.39807 3.87079C5.28642 4.17609 5.10951 4.45335 4.87965 4.68321C4.64979 4.91308 4.37253 5.09001 4.06723 5.20163C3.76192 5.31328 3.43594 5.357 3.11202 5.32964L3.12127 5.33889C2.80477 5.3105 2.48621 5.3625 2.19514 5.48999C1.90406 5.61748 1.64988 5.81641 1.45614 6.0683C1.2624 6.32015 1.13539 6.61689 1.08685 6.93092C1.03831 7.24499 1.06983 7.56621 1.17849 7.86481C1.28714 8.16345 1.46942 8.4298 1.70842 8.63922C1.94743 8.84869 2.23543 8.99438 2.54574 9.06289C2.85604 9.13134 3.17862 9.12038 3.48357 9.03105C3.78852 8.94167 4.06598 8.77679 4.29024 8.55164H4.28922Z" fill="#D1D1D1"/>
<path d="M20.2202 3.42285H21.7476V10.8558H20.2202V3.42285Z" fill="#D1D1D1"/>
<path d="M22.6126 8.31081C22.6105 7.77668 22.767 7.25385 23.0622 6.80869C23.3574 6.36352 23.778 6.01597 24.2709 5.8101C24.7638 5.60418 25.3067 5.5492 25.8309 5.65211C26.355 5.75502 26.8369 6.01113 27.2153 6.38811C27.5938 6.76503 27.8519 7.24583 27.9569 7.76958C28.0619 8.29333 28.0091 8.83647 27.8052 9.33018C27.6012 9.82384 27.2554 10.246 26.8114 10.5429C26.3674 10.8399 25.8453 10.9985 25.3111 10.9985C24.9565 11.0025 24.6047 10.9358 24.2762 10.8023C23.9477 10.6688 23.6491 10.4712 23.3978 10.221C23.1466 9.97072 22.9477 9.6729 22.8129 9.34494C22.6781 9.01698 22.61 8.66541 22.6126 8.31081ZM26.4821 8.31081C26.4757 8.08057 26.4016 7.85732 26.2691 7.66893C26.1365 7.4806 25.9514 7.33547 25.7368 7.2518C25.5222 7.16807 25.2877 7.14945 25.0626 7.19831C24.8375 7.24717 24.6318 7.36124 24.4712 7.52637C24.3106 7.69146 24.2022 7.90026 24.1597 8.12665C24.1171 8.35299 24.1422 8.58688 24.2318 8.79908C24.3214 9.01127 24.4716 9.1923 24.6635 9.31959C24.8555 9.44687 25.0808 9.51476 25.3111 9.51476C25.4688 9.51897 25.6257 9.49043 25.7719 9.43098C25.9181 9.37153 26.0504 9.28245 26.1604 9.16936C26.2704 9.05622 26.3558 8.92153 26.4111 8.77377C26.4665 8.62602 26.4907 8.46839 26.4821 8.31081Z" fill="#D1D1D1"/>
<path d="M34.0971 5.7647V10.599C34.0971 12.3095 32.763 13.0326 31.4089 13.0326C30.9322 13.0683 30.4548 12.972 30.0291 12.7543C29.6035 12.5365 29.246 12.2058 28.9959 11.7983L30.2991 11.0449C30.4042 11.2573 30.5717 11.4325 30.7791 11.5471C30.9866 11.6617 31.2241 11.7103 31.4598 11.6862C31.6105 11.7071 31.764 11.6938 31.9088 11.6474C32.0537 11.6009 32.1863 11.5225 32.2967 11.4179C32.4072 11.3133 32.4927 11.1853 32.547 11.0431C32.6013 10.901 32.6229 10.7485 32.6103 10.5969V10.1315C32.4314 10.3503 32.2038 10.5242 31.9456 10.6392C31.6873 10.7541 31.4058 10.8069 31.1235 10.7934C30.4517 10.7722 29.8146 10.4905 29.3469 10.0078C28.8792 9.5251 28.6177 8.87937 28.6177 8.2073C28.6177 7.53523 28.8792 6.88949 29.3469 6.40684C29.8146 5.92413 30.4517 5.6424 31.1235 5.62121C31.4058 5.60769 31.6873 5.6605 31.9456 5.77545C32.2038 5.89039 32.4314 6.06427 32.6103 6.2831V5.76367L34.0971 5.7647ZM32.6108 8.20807C32.6211 7.96193 32.5574 7.71832 32.4281 7.50864C32.2987 7.29892 32.1096 7.13275 31.885 7.03149C31.6604 6.93017 31.4107 6.89844 31.1679 6.9403C30.9251 6.98217 30.7004 7.09572 30.5226 7.26641C30.345 7.43705 30.2224 7.65696 30.1707 7.89785C30.1191 8.13874 30.1407 8.38961 30.2328 8.61811C30.325 8.84661 30.4834 9.04234 30.6876 9.18007C30.8919 9.3178 31.1327 9.39124 31.3791 9.39093C31.5396 9.40214 31.7006 9.37961 31.8519 9.32479C32.0031 9.26997 32.1412 9.18403 32.2572 9.07264C32.3732 8.96119 32.4647 8.82671 32.5256 8.67777C32.5865 8.52888 32.6155 8.36889 32.6108 8.20807Z" fill="#D1D1D1"/>
<path d="M34.9622 8.31081C34.9601 7.77668 35.1165 7.25385 35.4118 6.80869C35.707 6.36352 36.1277 6.01597 36.6205 5.8101C37.1134 5.60418 37.6563 5.5492 38.1805 5.65211C38.7046 5.75502 39.1865 6.01113 39.5649 6.38811C39.9434 6.76503 40.2015 7.24583 40.3065 7.76958C40.4115 8.29333 40.3587 8.83647 40.1548 9.33018C39.9509 9.82384 39.605 10.246 39.161 10.5429C38.717 10.8399 38.1949 10.9985 37.6607 10.9985C37.3061 11.0025 36.9543 10.9358 36.6258 10.8023C36.2973 10.6688 35.9987 10.4712 35.7474 10.221C35.4962 9.97072 35.2973 9.6729 35.1625 9.34494C35.0277 9.01698 34.9596 8.66541 34.9622 8.31081ZM38.8317 8.31081C38.8253 8.08057 38.7512 7.85732 38.6187 7.66893C38.4861 7.4806 38.301 7.33547 38.0864 7.2518C37.8718 7.16807 37.6373 7.14945 37.4122 7.19831C37.1871 7.24717 36.9814 7.36124 36.8208 7.52637C36.6602 7.69146 36.5518 7.90026 36.5093 8.12665C36.4667 8.35299 36.4918 8.58688 36.5814 8.79908C36.671 9.01127 36.8212 9.1923 37.0132 9.31959C37.2051 9.44687 37.4303 9.51476 37.6607 9.51476C37.8184 9.51897 37.9753 9.49043 38.1215 9.43098C38.2677 9.37153 38.4 9.28245 38.51 9.16936C38.62 9.05622 38.7054 8.92153 38.7607 8.77377C38.8161 8.62602 38.8403 8.46839 38.8317 8.31081Z" fill="#D1D1D1"/>
<path d="M41.0713 4.39986C41.0713 4.2186 41.125 4.04141 41.2257 3.8907C41.3264 3.73999 41.4696 3.62252 41.6371 3.55316C41.8045 3.4838 41.9888 3.46565 42.1666 3.50101C42.3443 3.53637 42.5076 3.62366 42.6358 3.75183C42.764 3.87999 42.8512 4.04329 42.8866 4.22107C42.9219 4.39884 42.9038 4.58311 42.8345 4.75057C42.7651 4.91803 42.6476 5.06116 42.4969 5.16187C42.3462 5.26257 42.169 5.31631 41.9877 5.31631C41.7455 5.3139 41.5137 5.21659 41.3424 5.04522C41.1711 4.87387 41.0737 4.64217 41.0713 4.39986ZM41.2256 5.76426H42.7535V10.8557H41.2235L41.2256 5.76426Z" fill="#D1D1D1"/>
<path d="M49.3488 8.31015C49.3664 8.64664 49.3174 8.9833 49.2044 9.30076C49.0916 9.61823 48.917 9.91024 48.6908 10.16C48.4647 10.4098 48.1913 10.6124 47.8866 10.7562C47.5819 10.8999 47.2518 10.9821 46.9152 10.9978C46.6321 11.0132 46.3492 10.9655 46.0868 10.8581C45.8245 10.7506 45.5894 10.5861 45.3985 10.3765V12.8919H43.8711V5.76443H45.3985V6.24272C45.5895 6.0333 45.8247 5.86894 46.0869 5.7616C46.3493 5.65422 46.6321 5.60655 46.9152 5.62198C47.2518 5.63766 47.582 5.71974 47.8868 5.86354C48.1917 6.00733 48.465 6.20996 48.6912 6.4598C48.9174 6.70964 49.0919 7.00175 49.2048 7.31932C49.3176 7.63684 49.3665 7.9736 49.3488 8.31015ZM47.8213 8.31015C47.8154 8.07188 47.7392 7.84066 47.6025 7.64538C47.4657 7.45016 47.2745 7.29958 47.0526 7.21256C46.8307 7.12549 46.5881 7.10579 46.355 7.15599C46.122 7.20613 45.909 7.3239 45.7426 7.49454C45.5762 7.66523 45.4638 7.88113 45.4195 8.11539C45.3752 8.34959 45.401 8.59162 45.4936 8.81127C45.5862 9.03092 45.7416 9.21832 45.9402 9.35014C46.1388 9.4819 46.3718 9.5522 46.6102 9.55215C46.7738 9.55945 46.9372 9.53204 47.0895 9.47176C47.2418 9.41154 47.3797 9.31974 47.494 9.20248C47.6084 9.08518 47.6966 8.94508 47.753 8.79131C47.8094 8.63754 47.8327 8.47354 47.8213 8.31015Z" fill="#D1D1D1"/>
<path d="M54.0622 9.32815C54.0622 10.4992 53.0445 10.998 51.9449 10.998C51.5006 11.0383 51.0545 10.9443 50.6643 10.7283C50.274 10.5123 49.9575 10.1842 49.7556 9.78638L51.0789 9.03295C51.1324 9.21681 51.2474 9.3768 51.4046 9.48609C51.5618 9.59543 51.7521 9.64752 51.9429 9.63364C52.309 9.63364 52.4926 9.52152 52.4926 9.31838C52.4926 8.75781 49.9876 9.05352 49.9876 7.29209C49.9876 6.18175 50.9246 5.62221 51.9835 5.62221C52.3816 5.60961 52.7755 5.70403 53.1247 5.8956C53.4739 6.08723 53.7655 6.36895 53.9686 6.71147L52.6654 7.41398C52.6084 7.28063 52.5132 7.16702 52.3918 7.08736C52.2705 7.00769 52.1285 6.96552 51.9835 6.96604C51.7186 6.96604 51.5556 7.06889 51.5556 7.25095C51.5577 7.83158 54.0622 7.44432 54.0622 9.32815Z" fill="#D1D1D1"/>
<path d="M59.6418 5.76465V10.8561H58.1144V10.3773C57.938 10.5885 57.7143 10.755 57.4612 10.863C57.2082 10.971 56.9336 11.0175 56.659 10.9985C55.6304 10.9985 54.7561 10.2657 54.7561 8.88996V5.76465H56.2835V8.66625C56.2707 8.78752 56.2846 8.91012 56.3242 9.02548C56.3632 9.14088 56.4275 9.24631 56.5119 9.33441C56.5962 9.42251 56.6986 9.49116 56.8122 9.53565C56.9254 9.58013 57.0472 9.59937 57.1691 9.59196C57.7292 9.59196 58.1159 9.26642 58.1159 8.54333V5.76619L59.6418 5.76465Z" fill="#D1D1D1"/>
<path d="M68.4001 7.72933V10.8552H66.8726V7.8615C66.8726 7.35236 66.6283 7.02681 66.1398 7.02681C65.6306 7.02681 65.3452 7.38321 65.3452 7.9839V10.8552H63.8183V7.8615C63.8183 7.35236 63.574 7.02681 63.0849 7.02681C62.5758 7.02681 62.2909 7.38321 62.2909 7.9839V10.8552H60.7634V5.76373H62.2909V6.23173C62.4493 6.02411 62.657 5.85944 62.8951 5.75283C63.1338 5.64616 63.395 5.60096 63.6553 5.62127C63.9165 5.60847 64.1767 5.66365 64.4107 5.78137C64.6442 5.89904 64.8433 6.07533 64.9888 6.29293C65.158 6.06525 65.3822 5.88423 65.6404 5.76676C65.8986 5.6493 66.1825 5.59926 66.4653 5.62127C67.6343 5.62179 68.4001 6.45647 68.4001 7.72933Z" fill="#D1D1D1"/>
<path d="M69.6918 5.73279C70.3177 5.73279 70.8253 5.22529 70.8253 4.59931C70.8253 3.9733 70.3177 3.46582 69.6918 3.46582C69.0659 3.46582 68.5583 3.9733 68.5583 4.59931C68.5583 5.22529 69.0659 5.73279 69.6918 5.73279Z" fill="#D1D1D1"/>
</svg>
