<svg width="72" height="19" viewBox="0 0 72 19" fill="none" xmlns="http://www.w3.org/2000/svg">
<path d="M8.30156 3.57264V1.28906H1.10156V16.9786H8.30156V14.695C6.82664 14.695 5.41211 14.1091 4.3692 13.0662C3.32628 12.0232 2.74037 10.6088 2.74037 9.13384C2.74037 7.65892 3.32628 6.24439 4.3692 5.20148C5.41211 4.15856 6.82664 3.57264 8.30156 3.57264Z" fill="#D1D1D1"/>
<path d="M8.30151 3.57324V14.6956C9.77644 14.6956 11.191 14.1097 12.2339 13.0668C13.2768 12.0238 13.8627 10.6094 13.8627 9.13444C13.8627 7.65952 13.2768 6.24498 12.2339 5.20208C11.191 4.15916 9.77644 3.57324 8.30151 3.57324Z" fill="#D1D1D1"/>
<path d="M17.9033 4.96973H19.5153V12.7339H17.9033V4.96973Z" fill="#D1D1D1"/>
<path d="M20.418 10.0747C20.418 9.51615 20.5838 8.97013 20.8945 8.50589C21.2052 8.04166 21.6467 7.6801 22.1631 7.46705C22.6795 7.25406 23.2475 7.19915 23.7952 7.3093C24.3428 7.41945 24.8454 7.68971 25.2392 8.08582C25.6331 8.48198 25.9005 8.98609 26.0075 9.53437C26.1145 10.0826 26.0564 10.6503 25.8404 11.1655C25.6244 11.6806 25.2604 12.1201 24.7943 12.4281C24.3283 12.7361 23.7813 12.8988 23.2228 12.8956C22.8523 12.8985 22.4849 12.8275 22.1423 12.6865C21.7996 12.5455 21.4885 12.3376 21.2273 12.0749C20.966 11.8121 20.7599 11.4999 20.6209 11.1564C20.482 10.813 20.413 10.4452 20.418 10.0747ZM24.4586 10.0747C24.4522 9.83392 24.375 9.60029 24.2366 9.40315C24.0982 9.20596 23.9048 9.05395 23.6804 8.96616C23.4561 8.87836 23.2108 8.85864 22.9754 8.90952C22.7399 8.96035 22.5246 9.07948 22.3565 9.25206C22.1884 9.42459 22.0748 9.64285 22.0301 9.87959C21.9854 10.1163 22.0115 10.361 22.1051 10.5829C22.1987 10.8049 22.3556 10.9944 22.5564 11.1276C22.7571 11.2609 22.9926 11.3319 23.2335 11.3321C23.3975 11.3353 23.5605 11.3046 23.7121 11.2419C23.8637 11.1794 24.0008 11.0861 24.1147 10.9681C24.2287 10.8501 24.3171 10.7098 24.3744 10.5562C24.4318 10.4024 24.4567 10.2386 24.4478 10.0747H24.4586Z" fill="#D1D1D1"/>
<path d="M32.4053 7.41525V12.4714C32.4053 14.2552 31.0083 15.0129 29.5951 15.0129C29.0967 15.0537 28.5967 14.9547 28.1515 14.7269C27.7063 14.4991 27.3335 14.1515 27.0751 13.7233L28.4345 12.9388C28.5447 13.161 28.7199 13.3442 28.9369 13.4642C29.1538 13.5841 29.4022 13.6352 29.6489 13.6105C29.806 13.6298 29.9655 13.6142 30.1159 13.5648C30.2663 13.5153 30.4039 13.4333 30.5189 13.3244C30.634 13.2155 30.7235 13.0827 30.7811 12.9352C30.8388 12.7877 30.8631 12.6293 30.8524 12.4714V11.9824C30.6649 12.2099 30.4268 12.3904 30.1573 12.5098C29.8877 12.6292 29.5941 12.6841 29.2996 12.6702C28.5871 12.6702 27.9038 12.3871 27.3999 11.8833C26.8961 11.3795 26.613 10.6961 26.613 9.9836C26.613 9.27107 26.8961 8.58777 27.3999 8.08393C27.9038 7.58009 28.5871 7.29704 29.2996 7.29704C29.5941 7.28312 29.8877 7.33803 30.1573 7.45742C30.4268 7.57682 30.6649 7.75735 30.8524 7.9848V7.44748L32.4053 7.41525ZM30.8524 9.96748C30.8631 9.71043 30.7967 9.45602 30.6617 9.23701C30.5267 9.018 30.3293 8.84439 30.0947 8.73849C29.8602 8.63258 29.5995 8.59927 29.3459 8.64279C29.0923 8.68631 28.8575 8.80468 28.6718 8.9827C28.486 9.16071 28.3577 9.39025 28.3035 9.64176C28.2492 9.89328 28.2714 10.1552 28.3672 10.394C28.4631 10.6328 28.6281 10.8374 28.8412 10.9817C29.0543 11.1259 29.3056 11.2031 29.5629 11.2033C29.7308 11.2154 29.8994 11.1921 30.0576 11.1351C30.216 11.0779 30.3606 10.9883 30.4821 10.8718C30.6037 10.7553 30.6994 10.6147 30.7632 10.4589C30.827 10.3031 30.8574 10.1357 30.8524 9.96748Z" fill="#D1D1D1"/>
<path d="M33.3134 10.0748C33.3134 9.51665 33.479 8.97106 33.7892 8.50704C34.0994 8.04301 34.5403 7.68146 35.056 7.46814C35.5718 7.25478 36.1393 7.19922 36.6866 7.30851C37.234 7.4178 37.7366 7.68699 38.1309 8.08202C38.5252 8.47711 38.7934 8.98025 38.9016 9.52777C39.0099 10.0753 38.9533 10.6427 38.7389 11.158C38.5246 11.6734 38.1622 12.1136 37.6976 12.4229C37.233 12.7323 36.6871 12.8968 36.1289 12.8957C35.7578 12.8993 35.3895 12.8288 35.046 12.6882C34.7024 12.5476 34.3904 12.3399 34.1281 12.0772C33.8659 11.8144 33.6588 11.502 33.5188 11.1581C33.379 10.8143 33.3091 10.446 33.3134 10.0748ZM37.354 10.0748C37.3477 9.83377 37.2703 9.59993 37.1317 9.40263C36.9931 9.20539 36.7992 9.05338 36.5746 8.96574C36.3499 8.87811 36.1044 8.85871 35.8688 8.91002C35.6332 8.96128 35.418 9.081 35.2501 9.25407C35.0821 9.42713 34.969 9.64593 34.925 9.88299C34.8809 10.1201 34.9077 10.3649 35.0021 10.5867C35.0965 10.8086 35.2543 10.9977 35.4557 11.1303C35.6571 11.2629 35.8932 11.3331 36.1343 11.3321C36.2984 11.3353 36.4613 11.3047 36.6129 11.242C36.7645 11.1794 36.9016 11.0862 37.0156 10.9682C37.1295 10.8502 37.2179 10.7099 37.2752 10.5562C37.3326 10.4025 37.3576 10.2386 37.3486 10.0748H37.354Z" fill="#D1D1D1"/>
<path d="M39.6914 5.9906C39.6914 5.80146 39.7475 5.61652 39.8526 5.45925C39.9577 5.30196 40.1071 5.17937 40.2818 5.10698C40.4566 5.03459 40.6489 5.01565 40.8344 5.05256C41.0199 5.08946 41.1903 5.18055 41.3241 5.31431C41.4579 5.44807 41.5489 5.61851 41.5859 5.80399C41.6228 5.98952 41.6038 6.18183 41.5314 6.35662C41.4591 6.53135 41.3364 6.68072 41.1792 6.78582C41.0219 6.89092 40.837 6.94702 40.6478 6.94702C40.395 6.94422 40.1534 6.84256 39.9746 6.6638C39.7959 6.48503 39.6942 6.2434 39.6914 5.9906ZM39.8472 7.41448H41.4592V12.7339H39.8472V7.41448Z" fill="#D1D1D1"/>
<path d="M48.3582 10.0743C48.3762 10.4281 48.3241 10.782 48.2049 11.1155C48.0857 11.4491 47.9017 11.7558 47.6635 12.0179C47.4253 12.2802 47.1376 12.4926 46.8169 12.6432C46.4963 12.7937 46.149 12.8794 45.7952 12.8952C45.4949 12.9152 45.1939 12.8671 44.9148 12.7545C44.6357 12.6419 44.3856 12.4678 44.1832 12.2451V14.8725H42.5713V7.41462H44.1832V7.91432C44.3859 7.69225 44.6362 7.51891 44.9153 7.40726C45.1945 7.29555 45.4952 7.24848 45.7952 7.26955C46.1476 7.2854 46.4935 7.37056 46.8131 7.52009C47.1326 7.66963 47.4196 7.88069 47.6575 8.14112C47.8956 8.40156 48.0799 8.70632 48.2001 9.03806C48.3203 9.36974 48.3741 9.72184 48.3582 10.0743ZM46.7462 10.0743C46.7399 9.82474 46.66 9.58263 46.5166 9.37829C46.3733 9.17394 46.1727 9.0164 45.9402 8.92554C45.7077 8.83463 45.4536 8.81443 45.2096 8.86735C44.9657 8.92028 44.7428 9.04408 44.5689 9.22316C44.3949 9.40225 44.2777 9.62867 44.232 9.87412C44.1862 10.1195 44.2139 10.373 44.3116 10.6027C44.4093 10.8324 44.5726 11.0282 44.781 11.1656C44.9895 11.3029 45.2339 11.3756 45.4835 11.3746C45.6545 11.3819 45.8251 11.3529 45.9841 11.2896C46.1431 11.2263 46.287 11.1301 46.4062 11.0074C46.5254 10.8846 46.6173 10.738 46.6759 10.5772C46.7346 10.4164 46.7585 10.245 46.7462 10.0743Z" fill="#D1D1D1"/>
<path d="M53.2639 11.1386C53.2639 12.3636 52.1893 12.8848 51.0502 12.8848C50.5856 12.9266 50.1191 12.8282 49.7111 12.6021C49.3031 12.3761 48.9722 12.0328 48.7612 11.6168L50.1475 10.8323C50.2024 11.024 50.3215 11.1911 50.4848 11.3055C50.6482 11.42 50.8458 11.4748 51.0448 11.461C51.4263 11.461 51.6197 11.3428 51.6197 11.1278C51.6197 10.5422 49.003 10.8538 49.003 9.01081C49.003 7.85022 49.9809 7.26992 51.0878 7.26992C51.5085 7.25106 51.9265 7.34654 52.2973 7.54615C52.6682 7.74576 52.9781 8.04209 53.1941 8.40365L51.8078 9.13439C51.7465 8.99577 51.6465 8.87788 51.5197 8.79492C51.3928 8.71196 51.2447 8.66752 51.0932 8.66693C50.8138 8.66693 50.6472 8.77439 50.6472 8.96245C50.6472 9.57499 53.2639 9.17201 53.2639 11.1386Z" fill="#D1D1D1"/>
<path d="M59.1045 7.41504V12.7344H57.4925V12.2347C57.3093 12.456 57.0767 12.631 56.8139 12.7458C56.5506 12.8606 56.2642 12.9119 55.9773 12.8956C54.9027 12.8956 53.9839 12.1273 53.9839 10.6927V7.41504H55.5958V10.4509C55.5829 10.5778 55.598 10.7059 55.6399 10.8265C55.6818 10.947 55.749 11.0571 55.8371 11.149C55.9257 11.241 56.0332 11.3127 56.1519 11.3591C56.2707 11.4056 56.398 11.4257 56.5254 11.418C57.1057 11.418 57.514 11.0741 57.514 10.3434V7.41504H59.1045Z" fill="#D1D1D1"/>
<path d="M68.2389 9.46773V12.7346H66.6269V9.60743C66.6269 9.07012 66.3744 8.73698 65.864 8.73698C65.3535 8.73698 65.0311 9.10773 65.0311 9.73639V12.7346H63.4192V9.60743C63.4192 9.07012 63.1667 8.73698 62.6562 8.73698C62.1458 8.73698 61.8234 9.10773 61.8234 9.73639V12.7346H60.2114V7.41519H61.8234V7.90415C61.9905 7.68815 62.2081 7.51707 62.4579 7.40638C62.7072 7.29569 62.9807 7.24884 63.2526 7.27012C63.525 7.25588 63.7969 7.31283 64.0409 7.43529C64.2848 7.55774 64.4927 7.74156 64.6443 7.96862C64.8216 7.73135 65.0558 7.54286 65.3256 7.42073C65.5948 7.29854 65.8914 7.24674 66.1864 7.27012C67.4437 7.27012 68.2389 8.14057 68.2389 9.46773Z" fill="#D1D1D1"/>
<path d="M69.5927 7.38273C70.2456 7.38273 70.7748 6.85348 70.7748 6.20064C70.7748 5.54781 70.2456 5.01855 69.5927 5.01855C68.9399 5.01855 68.4106 5.54781 68.4106 6.20064C68.4106 6.85348 68.9399 7.38273 69.5927 7.38273Z" fill="#D1D1D1"/>
</svg>
