<svg width="72" height="19" viewBox="0 0 72 19" fill="none" xmlns="http://www.w3.org/2000/svg">
<g clip-path="url(#clip0_14661_2190)">
<path d="M21.6682 13.0783H26.7602V11.5446H23.478V5.76758H21.6682V13.0783Z" fill="#D1D1D1"/>
<path d="M29.777 12.055C29.051 12.055 28.6727 11.4211 28.6727 10.4702C28.6727 9.51924 29.051 8.87508 29.777 8.87508C30.5029 8.87508 30.8915 9.51924 30.8915 10.4702C30.8915 11.4211 30.5029 12.055 29.777 12.055ZM29.7872 13.2411C31.4743 13.2411 32.5786 12.0448 32.5786 10.4702C32.5786 8.89553 31.4743 7.69922 29.7872 7.69922C28.1103 7.69922 26.9856 8.89553 26.9856 10.4702C26.9856 12.0448 28.1103 13.2411 29.7872 13.2411Z" fill="#D1D1D1"/>
<path d="M35.4988 14.8877C36.2759 14.8877 36.9609 14.7139 37.421 14.3049C37.8403 13.9266 38.1163 13.354 38.1163 12.5667V7.84283H36.5213V8.40519H36.5008C36.1941 7.96552 35.7237 7.68945 35.0284 7.68945C33.7299 7.68945 32.8301 8.77329 32.8301 10.307C32.8301 11.9123 33.9241 12.7917 35.1 12.7917C35.7339 12.7917 36.1327 12.536 36.4395 12.1884H36.4804V12.7099C36.4804 13.3438 36.1838 13.7119 35.4783 13.7119C34.9262 13.7119 34.6501 13.4767 34.5581 13.2006H32.9426C33.1061 14.2947 34.0571 14.8877 35.4988 14.8877ZM35.4885 11.5544C34.8648 11.5544 34.4558 11.0432 34.4558 10.2559C34.4558 9.45835 34.8648 8.94711 35.4885 8.94711C36.1838 8.94711 36.5519 9.54015 36.5519 10.2457C36.5519 10.9819 36.2145 11.5544 35.4885 11.5544Z" fill="#D1D1D1"/>
<path d="M41.3961 12.055C40.6702 12.055 40.2918 11.4211 40.2918 10.4702C40.2918 9.51924 40.6702 8.87508 41.3961 8.87508C42.1221 8.87508 42.5106 9.51924 42.5106 10.4702C42.5106 11.4211 42.1221 12.055 41.3961 12.055ZM41.4063 13.2411C43.0934 13.2411 44.1977 12.0448 44.1977 10.4702C44.1977 8.89553 43.0934 7.69922 41.4063 7.69922C39.7295 7.69922 38.6047 8.89553 38.6047 10.4702C38.6047 12.0448 39.7295 13.2411 41.4063 13.2411Z" fill="#D1D1D1"/>
<path d="M44.6843 13.0783H46.351V7.84322H44.6843V13.0783ZM44.6843 7.11726H46.351V5.76758H44.6843V7.11726Z" fill="#D1D1D1"/>
<path d="M47.0745 14.8059H48.7411V12.536H48.7616C49.0888 12.9757 49.5693 13.2415 50.2442 13.2415C51.6143 13.2415 52.5243 12.1577 52.5243 10.4604C52.5243 8.88576 51.6756 7.68945 50.2851 7.68945C49.5693 7.68945 49.0581 8.00642 48.7002 8.47677H48.6695V7.84283H47.0745V14.8059ZM49.8147 11.9532C49.099 11.9532 48.69 11.3704 48.69 10.5217C48.69 9.67307 49.0581 9.02891 49.784 9.02891C50.4998 9.02891 50.8372 9.62195 50.8372 10.5217C50.8372 11.4113 50.4487 11.9532 49.8147 11.9532Z" fill="#D1D1D1"/>
<path d="M55.2376 13.2415C56.6078 13.2415 57.62 12.6485 57.62 11.5033C57.62 10.1639 56.5362 9.9287 55.616 9.77532C54.9513 9.65262 54.3583 9.6015 54.3583 9.23341C54.3583 8.90621 54.6753 8.75284 55.0843 8.75284C55.5444 8.75284 55.8614 8.89599 55.9227 9.36633H57.4564C57.3746 8.33362 56.5771 7.68945 55.0945 7.68945C53.8573 7.68945 52.8348 8.26204 52.8348 9.36633C52.8348 10.5933 53.8062 10.8387 54.7162 10.9921C55.4115 11.1148 56.0454 11.1659 56.0454 11.6362C56.0454 11.9737 55.7284 12.1577 55.2274 12.1577C54.6753 12.1577 54.3276 11.9021 54.2663 11.3806H52.6917C52.7428 12.536 53.7039 13.2415 55.2376 13.2415Z" fill="#D1D1D1"/>
<path d="M59.8839 13.2303C60.6099 13.2303 61.07 12.944 61.4483 12.4328H61.479V13.0769H63.0741V7.8418H61.4074V10.7661C61.4074 11.3898 61.0598 11.8193 60.4872 11.8193C59.9555 11.8193 59.6999 11.5023 59.6999 10.9297V7.8418H58.0435V11.2773C58.0435 12.443 58.6774 13.2303 59.8839 13.2303Z" fill="#D1D1D1"/>
<path d="M63.7988 13.078H65.4655V10.1434C65.4655 9.5197 65.7722 9.08003 66.2937 9.08003C66.7947 9.08003 67.0299 9.40723 67.0299 9.96959V13.078H68.6965V10.1434C68.6965 9.5197 68.9931 9.08003 69.5247 9.08003C70.0258 9.08003 70.2609 9.40723 70.2609 9.96959V13.078H71.9276V9.67307C71.9276 8.49722 71.3345 7.68945 70.1485 7.68945C69.4736 7.68945 68.9113 7.97575 68.5023 8.60969H68.4818C68.216 8.04732 67.6945 7.68945 67.0094 7.68945C66.2528 7.68945 65.7518 8.04732 65.4246 8.58924H65.3939V7.84283H63.7988V13.078Z" fill="#D1D1D1"/>
<path fill-rule="evenodd" clip-rule="evenodd" d="M8.8122 0.982422C13.6101 0.982422 17.4996 4.8719 17.4996 9.66983C17.4996 14.4678 13.6101 18.3573 8.8122 18.3573C4.01424 18.3573 0.124756 14.4678 0.124756 9.66983C0.124756 4.8719 4.01424 0.982422 8.8122 0.982422ZM17.1662 9.66983C17.1662 5.05608 13.4259 1.31585 8.8122 1.31585C8.44001 1.31585 8.07358 1.34018 7.71426 1.38735C7.94641 1.36705 8.18132 1.35669 8.41871 1.35669C12.8274 1.35669 16.4014 4.93065 16.4014 9.33935C16.4014 13.748 12.8274 17.322 8.41871 17.322C4.24487 17.322 0.819191 14.1187 0.46608 10.0363C0.657902 14.4801 4.32119 18.0238 8.8122 18.0238C13.4259 18.0238 17.1662 14.2836 17.1662 9.66983ZM16.0679 9.33935C16.0679 5.11478 12.6433 1.69012 8.41871 1.69012C8.07571 1.69012 7.73795 1.7127 7.40688 1.75645C7.61073 1.7393 7.81698 1.73054 8.02527 1.73054C12.0447 1.73054 15.3031 4.98897 15.3031 9.00841C15.3031 13.0279 12.0447 16.2863 8.02527 16.2863C4.22477 16.2863 1.10465 13.3732 0.776016 9.65807C0.943103 13.7348 4.30095 16.9886 8.41871 16.9886C12.6433 16.9886 16.0679 13.5639 16.0679 9.33935ZM8.02527 2.06397C11.8606 2.06397 14.9697 5.17311 14.9697 9.00841C14.9697 12.8437 11.8606 15.9528 8.02527 15.9528C4.27884 15.9528 1.22528 12.9861 1.08582 9.27374C1.38692 12.6245 4.20271 15.2506 7.63187 15.2506C11.2618 15.2506 14.2045 12.3079 14.2045 8.67789C14.2045 5.0479 11.2618 2.10523 7.63187 2.10523C7.44407 2.10523 7.2581 2.11311 7.07431 2.12854C7.38523 2.08597 7.70267 2.06397 8.02527 2.06397ZM13.8711 8.67789C13.8711 5.23207 11.0777 2.43866 7.63187 2.43866C7.34071 2.43866 7.0542 2.4586 6.7737 2.49719C6.92686 2.4852 7.08168 2.47909 7.23795 2.47909C10.4787 2.47909 13.1059 5.10622 13.1059 8.34699C13.1059 11.5877 10.4787 14.2149 7.23795 14.2149C4.1877 14.2149 1.68103 11.8875 1.3969 8.91165C1.51982 12.2492 4.26427 14.9171 7.63187 14.9171C11.0777 14.9171 13.8711 12.1237 13.8711 8.67789ZM7.23795 2.81252C10.2945 2.81252 12.7724 5.29039 12.7724 8.34699C12.7724 11.4036 10.2945 13.8814 7.23795 13.8814C4.24158 13.8814 1.80136 11.5002 1.70638 8.52694C1.9629 11.1386 4.16542 13.1792 6.84451 13.1792C9.69605 13.1792 12.0076 10.8675 12.0076 8.01604C12.0076 5.16454 9.69605 2.85294 6.84451 2.85294C6.71376 2.85294 6.58412 2.85781 6.45579 2.86736C6.71133 2.83121 6.97245 2.81252 7.23795 2.81252ZM11.6742 8.01604C11.6742 5.34868 9.51187 3.18637 6.84451 3.18637C6.60103 3.18637 6.36177 3.20439 6.12796 3.23916C6.23468 3.23152 6.34243 3.22763 6.45111 3.22763C8.91312 3.22763 10.909 5.22351 10.909 7.68552C10.909 10.1476 8.91312 12.1434 6.45111 12.1434C4.14403 12.1434 2.24629 10.3909 2.01652 8.14453C2.08464 10.7525 4.22013 12.8458 6.84451 12.8458C9.51187 12.8458 11.6742 10.6834 11.6742 8.01604ZM6.45111 3.56106C8.72899 3.56106 10.5756 5.40764 10.5756 7.68552C10.5756 9.96345 8.72899 11.81 6.45111 11.81C4.20219 11.81 2.37368 10.0101 2.3275 7.77231C2.53524 9.64853 4.12604 11.1077 6.05766 11.1077C8.13045 11.1077 9.81078 9.42741 9.81078 7.35462C9.81078 5.28183 8.13045 3.60148 6.05766 3.60148C5.97838 3.60148 5.89969 3.60394 5.82164 3.60879C6.02686 3.57736 6.23707 3.56106 6.45111 3.56106ZM9.47737 7.35462C9.47737 5.46596 7.94632 3.93491 6.05766 3.93491C5.86799 3.93491 5.68194 3.95035 5.50067 3.98004C5.55469 3.9772 5.60905 3.97576 5.66379 3.97576C7.34732 3.97576 8.71212 5.34054 8.71212 7.0241C8.71212 8.70767 7.34732 10.0725 5.66379 10.0725C4.10707 10.0725 2.8229 8.90556 2.63823 7.39876C2.66187 9.2671 4.18375 10.7743 6.05766 10.7743C7.94632 10.7743 9.47737 9.24328 9.47737 7.35462ZM5.66379 4.30918C7.16318 4.30918 8.37871 5.52467 8.37871 7.0241C8.37871 8.52354 7.16318 9.73902 5.66379 9.73902C4.16437 9.73902 2.94885 8.52354 2.94885 7.0241C2.94885 7.02053 2.94886 7.0169 2.94887 7.01333C3.10498 8.15595 4.08485 9.03636 5.27035 9.03636C6.56443 9.03636 7.6135 7.98728 7.6135 6.6932C7.6135 5.39908 6.56443 4.35003 5.27035 4.35003C5.24108 4.35003 5.21194 4.35057 5.18293 4.35163C5.33898 4.32374 5.49969 4.30918 5.66379 4.30918ZM7.28005 6.6932C7.28005 5.58325 6.3803 4.68346 5.27035 4.68346C4.1604 4.68346 3.26061 5.58325 3.26061 6.6932C3.26061 7.80311 4.1604 8.7029 5.27035 8.7029C6.3803 8.7029 7.28005 7.80311 7.28005 6.6932Z" fill="#D1D1D1"/>
</g>
<defs>
<clipPath id="clip0_14661_2190">
<rect width="72" height="17.8935" fill="white" transform="translate(0 0.572266)"/>
</clipPath>
</defs>
</svg>
