<svg width="72" height="20" viewBox="0 0 72 20" fill="none" xmlns="http://www.w3.org/2000/svg">
<path d="M16.6473 7.25391C16.8437 7.25391 16.9091 7.32482 16.9091 7.51572V11.8357H19.1291C19.3201 11.8357 19.391 11.9066 19.391 12.0975V12.4794C19.391 12.6703 19.3201 12.7412 19.1291 12.7412H16.2055C16.0146 12.7412 15.9382 12.6703 15.9382 12.4794V7.51572C15.9382 7.32482 16.0146 7.25391 16.2055 7.25391H16.6473Z" fill="#D1D1D1"/>
<path d="M21.3274 9.15685C21.3274 7.89685 22.1238 7.13867 23.5092 7.13867C24.8947 7.13867 25.691 7.89685 25.691 9.15685V10.8369C25.691 12.0969 24.8892 12.855 23.5092 12.855C22.1292 12.855 21.3274 12.0969 21.3274 10.8369V9.15685ZM24.7747 9.15685C24.7747 8.44776 24.3328 8.06594 23.5365 8.06594C22.7401 8.06594 22.3038 8.45322 22.3038 9.15685V10.8478C22.3038 11.5623 22.7401 11.9387 23.5365 11.9387C24.3328 11.9387 24.7747 11.5459 24.7747 10.8478V9.15685Z" fill="#D1D1D1"/>
<path d="M32.1873 9.73537C32.4 9.73537 32.4491 9.80628 32.4491 9.99719V11.0336C32.4549 11.2776 32.406 11.52 32.3059 11.7427C32.2058 11.9655 32.0572 12.163 31.8709 12.3208C31.4082 12.6893 30.8248 12.8721 30.2346 12.8336C28.8218 12.8336 28.0527 12.0754 28.0527 10.8154V9.12446C28.0527 7.88082 28.8491 7.11719 30.2346 7.11719C31.3255 7.11719 32.0346 7.5481 32.3346 8.40991C32.3514 8.44231 32.3604 8.47815 32.3608 8.51459C32.3613 8.55108 32.3533 8.58719 32.3374 8.61997C32.3216 8.65281 32.2982 8.6815 32.2693 8.70375C32.2404 8.72595 32.2067 8.74117 32.1709 8.7481L31.7455 8.89537C31.56 8.96082 31.4836 8.92264 31.4182 8.73173C31.3278 8.49877 31.1624 8.30251 30.948 8.17411C30.7336 8.04571 30.4826 7.99237 30.2346 8.02264C29.4327 8.02264 28.9964 8.40991 28.9964 9.11355V10.8481C28.9964 11.5626 29.4382 11.939 30.2346 11.939C31.0309 11.939 31.5218 11.5736 31.5218 11.039V10.6354H30.3382C30.1418 10.6354 30.0709 10.559 30.0709 10.3681V9.99719C30.0709 9.80628 30.1418 9.73537 30.3382 9.73537H32.1873Z" fill="#D1D1D1"/>
<path d="M34.7019 9.15685C34.7019 7.89685 35.4983 7.13867 36.8837 7.13867C38.2692 7.13867 39.0655 7.89685 39.0655 9.15685V10.8369C39.0655 12.0969 38.2637 12.855 36.8837 12.855C35.5037 12.855 34.7019 12.0969 34.7019 10.8369V9.15685ZM38.1437 9.15685C38.1437 8.44776 37.7019 8.06594 36.911 8.06594C36.1201 8.06594 35.6728 8.45322 35.6728 9.15685V10.8478C35.6728 11.5623 36.1146 11.9387 36.911 11.9387C37.7074 11.9387 38.1437 11.5459 38.1437 10.8478V9.15685Z" fill="#D1D1D1"/>
<path d="M41.6345 7.41209C41.6345 7.29209 41.6727 7.25391 41.7927 7.25391H42.0436C42.1636 7.25391 42.1909 7.29209 42.1909 7.41209V12.583C42.1909 12.703 42.1909 12.7412 42.0436 12.7412H41.7927C41.6727 12.7412 41.6345 12.703 41.6345 12.583V7.41209Z" fill="#D1D1D1"/>
<path d="M47.16 7.25391C47.6143 7.25391 48.0499 7.43434 48.3711 7.75556C48.6923 8.07672 48.8727 8.51238 48.8727 8.96663C48.8727 9.42089 48.6923 9.85654 48.3711 10.1777C48.0499 10.4989 47.6143 10.6794 47.16 10.6794H45.5236V12.583C45.5236 12.703 45.4964 12.7412 45.3818 12.7412H45.1255C45.0109 12.7412 44.9673 12.703 44.9673 12.583V7.41209C44.9673 7.29209 45.0109 7.25391 45.1255 7.25391H47.16ZM47.1109 10.1394C47.2671 10.1394 47.4217 10.1086 47.566 10.0489C47.7102 9.98909 47.8413 9.90149 47.9517 9.79109C48.0621 9.68069 48.1497 9.54956 48.2095 9.40534C48.2692 9.26107 48.3 9.10643 48.3 8.95027C48.3 8.79411 48.2692 8.63947 48.2095 8.4952C48.1497 8.35098 48.0621 8.21985 47.9517 8.10945C47.8413 7.99905 47.7102 7.91145 47.566 7.85167C47.4217 7.79194 47.2671 7.76118 47.1109 7.76118H45.4746V10.1394H47.1109Z" fill="#D1D1D1"/>
<path d="M53.1328 7.1447C53.5539 7.09822 53.9788 7.18882 54.3444 7.40302C54.7097 7.61728 54.9966 7.94368 55.1619 8.33379C55.2055 8.42106 55.1619 8.49197 55.0746 8.53561L54.8346 8.6447C54.7364 8.68288 54.6982 8.67742 54.6382 8.57379C54.5146 8.28426 54.3022 8.04153 54.0315 7.88073C53.7609 7.71993 53.4462 7.64935 53.1328 7.67924C52.211 7.67924 51.7092 8.0447 51.7092 8.69924C51.7038 8.89926 51.771 9.09453 51.8983 9.2489C52.0256 9.40326 52.2045 9.50641 52.4019 9.53924C52.6952 9.63491 52.9994 9.69355 53.3073 9.71379C53.68 9.73364 54.0477 9.80902 54.3982 9.93742C54.6672 10.0225 54.8984 10.1973 55.0533 10.4328C55.2082 10.6682 55.2775 10.9497 55.2492 11.2302C55.2492 12.2502 54.5073 12.8665 53.1437 12.8665C52.6964 12.9177 52.2451 12.814 51.865 12.5728C51.4849 12.3317 51.1988 11.9675 51.0546 11.5411C51.045 11.5216 51.0398 11.5003 51.0393 11.4786C51.0389 11.4569 51.0433 11.4354 51.0522 11.4156C51.061 11.3958 51.0741 11.3782 51.0906 11.3641C51.107 11.3499 51.1264 11.3396 51.1473 11.3338L51.3873 11.2465C51.4062 11.2388 51.4266 11.2351 51.447 11.2356C51.4674 11.2362 51.4874 11.241 51.5059 11.2497C51.5244 11.2584 51.5408 11.2708 51.5542 11.2863C51.5676 11.3017 51.5776 11.3197 51.5837 11.3392C51.7057 11.6474 51.9227 11.9086 52.2032 12.0852C52.4836 12.2617 52.8131 12.3444 53.1437 12.3211C54.1746 12.3211 54.6819 11.9611 54.6819 11.2302C54.6917 11.038 54.6328 10.8487 54.5157 10.6959C54.3989 10.5431 54.2316 10.4367 54.0437 10.3956C53.7615 10.3114 53.4704 10.2602 53.1764 10.2429L52.5873 10.1665C52.403 10.1274 52.2209 10.0782 52.0419 10.0192C51.865 9.96584 51.7002 9.87879 51.5564 9.76288C51.4117 9.63186 51.2977 9.47062 51.2222 9.29057C51.1468 9.11051 51.1119 8.91611 51.1201 8.72106C51.1582 7.76651 51.8728 7.1447 53.1328 7.1447Z" fill="#D1D1D1"/>
<path d="M58.189 10.8757C58.2119 11.2615 58.3816 11.6238 58.663 11.8887C58.9445 12.1537 59.3165 12.3012 59.7027 12.3012C60.0888 12.3012 60.4608 12.1537 60.7423 11.8887C61.0237 11.6238 61.1928 11.2615 61.2163 10.8757V7.41209C61.2163 7.29209 61.2545 7.25391 61.3745 7.25391H61.6254C61.7454 7.25391 61.7836 7.29209 61.7836 7.41209V10.8703C61.7836 12.1085 61.0527 12.8557 59.7054 12.8557C58.3581 12.8557 57.6272 12.1085 57.6272 10.8703V7.41209C57.6272 7.29209 57.6654 7.25391 57.7799 7.25391H58.0363C58.1508 7.25391 58.189 7.29209 58.189 7.41209V10.8757Z" fill="#D1D1D1"/>
<path d="M69.311 7.25484C69.431 7.25484 69.4692 7.29302 69.4692 7.41302V12.5839C69.4692 12.7039 69.431 12.7421 69.311 12.7421H69.0819C68.9674 12.7421 68.9292 12.7039 68.9292 12.5839V9.43666C68.9292 8.97875 68.9603 8.52133 69.0219 8.06756H68.9892C68.819 8.48249 68.6199 8.88526 68.3946 9.27302L67.2219 11.3403C67.2077 11.3762 67.1826 11.4068 67.1504 11.4283C67.1183 11.4497 67.0806 11.4608 67.0419 11.4603H66.8892C66.8499 11.4605 66.8117 11.4492 66.7784 11.4279C66.7457 11.4066 66.7195 11.3762 66.7037 11.3403L65.5146 9.2512C65.3035 8.869 65.1214 8.47153 64.9692 8.06211H64.9364C64.9921 8.52002 65.0215 8.98082 65.0237 9.44211V12.5839C65.0237 12.7039 64.9855 12.7421 64.8655 12.7421H64.6528C64.5328 12.7421 64.4946 12.7039 64.4946 12.5839V7.41302C64.4946 7.29302 64.5328 7.25484 64.6528 7.25484H64.8492C64.8939 7.25069 64.9392 7.26046 64.9779 7.28293C65.0172 7.3054 65.0483 7.33944 65.0674 7.38029L66.9764 10.773L68.8746 7.41302C68.9346 7.29847 68.9674 7.28211 69.0874 7.28211L69.311 7.25484Z" fill="#D1D1D1"/>
<path d="M6.9437 11.9126V15.8563C6.9437 16.0075 6.88365 16.1524 6.77674 16.2593C6.66988 16.3662 6.5249 16.4263 6.3737 16.4263C6.22256 16.4263 6.07758 16.3662 5.97067 16.2593C5.86376 16.1524 5.8037 16.0075 5.8037 15.8563V11.9181C5.96243 12.034 6.15269 12.0987 6.34916 12.1035C6.5633 12.1096 6.77314 12.0423 6.9437 11.9126ZM11.7982 10.7726C11.6536 10.7726 11.5148 10.8301 11.4126 10.9324C11.3103 11.0347 11.2528 11.1734 11.2528 11.3181V12.0053C11.2528 12.1565 11.3128 12.3015 11.4198 12.4084C11.5266 12.5153 11.6716 12.5753 11.8228 12.5753C11.974 12.5753 12.119 12.5153 12.2258 12.4084C12.3327 12.3015 12.3928 12.1565 12.3928 12.0053V11.3453C12.397 11.2671 12.3844 11.1889 12.3557 11.116C12.327 11.0432 12.283 10.9773 12.2265 10.9229C12.1701 10.8686 12.1027 10.8271 12.0288 10.8011C11.9549 10.7752 11.8762 10.7655 11.7982 10.7726ZM4.56552 13.4072C4.36925 13.4013 4.17925 13.3367 4.02007 13.2217V17.1763C4.02007 17.3282 4.0804 17.4739 4.18782 17.5813C4.29522 17.6887 4.4409 17.749 4.59279 17.749C4.74469 17.749 4.89037 17.6887 4.99777 17.5813C5.10518 17.4739 5.16552 17.3282 5.16552 17.1763V13.249C4.9874 13.3641 4.77724 13.4195 4.56552 13.4072ZM10.0201 9.58898C9.94616 9.58528 9.8723 9.59667 9.80292 9.62242C9.73359 9.64817 9.67021 9.68777 9.61659 9.73877C9.56303 9.78982 9.52043 9.85119 9.4913 9.9192C9.46223 9.98722 9.44723 10.0605 9.44734 10.1344V13.1726C9.44734 13.3245 9.50767 13.4702 9.61507 13.5776C9.72252 13.685 9.86816 13.7453 10.0201 13.7453C10.172 13.7453 10.3177 13.685 10.4251 13.5776C10.5325 13.4702 10.5928 13.3245 10.5928 13.1726V10.1726C10.5972 10.0939 10.5844 10.0152 10.5554 9.94189C10.5264 9.86858 10.4818 9.80242 10.4248 9.74799C10.3677 9.69355 10.2996 9.65209 10.225 9.62657C10.1505 9.60098 10.0712 9.59188 9.99279 9.59989L10.0201 9.58898ZM8.20916 10.7563C8.00369 10.7548 7.80372 10.6901 7.63643 10.5708V14.5363C7.63643 14.6882 7.69676 14.8339 7.80416 14.9413C7.91161 15.0487 8.05725 15.109 8.20916 15.109C8.36107 15.109 8.5067 15.0487 8.61416 14.9413C8.72156 14.8339 8.78189 14.6882 8.78189 14.5363V10.5763C8.60887 10.7051 8.39761 10.7723 8.18188 10.7672L8.20916 10.7563ZM3.32734 13.7944V2.71626C3.3259 2.58122 3.27125 2.45221 3.17525 2.35723C3.07925 2.26225 2.94966 2.20898 2.81461 2.20898H2.69461C2.55957 2.20898 2.42997 2.26225 2.33397 2.35723C2.23797 2.45221 2.18332 2.58122 2.18188 2.71626V13.7944C2.18188 13.9304 2.23591 14.0608 2.33206 14.157C2.42821 14.2532 2.55863 14.3072 2.69461 14.3072H2.81461C2.9506 14.3072 3.08101 14.2532 3.17716 14.157C3.27332 14.0608 3.32734 13.9304 3.32734 13.7944ZM4.62552 12.9872H4.50552C4.36954 12.9872 4.23912 12.9332 4.14297 12.837C4.04682 12.7408 3.99279 12.6104 3.99279 12.4744V4.03626C3.99423 3.90122 4.04888 3.7722 4.14488 3.67723C4.24088 3.58225 4.37048 3.52898 4.50552 3.52898H4.62552C4.76056 3.52898 4.89016 3.58225 4.98616 3.67723C5.08216 3.7722 5.13681 3.90122 5.13825 4.03626V12.4853C5.13825 12.6213 5.08423 12.7517 4.98807 12.8479C4.89192 12.9441 4.7615 12.9981 4.62552 12.9981V12.9872ZM6.43098 11.689H6.30552C6.17101 11.689 6.04196 11.6355 5.94683 11.5404C5.8517 11.4453 5.79825 11.3163 5.79825 11.1817V5.34535C5.79754 5.27827 5.81014 5.21172 5.83528 5.14955C5.86043 5.08737 5.89768 5.03081 5.94487 4.98312C5.99205 4.93544 6.04823 4.89758 6.11014 4.87175C6.17205 4.84592 6.23843 4.83262 6.30552 4.83262H6.43098C6.56603 4.83406 6.69503 4.88871 6.78999 4.98471C6.88501 5.08071 6.93825 5.2103 6.93825 5.34535V11.1817C6.93825 11.3163 6.88479 11.4453 6.78967 11.5404C6.69454 11.6355 6.56554 11.689 6.43098 11.689ZM8.23643 10.3526H8.12189C7.98683 10.3526 7.85723 10.2994 7.76123 10.2044C7.66523 10.1094 7.61058 9.9804 7.60916 9.84535V6.70353C7.60468 6.63349 7.61461 6.56329 7.63839 6.49724C7.66212 6.43124 7.69921 6.37075 7.74727 6.31964C7.79532 6.26848 7.85336 6.22778 7.91783 6.19997C7.98225 6.1722 8.05169 6.15791 8.12189 6.15808H8.24188C8.37787 6.15808 8.50829 6.21208 8.60445 6.30824C8.70061 6.4044 8.75461 6.53482 8.75461 6.6708V9.83444C8.75532 9.90224 8.74261 9.96949 8.71714 10.0323C8.69172 10.0952 8.65409 10.1523 8.60636 10.2005C8.55869 10.2487 8.50196 10.2869 8.43934 10.3131C8.37678 10.3392 8.30968 10.3526 8.24188 10.3526H8.23643ZM10.0473 9.17989H9.92734C9.79136 9.17989 9.66094 9.12589 9.56478 9.02973C9.46861 8.93357 9.41461 8.80315 9.41461 8.66717V7.85444C9.41603 7.71938 9.47068 7.59038 9.56668 7.49542C9.66268 7.4004 9.79229 7.34717 9.92734 7.34717H10.0473C10.1824 7.34717 10.312 7.4004 10.408 7.49542C10.504 7.59038 10.5586 7.71938 10.5601 7.85444V8.66717C10.5601 8.80222 10.5068 8.93182 10.4118 9.02782C10.3168 9.12382 10.1878 9.17848 10.0528 9.17989H10.0473Z" fill="#D1D1D1"/>
</svg>
