<svg width="79" height="21" viewBox="0 0 79 21" fill="none" xmlns="http://www.w3.org/2000/svg">
<g clip-path="url(#clip0_14661_2239)">
<path d="M0.453857 15.404L0.453859 5.51562L5.30431 8.2624V12.6847L9.18471 14.9096L13.0651 12.6847V8.2624L17.9156 5.51562V15.404L9.18471 20.3481L0.453857 15.404Z" fill="#D1D1D1"/>
<path fill-rule="evenodd" clip-rule="evenodd" d="M2.87909 6.88984L0.453857 5.51644L9.18471 0.572266L17.9156 5.51644L15.4903 6.88984V14.1687L9.18471 17.8769L2.87909 14.1687L2.87909 6.88984ZM15.2276 7.03863L13.0651 8.26321V8.23574L9.18471 6.01084L5.30431 8.23574V8.26321L3.14182 7.03863V14.0166L9.18471 17.5703L15.2276 14.0166V7.03863Z" fill="#D1D1D1"/>
<path d="M22.5642 14.6226V6.31641H24.1008V13.1987H27.826V14.6226H22.5642Z" fill="#D1D1D1"/>
<path d="M31.1436 14.7901C30.5693 14.7901 30.0533 14.6714 29.5954 14.4341C29.1375 14.1967 28.7766 13.8526 28.5128 13.4017C28.2489 12.9508 28.1169 12.4089 28.1169 11.7761V11.5862C28.1169 10.9534 28.2489 10.4115 28.5128 9.96058C28.7766 9.50969 29.1375 9.16558 29.5954 8.92827C30.0533 8.6909 30.5693 8.57227 31.1436 8.57227C31.7179 8.57227 32.234 8.6909 32.6919 8.92827C33.1498 9.16558 33.5107 9.50969 33.7745 9.96058C34.0384 10.4115 34.1704 10.9534 34.1704 11.5862V11.7761C34.1704 12.4089 34.0384 12.9508 33.7745 13.4017C33.5107 13.8526 33.1498 14.1967 32.6919 14.4341C32.234 14.6714 31.7179 14.7901 31.1436 14.7901ZM31.1436 13.4611C31.5938 13.4611 31.9663 13.3147 32.2612 13.022C32.5561 12.7214 32.7035 12.2942 32.7035 11.7405V11.6218C32.7035 11.0681 32.5561 10.6448 32.2612 10.3522C31.9741 10.0516 31.6015 9.90127 31.1436 9.90127C30.6935 9.90127 30.321 10.0516 30.0261 10.3522C29.7312 10.6448 29.5838 11.0681 29.5838 11.6218V11.7405C29.5838 12.2942 29.7312 12.7214 30.0261 13.022C30.321 13.3147 30.6935 13.4611 31.1436 13.4611Z" fill="#D1D1D1"/>
<path d="M34.7209 11.7049V11.5151C34.7209 10.898 34.8412 10.3719 35.0818 9.93684C35.3224 9.49384 35.6406 9.15763 36.0364 8.92827C36.4399 8.6909 36.8784 8.57227 37.3518 8.57227C37.8796 8.57227 38.2792 8.66721 38.5508 8.85705C38.8225 9.0469 39.0204 9.24469 39.1445 9.45037H39.3541V8.73837H40.7976V15.6682C40.7976 16.0716 40.6812 16.392 40.4483 16.6293C40.2155 16.8745 39.9051 16.9972 39.5171 16.9972H35.6522V15.6919H39.0049C39.2221 15.6919 39.3308 15.5732 39.3308 15.3359V13.8052H39.1212C39.0436 13.9317 38.935 14.0623 38.7953 14.1967C38.6556 14.3233 38.4694 14.4301 38.2366 14.5172C38.0037 14.6042 37.7088 14.6477 37.3518 14.6477C36.8784 14.6477 36.4399 14.5329 36.0364 14.3035C35.6406 14.0662 35.3224 13.73 35.0818 13.2949C34.8412 12.8519 34.7209 12.322 34.7209 11.7049ZM37.7709 13.3424C38.221 13.3424 38.5974 13.1961 38.9001 12.9034C39.2028 12.6107 39.3541 12.1993 39.3541 11.6693V11.5506C39.3541 11.0127 39.2028 10.6014 38.9001 10.3166C38.6052 10.0239 38.2288 9.87753 37.7709 9.87753C37.3208 9.87753 36.9444 10.0239 36.6417 10.3166C36.3391 10.6014 36.1877 11.0127 36.1877 11.5506V11.6693C36.1877 12.1993 36.3391 12.6107 36.6417 12.9034C36.9444 13.1961 37.3208 13.3424 37.7709 13.3424Z" fill="#D1D1D1"/>
<path d="M44.6473 14.7901C44.073 14.7901 43.5569 14.6714 43.099 14.4341C42.6411 14.1967 42.2802 13.8526 42.0164 13.4017C41.7525 12.9508 41.6206 12.4089 41.6206 11.7761V11.5862C41.6206 10.9534 41.7525 10.4115 42.0164 9.96058C42.2802 9.50969 42.6411 9.16558 43.099 8.92827C43.5569 8.6909 44.073 8.57227 44.6473 8.57227C45.2216 8.57227 45.7376 8.6909 46.1955 8.92827C46.6534 9.16558 47.0143 9.50969 47.2781 9.96058C47.542 10.4115 47.674 10.9534 47.674 11.5862V11.7761C47.674 12.4089 47.542 12.9508 47.2781 13.4017C47.0143 13.8526 46.6534 14.1967 46.1955 14.4341C45.7376 14.6714 45.2216 14.7901 44.6473 14.7901ZM44.6473 13.4611C45.0974 13.4611 45.4699 13.3147 45.7648 13.022C46.0597 12.7214 46.2072 12.2942 46.2072 11.7405V11.6218C46.2072 11.0681 46.0597 10.6448 45.7648 10.3522C45.4777 10.0516 45.1052 9.90127 44.6473 9.90127C44.1971 9.90127 43.8247 10.0516 43.5297 10.3522C43.2348 10.6448 43.0874 11.0681 43.0874 11.6218V11.7405C43.0874 12.2942 43.2348 12.7214 43.5297 13.022C43.8247 13.3147 44.1971 13.4611 44.6473 13.4611Z" fill="#D1D1D1"/>
<path d="M48.504 14.6228V8.73718H49.9707V14.6228H48.504ZM49.2373 8.04897C48.9735 8.04897 48.7484 7.96197 48.5622 7.78792C48.3837 7.61386 48.2944 7.38444 48.2944 7.09971C48.2944 6.81492 48.3837 6.5855 48.5622 6.41144C48.7484 6.23744 48.9735 6.15039 49.2373 6.15039C49.509 6.15039 49.734 6.23744 49.9125 6.41144C50.091 6.5855 50.1803 6.81492 50.1803 7.09971C50.1803 7.38444 50.091 7.61386 49.9125 7.78792C49.734 7.96197 49.509 8.04897 49.2373 8.04897Z" fill="#D1D1D1"/>
<path d="M51.0723 16.9972V8.73837H52.5158V9.45037H52.7255C52.8571 9.22095 53.0627 9.01921 53.3425 8.84516C53.6218 8.66321 54.0215 8.57227 54.5414 8.57227C55.0072 8.57227 55.4378 8.6909 55.8333 8.92827C56.2294 9.15763 56.5474 9.49779 56.788 9.94874C57.0287 10.3996 57.149 10.9455 57.149 11.5862V11.7761C57.149 12.4168 57.0287 12.9627 56.788 13.4136C56.5474 13.8645 56.2294 14.2086 55.8333 14.446C55.4378 14.6754 55.0072 14.7901 54.5414 14.7901C54.1919 14.7901 53.8971 14.7465 53.6564 14.6595C53.4236 14.5804 53.2336 14.4776 53.0864 14.351C52.9465 14.2165 52.8339 14.0821 52.7487 13.9476H52.5391V16.9972H51.0723ZM54.0989 13.4848C54.5569 13.4848 54.9334 13.3384 55.2282 13.0457C55.5308 12.7452 55.682 12.3101 55.682 11.7405V11.6218C55.682 11.0523 55.5308 10.6211 55.2282 10.3284C54.9256 10.0278 54.5492 9.87753 54.0989 9.87753C53.6487 9.87753 53.2723 10.0278 52.9697 10.3284C52.6671 10.6211 52.5158 11.0523 52.5158 11.6218V11.7405C52.5158 12.3101 52.6671 12.7452 52.9697 13.0457C53.2723 13.3384 53.6487 13.4848 54.0989 13.4848Z" fill="#D1D1D1"/>
<path d="M60.37 14.7901C59.6171 14.7901 59.0001 14.6239 58.5189 14.2917C58.0382 13.9594 57.747 13.4848 57.6458 12.8677L58.9965 12.5118C59.0507 12.7886 59.14 13.0062 59.264 13.1644C59.3961 13.3226 59.5552 13.4373 59.7416 13.5085C59.9352 13.5718 60.1448 13.6035 60.37 13.6035C60.7113 13.6035 60.9638 13.5441 61.1269 13.4255C61.2896 13.2989 61.3711 13.1446 61.3711 12.9627C61.3711 12.7807 61.2937 12.6423 61.1383 12.5474C60.9834 12.4445 60.735 12.3615 60.3932 12.2982L60.0674 12.2388C59.6636 12.1597 59.2949 12.0529 58.9614 11.9185C58.6278 11.7761 58.3599 11.5823 58.158 11.3371C57.9566 11.0918 57.8554 10.7754 57.8554 10.3877C57.8554 9.80237 58.065 9.35542 58.4843 9.0469C58.903 8.73048 59.4545 8.57227 60.1371 8.57227C60.7815 8.57227 61.3169 8.71863 61.7434 9.01132C62.1704 9.304 62.4498 9.68769 62.582 10.1623L61.2199 10.5895C61.1579 10.2889 61.0298 10.0753 60.8357 9.94874C60.6493 9.82216 60.4164 9.75884 60.1371 9.75884C59.8578 9.75884 59.6445 9.81027 59.4968 9.91311C59.3497 10.0081 59.2758 10.1425 59.2758 10.3166C59.2758 10.5064 59.3533 10.6488 59.5087 10.7437C59.6636 10.8307 59.8732 10.898 60.1371 10.9455L60.4629 11.0048C60.8977 11.0839 61.2896 11.1907 61.6391 11.3252C61.9959 11.4517 62.2753 11.6376 62.4771 11.8829C62.6868 12.1202 62.7916 12.4445 62.7916 12.8559C62.7916 13.4729 62.5701 13.9515 62.1276 14.2917C61.6933 14.6239 61.1073 14.7901 60.37 14.7901Z" fill="#D1D1D1"/>
<path d="M65.7527 14.7188C65.303 14.7188 64.9069 14.6159 64.5656 14.4103C64.2321 14.1967 63.9718 13.904 63.7854 13.5322C63.5996 13.1604 63.5061 12.7332 63.5061 12.2507V8.73828H64.973V12.132C64.973 12.575 65.0778 12.9072 65.2875 13.1287C65.5043 13.3502 65.811 13.461 66.2071 13.461C66.6568 13.461 67.0064 13.3107 67.2547 13.0101C67.5031 12.7015 67.627 12.2744 67.627 11.7285V8.73828H69.0939V14.6239H67.6502V13.8525H67.4411C67.3477 14.0503 67.1732 14.2441 66.917 14.434C66.6609 14.6239 66.2727 14.7188 65.7527 14.7188Z" fill="#D1D1D1"/>
<path d="M70.2026 14.6231V8.73747H71.6458V9.37826H71.8554C71.9561 9.18047 72.1234 9.01042 72.3558 8.868C72.5886 8.71774 72.8953 8.64258 73.2759 8.64258C73.6869 8.64258 74.0168 8.72563 74.2652 8.89174C74.5136 9.04995 74.7036 9.25958 74.8357 9.52063H75.0449C75.177 9.26753 75.3635 9.05789 75.6041 8.89174C75.8447 8.72563 76.186 8.64258 76.6285 8.64258C76.9853 8.64258 77.3075 8.72168 77.5946 8.87989C77.8894 9.03016 78.1223 9.26353 78.2932 9.58C78.4713 9.88847 78.5606 10.2801 78.5606 10.7547V14.6231H77.0937V10.8615C77.0937 10.5372 77.0126 10.2959 76.8495 10.1377C76.6863 9.97158 76.4576 9.88847 76.1627 9.88847C75.8292 9.88847 75.569 9.99926 75.3826 10.2207C75.2044 10.4343 75.1151 10.7428 75.1151 11.1463V14.6231H73.6482V10.8615C73.6482 10.5372 73.5666 10.2959 73.4039 10.1377C73.2408 9.97158 73.012 9.88847 72.7167 9.88847C72.3831 9.88847 72.1234 9.99926 71.937 10.2207C71.7584 10.4343 71.669 10.7428 71.669 11.1463V14.6231H70.2026Z" fill="#D1D1D1"/>
</g>
<defs>
<clipPath id="clip0_14661_2239">
<rect width="79" height="20" fill="white" transform="translate(0 0.572266)"/>
</clipPath>
</defs>
</svg>
