<svg width="72" height="20" viewBox="0 0 72 20" fill="none" xmlns="http://www.w3.org/2000/svg">
<path d="M21.4084 6.41931H23.1504V13.4625H21.4084V6.41931ZM23.8414 10.8032C23.8414 9.06125 24.9097 8.02189 26.5588 8.02189C28.2078 8.02189 29.2762 9.06125 29.2762 10.8032C29.2762 12.5451 28.231 13.5903 26.5588 13.5903C24.8865 13.5903 23.8414 12.5742 23.8414 10.8032ZM27.5284 10.8032C27.5284 9.84512 27.151 9.28189 26.5588 9.28189C25.9665 9.28189 25.5949 9.86254 25.5949 10.8032C25.5949 11.7438 25.9607 12.3129 26.5588 12.3129C27.1568 12.3129 27.5284 11.7787 27.5284 10.809V10.8032ZM29.9323 13.8051H31.6046C31.6842 13.9819 31.8187 14.1283 31.9882 14.2225C32.1577 14.3166 32.3531 14.3535 32.5452 14.3277C33.2072 14.3277 33.5555 13.9677 33.5555 13.4451V12.4696H33.5207C33.3819 12.7686 33.1567 13.0191 32.8742 13.1889C32.5916 13.3586 32.2647 13.4398 31.9355 13.4219C30.6639 13.4219 29.822 12.4522 29.822 10.7858C29.822 9.11931 30.6233 8.06834 31.9588 8.06834C32.2982 8.05505 32.6336 8.1458 32.92 8.32841C33.2065 8.51109 33.4302 8.7769 33.5614 9.09028V8.1206H35.3033V13.4045C35.3033 14.6761 34.1826 15.4658 32.5278 15.4658C30.9891 15.4658 30.031 14.7748 29.9323 13.8109V13.8051ZM33.5614 10.7974C33.5614 9.94963 33.1723 9.41544 32.5568 9.41544C31.9414 9.41544 31.5639 9.94383 31.5639 10.7974C31.5639 11.6509 31.9355 12.1329 32.5568 12.1329C33.1781 12.1329 33.5614 11.6625 33.5614 10.8032V10.7974ZM35.9594 10.7974C35.9594 9.05544 37.0278 8.01609 38.6768 8.01609C40.3259 8.01609 41.4001 9.05544 41.4001 10.7974C41.4001 12.5393 40.3549 13.5845 38.6768 13.5845C36.9988 13.5845 35.9594 12.5742 35.9594 10.8032V10.7974ZM39.6465 10.7974C39.6465 9.83931 39.2691 9.27609 38.6768 9.27609C38.0846 9.27609 37.742 9.86254 37.742 10.809C37.742 11.7554 38.1078 12.3187 38.7001 12.3187C39.2923 12.3187 39.6465 11.7787 39.6465 10.809V10.7974ZM42.062 6.85479C42.0574 6.67892 42.1052 6.50565 42.1992 6.35696C42.2933 6.20825 42.4293 6.09082 42.5902 6.01954C42.751 5.94826 42.9294 5.92634 43.1027 5.95657C43.276 5.98679 43.4364 6.0678 43.5637 6.18931C43.6909 6.31083 43.7792 6.46739 43.8173 6.63914C43.8555 6.8109 43.8418 6.99009 43.7779 7.15406C43.7141 7.31798 43.603 7.4593 43.4588 7.56005C43.3146 7.66079 43.1437 7.71647 42.9678 7.71996C42.8512 7.72797 42.7342 7.71177 42.6242 7.6724C42.5141 7.63303 42.4134 7.57137 42.3283 7.49118C42.2433 7.41105 42.1757 7.31414 42.1299 7.20661C42.084 7.09913 42.0609 6.98329 42.062 6.86641V6.85479ZM42.062 8.13221H43.8039V13.4625H42.062V8.13221ZM50.1272 10.7974C50.1272 12.5393 49.3549 13.5322 48.031 13.5322C47.6916 13.554 47.3536 13.471 47.0628 13.2945C46.772 13.1179 46.5425 12.8563 46.4052 12.5451H46.3704V15.1696H44.6284V8.1206H46.3704V9.07286H46.4052C46.5361 8.75647 46.7613 8.48809 47.0501 8.3042C47.3389 8.12031 47.6774 8.02985 48.0194 8.04512C49.3549 8.06834 50.1504 9.06705 50.1504 10.809L50.1272 10.7974ZM48.3852 10.7974C48.3852 9.94963 47.9962 9.40963 47.3865 9.40963C46.7768 9.40963 46.3878 9.95544 46.382 10.7974C46.3762 11.6393 46.7768 12.1793 47.3865 12.1793C47.9962 12.1793 48.3852 11.6509 48.3852 10.809V10.7974ZM53.1175 8.01028C54.5633 8.01028 55.4401 8.69544 55.4807 9.79286H53.8955C53.8955 9.41544 53.582 9.17738 53.1001 9.17738C52.6181 9.17738 52.4033 9.36318 52.4033 9.63609C52.4033 9.90899 52.5949 9.99609 52.9839 10.0774L54.0988 10.3038C55.1613 10.5303 55.6143 10.96 55.6143 11.7671C55.6143 12.8703 54.6097 13.5787 53.1291 13.5787C51.6484 13.5787 50.6788 12.8703 50.6033 11.7845H52.2814C52.3336 12.1793 52.6472 12.4116 53.1581 12.4116C53.6691 12.4116 53.9014 12.2432 53.9014 11.9645C53.9014 11.6858 53.7388 11.6277 53.3207 11.5406L52.3162 11.3258C51.2768 11.1109 50.731 10.5593 50.731 9.74641C50.7426 8.70125 51.6775 8.02189 53.1175 8.02189V8.01028ZM61.4265 13.4509H59.7484V12.458H59.7136C59.6213 12.7914 59.4181 13.0831 59.137 13.2849C58.856 13.4866 58.5146 13.5862 58.1691 13.5671C57.9044 13.5821 57.6397 13.5402 57.3926 13.4441C57.1455 13.348 56.922 13.2 56.737 13.0101C56.5521 12.8202 56.41 12.5928 56.3205 12.3433C56.231 12.0938 56.1961 11.828 56.2181 11.5638V8.1206H57.9601V11.1632C57.9601 11.7961 58.2852 12.1329 58.8252 12.1329C58.9518 12.1331 59.0772 12.1063 59.1928 12.0542C59.3077 12.0022 59.4111 11.926 59.4947 11.8309C59.5777 11.7357 59.6404 11.6238 59.677 11.5027C59.7136 11.3815 59.7246 11.2539 59.7078 11.1283V8.1206H61.4497L61.4265 13.4509ZM62.2684 8.1206H63.9523V9.14834H63.9872C64.0795 8.81941 64.2786 8.53036 64.5527 8.32656C64.8268 8.12275 65.1612 8.01556 65.5026 8.02189C65.8504 7.99408 66.1954 8.09807 66.47 8.31326C66.7441 8.52845 66.9275 8.83898 66.9833 9.18318H67.0181C67.1232 8.83532 67.3415 8.53245 67.6383 8.3222C67.9344 8.11195 68.2926 8.00627 68.6555 8.02189C68.8924 8.01394 69.1282 8.05592 69.3477 8.1451C69.5677 8.23423 69.7657 8.36865 69.9301 8.53948C70.0944 8.71036 70.221 8.91388 70.3017 9.13679C70.3818 9.3597 70.4149 9.59712 70.3975 9.8335V13.4625H68.6555V10.298C68.6555 9.71738 68.3943 9.45028 67.9065 9.45028C67.7979 9.44935 67.6899 9.47176 67.5906 9.51601C67.4913 9.56025 67.4025 9.62529 67.3305 9.70675C67.2585 9.78821 67.2045 9.88414 67.1726 9.98813C67.1406 10.0922 67.1319 10.2018 67.1459 10.3096V13.4625H65.491V10.2748C65.491 9.7406 65.2297 9.45028 64.7536 9.45028C64.6439 9.45034 64.5347 9.47368 64.4348 9.51879C64.3344 9.56397 64.2444 9.62987 64.1718 9.71215C64.0986 9.79443 64.0441 9.89128 64.011 9.99632C63.9784 10.1013 63.968 10.212 63.9814 10.3212V13.4625H62.2394L62.2684 8.1206Z" fill="#D1D1D1"/>
<path d="M16.5368 6.73859C16.2413 6.06293 15.8502 5.43326 15.3755 4.86891C14.6738 4.00976 13.798 3.30895 12.8059 2.81262C11.8138 2.31629 10.7279 2.0357 9.61953 1.9893C8.5112 1.9429 7.40559 2.13175 6.37547 2.54342C5.34539 2.9551 4.41415 3.58026 3.64307 4.37776C2.87198 5.17526 2.27853 6.12703 1.90178 7.17042C1.52503 8.21378 1.37351 9.32513 1.45721 10.4313C1.54091 11.5374 1.85791 12.6133 2.38736 13.5881C2.91682 14.563 3.64672 15.4146 4.52902 16.087C5.09515 16.527 5.72071 16.8848 6.38708 17.1496C7.32134 17.5324 8.32127 17.7296 9.33095 17.7302C11.4151 17.7256 13.4124 16.8948 14.8851 15.42C16.3577 13.9452 17.1856 11.9466 17.1871 9.86246C17.1886 8.7874 16.9672 7.72371 16.5368 6.73859ZM9.32515 3.58568C10.2319 3.58559 11.1276 3.78376 11.9497 4.16633C11.7492 4.25294 11.5384 4.31344 11.3226 4.34633C10.6122 4.44916 9.95416 4.77895 9.44662 5.2865C8.93907 5.79403 8.60927 6.4521 8.50644 7.16246C8.46132 7.56084 8.2801 7.93147 7.99344 8.2118C7.70677 8.49214 7.3322 8.66494 6.93289 8.70117C6.22253 8.804 5.56446 9.13381 5.05693 9.64135C4.54939 10.1489 4.21959 10.8069 4.11676 11.5173C4.08195 11.8961 3.92033 12.2521 3.65805 12.5276C3.20553 11.5715 3.00224 10.5163 3.06711 9.46048C3.13198 8.40464 3.4629 7.38235 4.02907 6.48874C4.59523 5.59518 5.37826 4.85934 6.30527 4.34972C7.23227 3.84011 8.27313 3.57329 9.33095 3.57407L9.32515 3.58568ZM4.52322 13.927C4.59289 13.8631 4.66257 13.805 4.73225 13.7354C5.24882 13.2346 5.5804 12.5734 5.67289 11.8599C5.71039 11.4588 5.88947 11.0841 6.17805 10.8031C6.45577 10.5141 6.82953 10.3364 7.22902 10.3038C7.93938 10.2009 8.59742 9.87111 9.10497 9.36357C9.61251 8.85603 9.94231 8.19798 10.0451 7.48762C10.0703 7.06811 10.2503 6.67286 10.5503 6.37859C10.8349 6.09515 11.2122 5.924 11.6129 5.89665C12.2655 5.80686 12.8741 5.51675 13.3548 5.06633C13.9022 5.52044 14.3659 6.06672 14.7251 6.68053C14.7031 6.71031 14.6778 6.7376 14.6497 6.76182C14.3725 7.05342 13.9992 7.23493 13.5987 7.27279C12.8876 7.37382 12.2285 7.70304 11.7207 8.21088C11.2128 8.71877 10.8836 9.3778 10.7826 10.0889C10.7416 10.4886 10.5638 10.8619 10.2791 11.1455C9.99445 11.4292 9.62052 11.6056 9.22063 11.645C8.50818 11.7471 7.84769 12.0762 7.33719 12.5835C6.82675 13.0909 6.49351 13.7494 6.38708 14.4612C6.35584 14.7449 6.25835 15.0174 6.10257 15.2567C5.50682 14.9029 4.97327 14.4537 4.52322 13.927ZM9.32515 16.1683C8.73596 16.1689 8.14957 16.0868 7.58321 15.9244C7.77697 15.5632 7.90291 15.1696 7.95482 14.7631C7.99553 14.3643 8.17256 13.9917 8.45604 13.7082C8.73951 13.4247 9.11211 13.2477 9.51095 13.207C10.2224 13.1053 10.8817 12.776 11.3904 12.2684C11.8991 11.7608 12.2298 11.102 12.3329 10.3908C12.3736 9.992 12.5506 9.6194 12.8341 9.33593C13.1176 9.05246 13.4902 8.87542 13.889 8.83472C14.4244 8.7651 14.9346 8.56577 15.3755 8.25408C15.6203 9.18189 15.6492 10.1534 15.4602 11.0942C15.2712 12.0349 14.8692 12.92 14.2851 13.6812C13.7009 14.4425 12.9502 15.0599 12.0904 15.486C11.2306 15.912 10.2847 16.1355 9.32515 16.1392V16.1683Z" fill="#D1D1D1"/>
</svg>
